<svg width="9" height="18" viewBox="0 0 9 18" fill="none" xmlns="http://www.w3.org/2000/svg">
<path d="M0.396508 9.97473H2.25998V17.6463C2.25998 17.7978 2.38271 17.9205 2.53418 17.9205H5.69376C5.84523 17.9205 5.96796 17.7978 5.96796 17.6463V10.0109H8.11018C8.24946 10.0109 8.36666 9.90635 8.38256 9.76799L8.70792 6.94369C8.71686 6.86598 8.69223 6.78816 8.64025 6.72987C8.5882 6.67152 8.51373 6.63813 8.43559 6.63813H5.96807V4.86771C5.96807 4.33402 6.25542 4.06339 6.82223 4.06339C6.90301 4.06339 8.43559 4.06339 8.43559 4.06339C8.58705 4.06339 8.70978 3.94061 8.70978 3.7892V1.19675C8.70978 1.04529 8.58705 0.922561 8.43559 0.922561H6.21215C6.19647 0.921794 6.16165 0.920532 6.11032 0.920532C5.72453 0.920532 4.38356 0.996264 3.32429 1.97075C2.15063 3.05063 2.31378 4.34362 2.35277 4.5678V6.63807H0.396508C0.245043 6.63807 0.122314 6.7608 0.122314 6.91226V9.70048C0.122314 9.85195 0.245043 9.97473 0.396508 9.97473Z" fill="url(#paint0_linear_132_304)"/>
<defs>
<linearGradient id="paint0_linear_132_304" x1="4.41605" y1="0.920532" x2="4.41605" y2="17.2539" gradientUnits="userSpaceOnUse">
<stop stop-color="white"/>
<stop offset="1" stop-color="#E1D2FF"/>
</linearGradient>
</defs>
</svg>
