<svg width="12" height="23" viewBox="0 0 12 23" fill="none" xmlns="http://www.w3.org/2000/svg">
<path d="M0.695486 12.0723H3.18012V22.3011C3.18012 22.503 3.34376 22.6667 3.54571 22.6667H7.75849C7.96044 22.6667 8.12408 22.503 8.12408 22.3011V12.1205H10.9804C11.1661 12.1205 11.3223 11.9811 11.3436 11.7966L11.7774 8.03087C11.7893 7.92726 11.7565 7.82351 11.6871 7.74578C11.6177 7.66799 11.5185 7.62346 11.4143 7.62346H8.12423V5.26291C8.12423 4.55132 8.50737 4.19048 9.26312 4.19048C9.37082 4.19048 11.4143 4.19048 11.4143 4.19048C11.6162 4.19048 11.7799 4.02677 11.7799 3.82489V0.368297C11.7799 0.166344 11.6162 0.00270538 11.4143 0.00270538H8.44968C8.42877 0.00168172 8.38234 0 8.3139 0C7.79951 0 6.01155 0.100976 4.5992 1.40029C3.03432 2.84013 3.25185 4.56412 3.30383 4.86302V7.62338H0.695486C0.493534 7.62338 0.329895 7.78702 0.329895 7.98898V11.7066C0.329895 11.9086 0.493534 12.0723 0.695486 12.0723Z" fill="white"/>
</svg>
