<svg width="19" height="18" viewBox="0 0 19 18" fill="none" xmlns="http://www.w3.org/2000/svg">
<path d="M13.2707 1.62874C14.2368 1.63162 15.1625 2.01669 15.8457 2.69984C16.5288 3.38299 16.9139 4.30871 16.9168 5.27483V12.5662C16.9139 13.5324 16.5288 14.4581 15.8457 15.1412C15.1625 15.8244 14.2368 16.2094 13.2707 16.2123H5.9793C5.01318 16.2094 4.08746 15.8244 3.40431 15.1412C2.72116 14.4581 2.33609 13.5324 2.3332 12.5662V5.27483C2.33609 4.30871 2.72116 3.38299 3.40431 2.69984C4.08746 2.01669 5.01318 1.63162 5.9793 1.62874H13.2707ZM13.2707 0.170532H5.9793C3.17187 0.170532 0.875 2.46741 0.875 5.27483V12.5662C0.875 15.3737 3.17187 17.6705 5.9793 17.6705H13.2707C16.0781 17.6705 18.375 15.3737 18.375 12.5662V5.27483C18.375 2.46741 16.0781 0.170532 13.2707 0.170532Z" fill="url(#paint0_linear_3009_4)"/>
<path d="M14.3645 5.2749C14.1482 5.2749 13.9367 5.21076 13.7568 5.09057C13.577 4.97039 13.4368 4.79957 13.354 4.59971C13.2712 4.39986 13.2496 4.17994 13.2918 3.96777C13.334 3.75561 13.4381 3.56072 13.5911 3.40775C13.7441 3.25479 13.939 3.15062 14.1511 3.10842C14.3633 3.06622 14.5832 3.08788 14.7831 3.17066C14.9829 3.25344 15.1537 3.39363 15.2739 3.5735C15.3941 3.75336 15.4583 3.96483 15.4583 4.18115C15.4586 4.32487 15.4305 4.46724 15.3756 4.60008C15.3208 4.73292 15.2402 4.85361 15.1386 4.95524C15.037 5.05687 14.9163 5.13742 14.7834 5.19228C14.6506 5.24713 14.5082 5.27521 14.3645 5.2749Z" fill="url(#paint1_linear_3009_4)"/>
<path d="M9.625 6.00349C10.2019 6.00349 10.7658 6.17456 11.2455 6.49506C11.7252 6.81556 12.099 7.2711 12.3198 7.80408C12.5405 8.33705 12.5983 8.92352 12.4858 9.48933C12.3732 10.0551 12.0954 10.5749 11.6875 10.9828C11.2796 11.3907 10.7598 11.6685 10.194 11.781C9.62824 11.8936 9.04177 11.8358 8.50879 11.6151C7.97582 11.3943 7.52028 11.0204 7.19977 10.5408C6.87927 10.0611 6.7082 9.49718 6.7082 8.92029C6.70903 8.14696 7.0166 7.40554 7.56343 6.85871C8.11025 6.31189 8.85167 6.00432 9.625 6.00349ZM9.625 4.54529C8.75971 4.54529 7.91385 4.80188 7.19438 5.28261C6.47492 5.76334 5.91416 6.44662 5.58303 7.24605C5.2519 8.04547 5.16526 8.92514 5.33407 9.77381C5.50288 10.6225 5.91956 11.402 6.53141 12.0139C7.14326 12.6257 7.92281 13.0424 8.77148 13.2112C9.62015 13.38 10.4998 13.2934 11.2992 12.9623C12.0987 12.6311 12.782 12.0704 13.2627 11.3509C13.7434 10.6314 14 9.78558 14 8.92029C14 7.75997 13.5391 6.64717 12.7186 5.8267C11.8981 5.00622 10.7853 4.54529 9.625 4.54529Z" fill="url(#paint2_linear_3009_4)"/>
<defs>
<linearGradient id="paint0_linear_3009_4" x1="9.625" y1="0.170532" x2="9.625" y2="16.9843" gradientUnits="userSpaceOnUse">
<stop stop-color="white"/>
<stop offset="1" stop-color="#E1D2FF"/>
</linearGradient>
<linearGradient id="paint1_linear_3009_4" x1="14.3645" y1="3.0874" x2="14.3645" y2="5.18912" gradientUnits="userSpaceOnUse">
<stop stop-color="white"/>
<stop offset="1" stop-color="#E1D2FF"/>
</linearGradient>
<linearGradient id="paint2_linear_3009_4" x1="9.625" y1="4.54529" x2="9.625" y2="12.9522" gradientUnits="userSpaceOnUse">
<stop stop-color="white"/>
<stop offset="1" stop-color="#E1D2FF"/>
</linearGradient>
</defs>
</svg>
