<svg width="28" height="28" viewBox="0 0 28 28" fill="none" xmlns="http://www.w3.org/2000/svg">
<path d="M18.8609 4.27777C20.1491 4.28161 21.3834 4.79504 22.2943 5.7059C23.2051 6.61677 23.7185 7.85107 23.7224 9.13923V18.8611C23.7185 20.1493 23.2051 21.3836 22.2943 22.2944C21.3834 23.2053 20.1491 23.7187 18.8609 23.7226H9.13906C7.8509 23.7187 6.6166 23.2053 5.70574 22.2944C4.79487 21.3836 4.28145 20.1493 4.2776 18.8611V9.13923C4.28145 7.85107 4.79487 6.61677 5.70574 5.7059C6.6166 4.79504 7.8509 4.28161 9.13906 4.27777H18.8609ZM18.8609 2.3335H9.13906C5.39583 2.3335 2.33333 5.396 2.33333 9.13923V18.8611C2.33333 22.6043 5.39583 25.6668 9.13906 25.6668H18.8609C22.6042 25.6668 25.6667 22.6043 25.6667 18.8611V9.13923C25.6667 5.396 22.6042 2.3335 18.8609 2.3335Z" fill="white"/>
<path d="M20.3192 9.13932C20.0308 9.13932 19.7489 9.05379 19.509 8.89355C19.2692 8.73331 19.0823 8.50555 18.9719 8.23907C18.8615 7.97259 18.8327 7.67937 18.8889 7.39648C18.9452 7.11359 19.0841 6.85374 19.2881 6.64979C19.492 6.44584 19.7519 6.30695 20.0347 6.25068C20.3176 6.19441 20.6109 6.22329 20.8773 6.33367C21.1438 6.44404 21.3716 6.63096 21.5318 6.87078C21.6921 7.11061 21.7776 7.39256 21.7776 7.68099C21.778 7.87262 21.7406 8.06244 21.6674 8.23956C21.5943 8.41668 21.4869 8.57761 21.3514 8.71311C21.2159 8.84861 21.0549 8.95601 20.8778 9.02915C20.7007 9.1023 20.5109 9.13974 20.3192 9.13932Z" fill="white"/>
<path d="M14 10.1108C14.7692 10.1108 15.5211 10.3389 16.1606 10.7662C16.8002 11.1935 17.2987 11.8009 17.593 12.5116C17.8874 13.2222 17.9644 14.0042 17.8143 14.7586C17.6643 15.513 17.2939 16.2059 16.75 16.7498C16.2061 17.2937 15.5131 17.6641 14.7587 17.8142C14.0043 17.9642 13.2223 17.8872 12.5117 17.5929C11.8011 17.2985 11.1937 16.8 10.7664 16.1605C10.339 15.5209 10.1109 14.769 10.1109 13.9998C10.112 12.9687 10.5221 11.9802 11.2512 11.2511C11.9803 10.522 12.9689 10.1119 14 10.1108ZM14 8.1665C12.8463 8.1665 11.7185 8.50862 10.7592 9.1496C9.79988 9.79057 9.05221 10.7016 8.6107 11.7675C8.16918 12.8334 8.05366 14.0063 8.27874 15.1379C8.50383 16.2694 9.0594 17.3088 9.8752 18.1246C10.691 18.9404 11.7304 19.496 12.862 19.7211C13.9935 19.9462 15.1664 19.8306 16.2323 19.3891C17.2982 18.9476 18.2093 18.2 18.8502 17.2407C19.4912 16.2814 19.8333 15.1536 19.8333 13.9998C19.8333 12.4527 19.2187 10.969 18.1248 9.87505C17.0308 8.78109 15.5471 8.1665 14 8.1665Z" fill="white"/>
</svg>
