<svg width="17" height="17" viewBox="0 0 17 17" fill="none" xmlns="http://www.w3.org/2000/svg">
<path d="M3.85761 6.06177H0.638515C0.495647 6.06177 0.379883 6.17758 0.379883 6.3204V16.662C0.379883 16.8048 0.495647 16.9206 0.638515 16.9206H3.85761C4.00048 16.9206 4.11624 16.8048 4.11624 16.662V6.3204C4.11624 6.17758 4.00048 6.06177 3.85761 6.06177Z" fill="url(#paint0_linear_3009_5)"/>
<path d="M2.2492 0.920532C1.07791 0.920532 0.125 1.8724 0.125 3.04241C0.125 4.21293 1.07791 5.16516 2.2492 5.16516C3.41957 5.16516 4.3717 4.21287 4.3717 3.04241C4.37175 1.8724 3.41957 0.920532 2.2492 0.920532Z" fill="url(#paint1_linear_3009_5)"/>
<path d="M12.0454 5.80469C10.7525 5.80469 9.79676 6.36049 9.21706 6.99202V6.32035C9.21706 6.17753 9.10129 6.06172 8.95842 6.06172H5.87558C5.73271 6.06172 5.61694 6.17753 5.61694 6.32035V16.6619C5.61694 16.8048 5.73271 16.9206 5.87558 16.9206H9.08764C9.23051 16.9206 9.34627 16.8048 9.34627 16.6619V11.5452C9.34627 9.82104 9.8146 9.14932 11.0165 9.14932C12.3255 9.14932 12.4295 10.2262 12.4295 11.634V16.662C12.4295 16.8048 12.5453 16.9206 12.6882 16.9206H15.9014C16.0443 16.9206 16.1601 16.8048 16.1601 16.662V10.9894C16.1601 8.42562 15.6712 5.80469 12.0454 5.80469Z" fill="url(#paint2_linear_3009_5)"/>
<defs>
<linearGradient id="paint0_linear_3009_5" x1="2.24806" y1="6.06177" x2="2.24806" y2="16.4948" gradientUnits="userSpaceOnUse">
<stop stop-color="white"/>
<stop offset="1" stop-color="#E1D2FF"/>
</linearGradient>
<linearGradient id="paint1_linear_3009_5" x1="2.24835" y1="0.920532" x2="2.24835" y2="4.9987" gradientUnits="userSpaceOnUse">
<stop stop-color="white"/>
<stop offset="1" stop-color="#E1D2FF"/>
</linearGradient>
<linearGradient id="paint2_linear_3009_5" x1="10.8885" y1="5.80469" x2="10.8885" y2="16.4847" gradientUnits="userSpaceOnUse">
<stop stop-color="white"/>
<stop offset="1" stop-color="#E1D2FF"/>
</linearGradient>
</defs>
</svg>
