<svg width="22" height="22" viewBox="0 0 22 22" fill="none" xmlns="http://www.w3.org/2000/svg">
<path d="M5.3101 6.85498H1.01797C0.827478 6.85498 0.673126 7.0094 0.673126 7.19982V20.9886C0.673126 21.1791 0.827478 21.3334 1.01797 21.3334H5.3101C5.50059 21.3334 5.65494 21.1791 5.65494 20.9886V7.19982C5.65494 7.0094 5.50059 6.85498 5.3101 6.85498Z" fill="white"/>
<path d="M3.16558 0C1.60385 0 0.333313 1.26916 0.333313 2.82916C0.333313 4.38986 1.60385 5.6595 3.16558 5.6595C4.72607 5.6595 5.99557 4.38979 5.99557 2.82916C5.99564 1.26916 4.72607 0 3.16558 0Z" fill="white"/>
<path d="M16.2274 6.51221C14.5036 6.51221 13.2292 7.25328 12.4563 8.09531V7.19976C12.4563 7.00933 12.302 6.85491 12.1115 6.85491H8.001C7.81051 6.85491 7.65616 7.00933 7.65616 7.19976V20.9885C7.65616 21.179 7.81051 21.3334 8.001 21.3334H12.2838C12.4742 21.3334 12.6286 21.179 12.6286 20.9885V14.1663C12.6286 11.8674 13.253 10.9717 14.8556 10.9717C16.6009 10.9717 16.7396 12.4075 16.7396 14.2846V20.9886C16.7396 21.1791 16.894 21.3334 17.0845 21.3334H21.3688C21.5593 21.3334 21.7136 21.1791 21.7136 20.9886V13.4252C21.7136 10.0068 21.0618 6.51221 16.2274 6.51221Z" fill="white"/>
</svg>
