<svg width="146" height="39" viewBox="0 0 146 39" fill="none" xmlns="http://www.w3.org/2000/svg">
<mask id="mask0_86_174" style="mask-type:alpha" maskUnits="userSpaceOnUse" x="0" y="0" width="146" height="39">
<path d="M0.442322 31.32L11.7567 0.42749H16.7998L28.1141 31.32H24.3423L21.5453 23.6923H7.01016L4.25618 31.32H0.442322ZM7.94281 20.8101H20.6136L16.7998 10.4705L14.4265 3.81758H14.215L11.7997 10.4705L7.94375 20.8101H7.94281Z" fill="white"/>
<path d="M31.4611 31.32V9.07204H34.724L34.8512 13.6913H35.1056C35.7839 12.0533 36.8287 10.8167 38.2412 9.98317C39.6537 9.15061 41.1926 8.7334 42.8605 8.7334C44.0187 8.7334 45.0851 8.90272 46.0599 9.24228C47.0345 9.58186 47.882 10.1319 48.6023 10.8952C49.3226 11.6576 49.8802 12.6399 50.2758 13.8401C50.6716 15.0411 50.8691 16.5033 50.8691 18.2265V31.321H47.4368V18.9047C47.4368 17.2377 47.2319 15.8681 46.8221 14.7942C46.4125 13.7213 45.7903 12.9233 44.9578 12.4004C44.1243 11.8784 43.0579 11.6165 41.7586 11.6165C40.374 11.6165 39.159 11.9551 38.114 12.6333C37.0681 13.3115 36.2637 14.2227 35.6988 15.3667C35.1336 16.5108 34.8512 17.8177 34.8512 19.2862V31.321H31.4611V31.32Z" fill="white"/>
<path d="M68.5405 20.9468L63.5825 33.6933C63.1588 34.8232 62.6499 35.7335 62.0568 36.4267C61.4638 37.1189 60.7575 37.6193 59.938 37.9308C59.1186 38.2415 58.1438 38.3968 57.0139 38.3968H54.2168V35.5576H56.5049C57.1831 35.5576 57.7612 35.4584 58.2421 35.2611C58.722 35.0628 59.1383 34.7662 59.4919 34.3715C59.8445 33.9758 60.1345 33.4669 60.3609 32.8457L61.8445 29.0319V30.5576L52.691 9.073H56.4628L62.0568 23.4389L63.1167 26.2358H63.2861L64.2609 23.4389L69.5573 9.073H73.4162L72.8043 9.80078C70.1711 12.9318 68.6697 16.8579 68.5405 20.9468Z" fill="white"/>
<path d="M100.662 31.1638V27.4958C100.662 27.4809 100.664 27.4659 100.668 27.4518L101.365 24.77C101.993 22.3546 101.995 19.8204 101.371 17.4041L100.671 14.6941L100.662 14.6221V9.22732C100.662 9.14126 100.732 9.07204 100.817 9.07204H103.773C103.857 9.07204 103.926 9.13939 103.928 9.22358L104.047 13.5398C104.049 13.624 104.118 13.6913 104.202 13.6913C104.265 13.6913 104.32 13.6539 104.345 13.5959C105.025 12.0047 106.055 10.8008 107.442 9.98317C108.854 9.15061 110.393 8.7334 112.061 8.7334C113.219 8.7334 114.286 8.90272 115.26 9.24228C116.235 9.58186 117.083 10.1319 117.803 10.8952C118.523 11.6576 119.081 12.6399 119.476 13.8401C119.872 15.0411 120.069 16.5033 120.069 18.2265V31.1647C120.069 31.2508 119.999 31.32 119.914 31.32H116.794C116.708 31.32 116.638 31.2498 116.638 31.1647V18.9047C116.638 17.2377 116.433 15.8681 116.024 14.7942C115.614 13.7213 114.992 12.9233 114.159 12.4004C113.326 11.8784 112.259 11.6165 110.96 11.6165C109.576 11.6165 108.36 11.9551 107.316 12.6333C106.27 13.3115 105.465 14.2227 104.9 15.3667C104.335 16.5108 104.053 17.8177 104.053 19.2862V31.1657C104.053 31.2517 103.982 31.321 103.897 31.321H100.819C100.733 31.321 100.664 31.2508 100.664 31.1657L100.662 31.1638Z" fill="white"/>
<path d="M135.325 31.7008C133.149 31.7008 131.271 31.2285 129.689 30.2808C128.106 29.3341 126.884 28.0002 126.024 26.2761C125.161 24.553 124.731 22.5474 124.731 20.2584C124.731 17.9692 125.155 15.915 126.002 14.1769C126.849 12.4398 128.057 11.0984 129.625 10.1507C131.193 9.20499 133.037 8.73071 135.156 8.73071C137.557 8.73071 139.527 9.26018 141.067 10.32C142.606 11.379 143.721 12.8205 144.415 14.6428C145.107 16.4651 145.34 18.5203 145.113 20.8083H128.121C128.177 22.5034 128.503 23.9515 129.096 25.1517C129.689 26.3529 130.516 27.2705 131.575 27.9067C132.634 28.5418 133.884 28.8599 135.325 28.8599C136.992 28.8599 138.397 28.4716 139.541 27.6943C140.685 26.9178 141.412 25.8795 141.723 24.5792H145.028C144.83 25.9917 144.287 27.235 143.397 28.3079C142.507 29.3818 141.363 30.2143 139.965 30.8084C138.566 31.4025 137.02 31.6981 135.325 31.6981V31.7008ZM128.164 18.7765L127.825 18.1414H142.148L141.766 18.8617C141.822 17.1386 141.561 15.7335 140.982 14.6456C140.403 13.5586 139.605 12.7672 138.589 12.2724C137.572 11.7784 136.413 11.5305 135.113 11.5305C133.814 11.5305 132.563 11.8205 131.532 12.3996C130.501 12.9786 129.703 13.8121 129.139 14.9C128.574 15.988 128.249 17.2808 128.164 18.7775V18.7765Z" fill="white"/>
<path d="M100.897 24.0588C100.604 25.55 100.1 26.9662 99.422 28.2758C98.7813 29.5125 97.9852 30.6529 97.0582 31.6744C94.1395 34.8848 89.93 36.9008 85.2508 36.9008C80.5716 36.9008 76.3611 34.8848 73.4435 31.6744C72.5164 30.6537 71.7194 29.5125 71.0796 28.2758C70.4566 27.0738 69.9832 25.7829 69.682 24.4264C70.7157 26.0785 72.5529 27.1776 74.6465 27.1776C74.8542 27.1776 75.0599 27.1664 75.262 27.1457C75.3733 27.3254 75.4903 27.5023 75.611 27.6763C77.7382 30.7286 81.2743 32.7257 85.2761 32.7257C89.278 32.7257 92.7878 30.7426 94.9178 27.7098C95.0432 27.5312 95.1639 27.3488 95.2807 27.1617C95.4258 27.1719 95.5727 27.1776 95.7214 27.1776C97.9665 27.1776 99.9159 25.9139 100.898 24.0597L100.897 24.0588Z" fill="white"/>
<path d="M85.2499 5.0007C76.4407 5.0007 69.3004 12.141 69.3004 20.9503C69.3004 20.9689 69.3004 20.9886 69.3004 21.0073C69.3004 21.0513 69.3003 21.0952 69.3013 21.1392C69.3415 23.2365 70.5651 25.0447 72.3322 25.9222C73.0627 26.2851 73.8849 26.489 74.7559 26.489C74.7981 26.489 74.8402 26.489 74.8822 26.4871C75.0001 26.4844 75.118 26.4779 75.2339 26.4685C76.175 26.3871 77.0478 26.0662 77.7915 25.5677C77.9038 25.4834 78.017 25.4002 78.1321 25.3197C80.1469 23.9053 82.6016 23.0747 85.2499 23.0747C87.8981 23.0747 90.3528 23.9053 92.3678 25.3197C92.4828 25.4002 92.5951 25.4825 92.7073 25.5666C93.4519 26.0662 94.3275 26.3871 95.2704 26.4685C95.4014 26.4798 95.5333 26.4863 95.6662 26.4882C95.6914 26.4882 95.7167 26.4882 95.7429 26.4882C96.6138 26.4882 97.437 26.2842 98.1667 25.9213C99.9337 25.0428 101.157 23.2355 101.198 21.1383C101.198 21.0943 101.198 21.0503 101.198 21.0063C101.198 20.9876 101.198 20.9679 101.198 20.9493C101.198 12.1401 94.0573 4.99976 85.2489 4.99976L85.2499 5.0007ZM96.7999 20.983C96.7251 21.7117 96.1087 22.2804 95.3603 22.2804C95.0581 22.2804 94.7784 22.1878 94.5464 22.0297C94.5099 22.0045 94.4744 21.9783 94.4398 21.9492C93.2284 21.0465 91.8785 20.3178 90.4285 19.8005C88.8102 19.2225 87.0675 18.9081 85.2508 18.9081C83.4341 18.9081 81.6914 19.2225 80.0731 19.8005C78.6278 20.317 77.2816 21.0428 76.0731 21.9418C76.0385 21.9708 76.0029 21.9979 75.9655 22.0232C75.7335 22.1804 75.4538 22.2729 75.1526 22.2729C74.3658 22.2729 73.725 21.6452 73.7055 20.8623C73.7055 20.8501 73.7055 20.8379 73.7055 20.8249C73.7055 20.7893 73.7055 20.7538 73.7055 20.7191C73.7055 18.8726 74.1386 17.1279 74.9084 15.5807C76.1853 13.0138 78.3893 10.9904 81.0814 9.94645C81.0852 9.94458 81.0898 9.94364 81.0936 9.94177C82.3845 9.44318 83.7878 9.17002 85.2546 9.17002C85.9646 9.17002 86.6596 9.23457 87.335 9.35711C90.9665 10.0175 94.0067 12.3768 95.6016 15.5816C96.3714 17.1289 96.8047 18.8726 96.8047 20.7182C96.8074 20.7566 96.8093 20.7958 96.8093 20.8352C96.8093 20.8857 96.8064 20.9362 96.8018 20.9849L96.7999 20.983Z" fill="white"/>
</mask>
<g mask="url(#mask0_86_174)">
<path d="M145.162 0.42749H0.407104V38.3967H145.162V0.42749Z" fill="#9F78EA"/>
</g>
</svg>
