<svg width="166" height="38" viewBox="0 0 166 38" fill="none" xmlns="http://www.w3.org/2000/svg">
<path d="M19.5116 10.5836C17.5074 10.5836 15.1698 11.0287 12.3871 11.8072L13.7226 3.79245C13.8344 3.34731 13.7226 3.01396 13.501 2.67855C13.2795 2.45494 12.9441 2.2334 12.4989 2.2334H7.15507C6.70992 2.2334 6.37657 2.3452 6.04116 2.67855C5.70781 2.90216 5.4842 3.34731 5.4842 3.68065L0.0326843 34.8493C1.14659 35.6278 2.92719 36.1848 5.26474 36.7417C7.60228 37.2987 9.93983 37.5202 12.2774 37.5202C22.1845 37.5202 27.9715 33.0687 29.6423 24.0519C30.4208 19.7101 29.8639 16.3726 27.9735 14.035C26.1929 11.6975 23.2984 10.5836 19.5136 10.5836H19.5116ZM21.404 23.9567C20.9588 26.6276 20.0685 28.6318 18.9546 29.8554C17.8407 31.079 16.0601 31.636 13.8344 31.636C11.8302 31.636 10.1614 31.4124 8.93773 31.079L11.2753 18.3892L7.15714 18.6128C10.7183 16.4989 15.3934 16.1634 16.7289 16.1634C18.9546 16.1634 20.4019 16.8322 21.0706 18.0558C21.7394 19.2795 21.8491 21.2837 21.404 23.9546V23.9567ZM46.6719 10.4883C42.3301 10.4883 38.6571 11.712 35.7647 13.9398C32.8702 16.2773 31.0896 19.617 30.3111 24.0685C29.5326 28.4102 30.1993 31.7478 32.2035 34.0853C34.2077 36.3111 37.4355 37.5368 41.887 37.5368C50.5685 37.5368 55.3554 35.3111 56.1339 30.8575C56.2457 30.4123 56.1339 30.079 55.9102 29.7436C55.6866 29.4082 55.3533 29.2984 54.9081 29.3585H51.347C50.233 29.2984 49.233 29.7436 48.3406 30.6339C47.2267 31.636 45.6698 32.1929 43.3322 32.1929C41.328 32.1929 39.9925 31.7478 39.1023 30.9693C38.3238 30.1908 37.9883 28.8554 38.1002 27.083H56.1318C56.5769 26.963 56.9103 26.8512 57.2457 26.5178C57.579 26.1845 57.8026 25.8491 57.8026 25.4039L58.0263 24.0685C58.8047 19.7267 58.1381 16.3891 56.1339 14.0516C54.3533 11.6022 51.1254 10.4904 46.6719 10.4904V10.4883ZM50.3448 21.4907H39.2141C40.1044 17.7059 42.2204 15.9253 45.7816 15.9253C49.3427 15.8135 50.79 17.7059 50.3448 21.4907ZM69.4945 18.178H76.1262C76.5879 18.178 76.9337 18.0621 77.2815 17.7163C77.6273 17.4844 77.8592 17.0227 77.8592 16.6769L78.3209 13.6748C78.4368 13.213 78.3209 12.8673 78.089 12.6354C77.8571 12.4035 77.5114 12.1737 77.0496 12.1737H68.5007L70.7099 10.7388L71.8134 3.67237C71.9232 3.23136 71.8134 2.90009 71.5919 2.67855C71.3704 2.45701 71.0391 2.23754 70.5981 2.23754H65.2522C64.8049 2.23754 64.4695 2.34934 64.1362 2.68476C63.8008 2.90837 63.5772 3.35559 63.5772 3.80074L59.5563 27.0271C58.3285 34.1744 61.1195 37.748 67.9313 37.748C70.4987 37.748 72.7327 37.6362 74.4077 37.3008C74.8549 37.189 75.1904 37.0772 75.5237 36.8535C75.857 36.6299 76.0827 36.2945 76.0827 35.9612L76.5299 33.5056C76.6418 33.0584 76.53 32.723 76.3063 32.5014C76.0827 32.2799 75.7473 32.0542 75.3022 32.0542H74.5982C74.2649 32.0542 73.71 32.0542 73.0454 32.166C72.2689 32.2778 71.7141 32.2778 71.2689 32.2778C70.0473 32.2778 69.0494 31.8348 68.4945 30.9465C67.9396 30.0583 67.7181 28.8388 68.0514 27.1742L69.4945 18.1842V18.178ZM103.392 27.7021H99.8785C98.7812 27.7021 97.7915 28.2508 96.8039 29.4599C95.5968 30.8865 93.7293 31.6567 91.3151 31.6567C88.9009 31.6567 87.3626 31.108 86.5945 29.8989C85.8263 28.6918 85.7166 26.7145 86.1555 24.0788C86.5945 21.3334 87.4723 19.3582 88.5717 18.2588C89.7788 17.0517 91.4269 16.5009 93.7313 16.5009C96.2573 16.5009 97.7936 17.2691 98.452 18.6977C99.0006 19.795 99.7688 20.4555 100.868 20.4555H104.492C104.93 20.4555 105.26 20.3458 105.589 20.0166C105.918 19.7971 106.138 19.3582 106.138 19.029C106.576 16.3933 105.808 14.3083 103.721 12.8797C101.634 11.4532 98.452 10.7927 94.2779 10.7927C89.7767 10.7927 86.1534 11.89 83.2983 14.1965C80.5528 16.2835 78.7971 19.5756 78.029 23.9691C77.2608 28.3605 77.9192 31.6546 79.8944 33.8514C81.9815 36.1579 85.2735 37.2552 89.8865 37.2552C94.0585 37.2552 97.4623 36.5968 100.098 35.1682C102.624 33.7416 104.16 31.7644 104.709 29.0189C104.819 28.58 104.709 28.2508 104.489 28.0313C104.16 27.8119 103.831 27.7021 103.392 27.7021ZM128.339 16.3829C128.67 16.1614 128.892 15.8301 128.892 15.387L129.556 11.8465C129.666 11.4035 129.556 11.0722 129.335 10.8506C129.113 10.6291 128.782 10.4076 128.339 10.4076C125.904 10.4076 123.026 10.2978 121.478 10.8506C119.929 11.4035 119.043 12.2896 117.163 13.3952L117.384 11.9563C117.494 11.5132 117.384 11.1819 117.163 10.9604C116.941 10.7388 116.61 10.5173 116.167 10.5173H110.794C110.347 10.5173 110.013 10.6291 109.678 10.9645C109.343 11.1881 109.119 11.6354 109.119 12.0805L104.877 36.191C104.765 36.6382 104.877 36.9716 105.1 37.1952C105.324 37.4188 105.659 37.6424 106.104 37.6424H111.411C111.858 37.6424 112.194 37.5306 112.531 37.1952C112.867 36.9716 113.09 36.5243 113.09 36.1889L115.887 20.2961C118.237 17.9461 120.587 16.7142 122.714 16.7142C123.161 16.7142 123.72 16.7142 124.616 16.826C125.399 16.826 126.072 16.9378 126.407 16.9378H127.122C127.565 16.7163 128.008 16.6065 128.339 16.385V16.3829ZM138.364 12.8259C138.143 12.6043 137.809 12.3828 137.366 12.3828H132.045C131.602 12.3828 131.269 12.4946 130.937 12.8259C130.604 13.0474 130.383 13.4905 130.383 13.8238L126.503 35.9943C126.391 36.4374 126.503 36.7707 126.724 36.9923C126.946 37.2138 127.279 37.4353 127.722 37.4353H133.043C133.486 37.4353 133.82 37.3235 134.151 36.9923C134.484 36.7707 134.706 36.3277 134.706 35.9943L138.586 13.8238C138.586 13.3808 138.586 13.0474 138.364 12.8259ZM153.768 10.2813C145.456 10.2813 140.737 12.8652 139.838 18.0331C139.501 19.8302 139.838 21.4038 140.849 22.6378C141.859 23.8738 143.207 24.7724 144.892 25.3335C146.578 25.8946 148.263 26.3439 150.06 26.6814C151.857 27.0189 153.205 27.4682 154.441 27.9174C155.566 28.3667 156.127 29.0417 156.015 29.7146C155.791 31.2882 153.768 32.0729 150.06 32.0729C147.702 32.0729 146.24 31.5118 145.567 30.4993C145.006 29.6007 144.219 29.1514 142.983 29.1514H139.389C138.94 29.1514 138.602 29.2632 138.265 29.6007C137.927 29.8243 137.704 30.2757 137.704 30.6111C136.917 35.2158 140.849 37.4643 149.723 37.4643C158.597 37.4643 163.427 34.8804 164.326 29.7125C164.663 27.8036 164.326 26.3418 163.315 25.1078C162.305 23.8718 160.957 22.9732 159.272 22.4121C157.586 21.851 155.901 21.4017 154.104 21.0642C152.419 20.7267 150.959 20.2775 149.723 19.8282C148.598 19.3789 148.037 18.7039 148.149 18.031C148.373 16.4575 150.172 15.6727 153.317 15.6727C155.675 15.6727 157.137 16.2338 157.81 17.3581C158.371 18.2567 159.158 18.5942 160.394 18.5942H163.988C164.438 18.5942 164.775 18.4824 165.112 18.1449C165.45 17.9213 165.674 17.4699 165.674 17.1345C166.572 12.5277 162.529 10.2813 153.766 10.2813H153.768Z" fill="#9F78EA"/>
<path d="M139.836 2.47345L139.725 2.36165C138.834 1.24774 137.387 0.581055 135.94 0.581055C133.269 0.581055 131.153 2.69499 130.931 5.25615C132.935 4.03251 137.054 2.69706 139.836 2.47345Z" fill="#9F78EA"/>
<path d="M131.043 6.25828C131.377 8.70763 133.493 10.4882 135.94 10.4882C138.723 10.4882 140.948 8.26248 140.948 5.47979C140.948 5.14644 140.948 4.92283 140.836 4.58949C138.944 4.03254 134.826 4.25615 131.041 6.25828H131.043Z" fill="#9F78EA"/>
</svg>
