<svg width="977" height="715" viewBox="0 0 977 715" fill="none" xmlns="http://www.w3.org/2000/svg">
<path d="M419.028 347.48V341.24C411.168 340.1 406.668 334.76 406.248 327.08H412.308C412.788 332.48 415.968 335.96 422.388 335.96C427.668 335.96 431.388 333.92 431.388 329.36C431.388 318.86 407.508 325.76 407.508 309.98C407.508 303.92 412.128 299.66 419.028 298.7V292.52H424.908V298.76C431.808 299.78 436.428 304.46 436.908 311.18H430.848C430.428 306.86 427.068 304.04 421.908 304.04C416.868 304.04 413.808 306.32 413.808 309.92C413.808 320.48 437.748 312.86 437.748 329.3C437.748 336.26 432.528 340.58 424.908 341.36V347.48H419.028ZM442.957 312.98C442.657 304.1 448.297 298.52 457.237 298.52C465.397 298.52 471.217 303.44 471.217 311.18C471.217 316.76 467.917 321.38 461.377 324.62L455.197 327.68C452.137 329.18 448.717 332 448.717 335.48H471.337V341H442.597V336.68C442.537 329.54 447.697 325.04 452.557 322.58L459.097 319.34C463.237 317.24 464.857 314.6 464.857 311.12C464.857 306.8 461.737 303.86 457.297 303.86C452.197 303.86 449.077 307.46 449.317 312.98H442.957ZM492.891 341.48C482.991 341.48 476.991 333.62 476.991 321.86C476.991 306.62 484.011 298.52 494.091 298.52C501.711 298.52 507.471 303.44 508.431 309.98H502.371C501.531 306.2 498.291 303.92 494.091 303.92C487.431 303.92 483.231 310.4 482.871 318.92C484.851 315.5 489.051 312.92 493.971 312.92C502.371 312.92 508.071 318.8 508.071 327.08C508.071 335.42 501.711 341.48 492.891 341.48ZM492.891 335.96C498.051 335.96 501.711 332.24 501.711 327.08C501.711 322.04 498.291 318.44 493.191 318.44C488.031 318.44 484.071 322.04 484.071 327.14C484.071 332.3 487.731 335.96 492.891 335.96ZM515.943 341V299H523.623L537.003 332.48L550.383 299H558.063V341H552.063V309.74L539.523 341H534.483L521.883 309.74V341H515.943ZM579.261 334.04V322.22H567.441V317.18H579.261V305.36H584.301V317.18H596.121V322.22H584.301V334.04H579.261Z" fill="url(#paint0_linear_3010_364)"/>
<path d="M312.058 379.4H313.633V392H312.058V379.4ZM313.783 374.3V376.85H311.883V374.3H313.783ZM317.722 379.4H319.297V382.025C319.614 381.092 320.139 380.392 320.872 379.925C321.622 379.442 322.514 379.2 323.547 379.2C324.48 379.2 325.305 379.417 326.022 379.85C326.739 380.267 327.289 380.867 327.672 381.65C328.055 382.417 328.247 383.317 328.247 384.35V392H326.672V384.55C326.672 383.367 326.364 382.425 325.747 381.725C325.147 381.008 324.339 380.65 323.322 380.65C322.555 380.65 321.864 380.85 321.247 381.25C320.63 381.633 320.147 382.175 319.797 382.875C319.464 383.558 319.297 384.342 319.297 385.225V392H317.722V379.4ZM343.026 392C342.276 392 341.618 391.85 341.051 391.55C340.501 391.233 340.076 390.792 339.776 390.225C339.476 389.658 339.326 388.992 339.326 388.225V380.85H336.626V379.4H339.326V375.275H340.901V379.4H344.901V380.85H340.901V388.225C340.901 388.942 341.085 389.508 341.451 389.925C341.835 390.342 342.351 390.55 343.001 390.55H344.901V392H343.026ZM347.58 379.4H349.155V382.075C349.405 381.175 349.814 380.508 350.38 380.075C350.947 379.625 351.705 379.4 352.655 379.4H354.305V380.85H352.655C351.355 380.85 350.447 381.367 349.93 382.4C349.414 383.417 349.155 384.825 349.155 386.625V392H347.58V379.4ZM359.925 392.2C359.025 392.2 358.242 392.05 357.575 391.75C356.909 391.433 356.392 390.992 356.025 390.425C355.675 389.842 355.5 389.167 355.5 388.4C355.5 387.583 355.709 386.883 356.125 386.3C356.542 385.7 357.134 385.242 357.9 384.925C358.667 384.592 359.575 384.425 360.625 384.425H363.8C364.05 384.425 364.217 384.383 364.3 384.3C364.4 384.217 364.45 384.075 364.45 383.875C364.45 382.908 364.117 382.133 363.45 381.55C362.8 380.95 361.9 380.65 360.75 380.65C360.117 380.65 359.517 380.775 358.95 381.025C358.4 381.258 357.95 381.583 357.6 382C357.267 382.417 357.084 382.867 357.05 383.35H355.475C355.559 382.567 355.85 381.858 356.35 381.225C356.85 380.592 357.492 380.1 358.275 379.75C359.059 379.383 359.884 379.2 360.75 379.2C361.834 379.2 362.767 379.4 363.55 379.8C364.35 380.183 364.959 380.725 365.375 381.425C365.809 382.125 366.025 382.942 366.025 383.875V392H364.45V389.7L364.3 389.975C364.034 390.425 363.675 390.817 363.225 391.15C362.775 391.483 362.267 391.742 361.7 391.925C361.15 392.108 360.559 392.2 359.925 392.2ZM360.05 390.75C361.434 390.75 362.509 390.35 363.275 389.55C364.059 388.75 364.45 387.625 364.45 386.175V385.825H360.625C359.575 385.825 358.734 386.058 358.1 386.525C357.484 386.975 357.175 387.6 357.175 388.4C357.175 389.117 357.434 389.692 357.95 390.125C358.484 390.542 359.184 390.75 360.05 390.75ZM369.944 379.4H371.519V382.025C371.835 381.092 372.36 380.392 373.094 379.925C373.844 379.442 374.735 379.2 375.769 379.2C376.702 379.2 377.527 379.417 378.244 379.85C378.96 380.267 379.51 380.867 379.894 381.65C380.277 382.417 380.469 383.317 380.469 384.35V392H378.894V384.55C378.894 383.367 378.585 382.425 377.969 381.725C377.369 381.008 376.56 380.65 375.544 380.65C374.777 380.65 374.085 380.85 373.469 381.25C372.852 381.633 372.369 382.175 372.019 382.875C371.685 383.558 371.519 384.342 371.519 385.225V392H369.944V379.4ZM388.247 392.2C387.28 392.2 386.447 392.042 385.747 391.725C385.047 391.392 384.488 390.917 384.072 390.3C383.672 389.667 383.438 388.908 383.372 388.025H384.947C385.03 388.892 385.355 389.567 385.922 390.05C386.488 390.517 387.255 390.75 388.222 390.75C389.122 390.75 389.838 390.542 390.372 390.125C390.922 389.708 391.197 389.142 391.197 388.425C391.197 387.908 391.047 387.508 390.747 387.225C390.463 386.942 390.105 386.742 389.672 386.625C389.255 386.492 388.663 386.358 387.897 386.225C386.997 386.075 386.263 385.908 385.697 385.725C385.13 385.542 384.647 385.225 384.247 384.775C383.863 384.325 383.672 383.692 383.672 382.875C383.672 382.158 383.855 381.525 384.222 380.975C384.605 380.408 385.13 379.975 385.797 379.675C386.463 379.358 387.23 379.2 388.097 379.2C389.013 379.2 389.805 379.35 390.472 379.65C391.155 379.933 391.688 380.358 392.072 380.925C392.472 381.492 392.705 382.175 392.772 382.975H391.197C391.13 382.258 390.813 381.692 390.247 381.275C389.697 380.858 388.98 380.65 388.097 380.65C387.33 380.65 386.672 380.842 386.122 381.225C385.588 381.608 385.322 382.125 385.322 382.775C385.322 383.242 385.455 383.608 385.722 383.875C386.005 384.142 386.355 384.333 386.772 384.45C387.188 384.567 387.755 384.675 388.472 384.775C389.405 384.942 390.163 385.125 390.747 385.325C391.33 385.508 391.822 385.85 392.222 386.35C392.638 386.833 392.847 387.525 392.847 388.425C392.847 389.175 392.663 389.833 392.297 390.4C391.93 390.967 391.397 391.408 390.697 391.725C390.013 392.042 389.197 392.2 388.247 392.2ZM399.842 392.2C398.942 392.2 398.159 392.05 397.492 391.75C396.826 391.433 396.309 390.992 395.942 390.425C395.592 389.842 395.417 389.167 395.417 388.4C395.417 387.583 395.626 386.883 396.042 386.3C396.459 385.7 397.051 385.242 397.817 384.925C398.584 384.592 399.492 384.425 400.542 384.425H403.717C403.967 384.425 404.134 384.383 404.217 384.3C404.317 384.217 404.367 384.075 404.367 383.875C404.367 382.908 404.034 382.133 403.367 381.55C402.717 380.95 401.817 380.65 400.667 380.65C400.034 380.65 399.434 380.775 398.867 381.025C398.317 381.258 397.867 381.583 397.517 382C397.184 382.417 397.001 382.867 396.967 383.35H395.392C395.476 382.567 395.767 381.858 396.267 381.225C396.767 380.592 397.409 380.1 398.192 379.75C398.976 379.383 399.801 379.2 400.667 379.2C401.751 379.2 402.684 379.4 403.467 379.8C404.267 380.183 404.876 380.725 405.292 381.425C405.726 382.125 405.942 382.942 405.942 383.875V392H404.367V389.7L404.217 389.975C403.951 390.425 403.592 390.817 403.142 391.15C402.692 391.483 402.184 391.742 401.617 391.925C401.067 392.108 400.476 392.2 399.842 392.2ZM399.967 390.75C401.351 390.75 402.426 390.35 403.192 389.55C403.976 388.75 404.367 387.625 404.367 386.175V385.825H400.542C399.492 385.825 398.651 386.058 398.017 386.525C397.401 386.975 397.092 387.6 397.092 388.4C397.092 389.117 397.351 389.692 397.867 390.125C398.401 390.542 399.101 390.75 399.967 390.75ZM414.936 392.2C413.652 392.2 412.552 391.9 411.636 391.3C410.736 390.683 410.052 389.883 409.586 388.9C409.136 387.9 408.911 386.833 408.911 385.7C408.911 384.567 409.136 383.508 409.586 382.525C410.052 381.525 410.736 380.725 411.636 380.125C412.552 379.508 413.652 379.2 414.936 379.2C415.836 379.2 416.686 379.375 417.486 379.725C418.302 380.058 418.977 380.55 419.511 381.2C420.061 381.85 420.402 382.625 420.536 383.525H418.986C418.852 382.692 418.402 382.008 417.636 381.475C416.869 380.925 415.969 380.65 414.936 380.65C413.969 380.65 413.161 380.875 412.511 381.325C411.861 381.775 411.369 382.383 411.036 383.15C410.719 383.917 410.561 384.767 410.561 385.7C410.561 387.15 410.936 388.358 411.686 389.325C412.436 390.275 413.519 390.75 414.936 390.75C415.969 390.75 416.836 390.517 417.536 390.05C418.252 389.583 418.736 388.933 418.986 388.1H420.486C420.336 388.95 420.019 389.683 419.536 390.3C419.069 390.9 418.444 391.367 417.661 391.7C416.894 392.033 415.986 392.2 414.936 392.2ZM428.158 392C427.408 392 426.75 391.85 426.183 391.55C425.633 391.233 425.208 390.792 424.908 390.225C424.608 389.658 424.458 388.992 424.458 388.225V380.85H421.758V379.4H424.458V375.275H426.033V379.4H430.033V380.85H426.033V388.225C426.033 388.942 426.216 389.508 426.583 389.925C426.966 390.342 427.483 390.55 428.133 390.55H430.033V392H428.158ZM432.712 379.4H434.287V392H432.712V379.4ZM434.437 374.3V376.85H432.537V374.3H434.437ZM443.776 392.2C442.56 392.2 441.468 391.925 440.501 391.375C439.535 390.808 438.776 390.033 438.226 389.05C437.693 388.067 437.426 386.95 437.426 385.7C437.426 384.45 437.693 383.333 438.226 382.35C438.776 381.367 439.535 380.6 440.501 380.05C441.468 379.483 442.56 379.2 443.776 379.2C444.993 379.2 446.085 379.483 447.051 380.05C448.018 380.6 448.768 381.367 449.301 382.35C449.851 383.333 450.126 384.45 450.126 385.7C450.126 386.95 449.851 388.067 449.301 389.05C448.768 390.033 448.018 390.808 447.051 391.375C446.085 391.925 444.993 392.2 443.776 392.2ZM443.776 390.75C444.693 390.75 445.51 390.533 446.226 390.1C446.943 389.667 447.493 389.067 447.876 388.3C448.276 387.533 448.476 386.667 448.476 385.7C448.476 384.733 448.276 383.867 447.876 383.1C447.493 382.333 446.943 381.733 446.226 381.3C445.51 380.867 444.693 380.65 443.776 380.65C442.86 380.65 442.043 380.867 441.326 381.3C440.61 381.733 440.051 382.333 439.651 383.1C439.268 383.867 439.076 384.733 439.076 385.7C439.076 386.667 439.268 387.533 439.651 388.3C440.051 389.067 440.61 389.667 441.326 390.1C442.043 390.533 442.86 390.75 443.776 390.75ZM453.269 379.4H454.844V382.025C455.16 381.092 455.685 380.392 456.419 379.925C457.169 379.442 458.06 379.2 459.094 379.2C460.027 379.2 460.852 379.417 461.569 379.85C462.285 380.267 462.835 380.867 463.219 381.65C463.602 382.417 463.794 383.317 463.794 384.35V392H462.219V384.55C462.219 383.367 461.91 382.425 461.294 381.725C460.694 381.008 459.885 380.65 458.869 380.65C458.102 380.65 457.41 380.85 456.794 381.25C456.177 381.633 455.694 382.175 455.344 382.875C455.01 383.558 454.844 384.342 454.844 385.225V392H453.269V379.4ZM471.572 392.2C470.605 392.2 469.772 392.042 469.072 391.725C468.372 391.392 467.814 390.917 467.397 390.3C466.997 389.667 466.764 388.908 466.697 388.025H468.272C468.355 388.892 468.68 389.567 469.247 390.05C469.814 390.517 470.58 390.75 471.547 390.75C472.447 390.75 473.164 390.542 473.697 390.125C474.247 389.708 474.522 389.142 474.522 388.425C474.522 387.908 474.372 387.508 474.072 387.225C473.789 386.942 473.43 386.742 472.997 386.625C472.58 386.492 471.989 386.358 471.222 386.225C470.322 386.075 469.589 385.908 469.022 385.725C468.455 385.542 467.972 385.225 467.572 384.775C467.189 384.325 466.997 383.692 466.997 382.875C466.997 382.158 467.18 381.525 467.547 380.975C467.93 380.408 468.455 379.975 469.122 379.675C469.789 379.358 470.555 379.2 471.422 379.2C472.339 379.2 473.13 379.35 473.797 379.65C474.48 379.933 475.014 380.358 475.397 380.925C475.797 381.492 476.03 382.175 476.097 382.975H474.522C474.455 382.258 474.139 381.692 473.572 381.275C473.022 380.858 472.305 380.65 471.422 380.65C470.655 380.65 469.997 380.842 469.447 381.225C468.914 381.608 468.647 382.125 468.647 382.775C468.647 383.242 468.78 383.608 469.047 383.875C469.33 384.142 469.68 384.333 470.097 384.45C470.514 384.567 471.08 384.675 471.797 384.775C472.73 384.942 473.489 385.125 474.072 385.325C474.655 385.508 475.147 385.85 475.547 386.35C475.964 386.833 476.172 387.525 476.172 388.425C476.172 389.175 475.989 389.833 475.622 390.4C475.255 390.967 474.722 391.408 474.022 391.725C473.339 392.042 472.522 392.2 471.572 392.2ZM485.569 379.4H487.144V381.675C487.527 380.942 488.119 380.35 488.919 379.9C489.735 379.433 490.602 379.2 491.519 379.2C492.819 379.2 493.927 379.492 494.844 380.075C495.76 380.642 496.452 381.417 496.919 382.4C497.402 383.383 497.644 384.483 497.644 385.7C497.644 386.917 497.402 388.017 496.919 389C496.452 389.983 495.76 390.767 494.844 391.35C493.927 391.917 492.819 392.2 491.519 392.2C490.602 392.2 489.735 391.975 488.919 391.525C488.119 391.058 487.527 390.458 487.144 389.725V397.1H485.569V379.4ZM491.469 390.75C492.369 390.75 493.152 390.542 493.819 390.125C494.502 389.708 495.027 389.117 495.394 388.35C495.777 387.583 495.969 386.7 495.969 385.7C495.969 384.167 495.56 382.942 494.744 382.025C493.927 381.108 492.835 380.65 491.469 380.65C490.569 380.65 489.777 380.858 489.094 381.275C488.427 381.692 487.902 382.283 487.519 383.05C487.152 383.817 486.969 384.7 486.969 385.7C486.969 387.233 487.377 388.458 488.194 389.375C489.01 390.292 490.102 390.75 491.469 390.75ZM500.827 379.4H502.402V382.075C502.652 381.175 503.061 380.508 503.627 380.075C504.194 379.625 504.952 379.4 505.902 379.4H507.552V380.85H505.902C504.602 380.85 503.694 381.367 503.177 382.4C502.661 383.417 502.402 384.825 502.402 386.625V392H500.827V379.4ZM514.894 392.2C513.678 392.2 512.586 391.925 511.619 391.375C510.653 390.808 509.894 390.033 509.344 389.05C508.811 388.067 508.544 386.95 508.544 385.7C508.544 384.45 508.811 383.333 509.344 382.35C509.894 381.367 510.653 380.6 511.619 380.05C512.586 379.483 513.678 379.2 514.894 379.2C516.111 379.2 517.203 379.483 518.169 380.05C519.136 380.6 519.886 381.367 520.419 382.35C520.969 383.333 521.244 384.45 521.244 385.7C521.244 386.95 520.969 388.067 520.419 389.05C519.886 390.033 519.136 390.808 518.169 391.375C517.203 391.925 516.111 392.2 514.894 392.2ZM514.894 390.75C515.811 390.75 516.628 390.533 517.344 390.1C518.061 389.667 518.611 389.067 518.994 388.3C519.394 387.533 519.594 386.667 519.594 385.7C519.594 384.733 519.394 383.867 518.994 383.1C518.611 382.333 518.061 381.733 517.344 381.3C516.628 380.867 515.811 380.65 514.894 380.65C513.978 380.65 513.161 380.867 512.444 381.3C511.728 381.733 511.169 382.333 510.769 383.1C510.386 383.867 510.194 384.733 510.194 385.7C510.194 386.667 510.386 387.533 510.769 388.3C511.169 389.067 511.728 389.667 512.444 390.1C513.161 390.533 513.978 390.75 514.894 390.75ZM529.462 392.2C528.179 392.2 527.079 391.9 526.162 391.3C525.262 390.683 524.579 389.883 524.112 388.9C523.662 387.9 523.437 386.833 523.437 385.7C523.437 384.567 523.662 383.508 524.112 382.525C524.579 381.525 525.262 380.725 526.162 380.125C527.079 379.508 528.179 379.2 529.462 379.2C530.362 379.2 531.212 379.375 532.012 379.725C532.829 380.058 533.504 380.55 534.037 381.2C534.587 381.85 534.929 382.625 535.062 383.525H533.512C533.379 382.692 532.929 382.008 532.162 381.475C531.395 380.925 530.495 380.65 529.462 380.65C528.495 380.65 527.687 380.875 527.037 381.325C526.387 381.775 525.895 382.383 525.562 383.15C525.245 383.917 525.087 384.767 525.087 385.7C525.087 387.15 525.462 388.358 526.212 389.325C526.962 390.275 528.045 390.75 529.462 390.75C530.495 390.75 531.362 390.517 532.062 390.05C532.779 389.583 533.262 388.933 533.512 388.1H535.012C534.862 388.95 534.545 389.683 534.062 390.3C533.595 390.9 532.97 391.367 532.187 391.7C531.42 392.033 530.512 392.2 529.462 392.2ZM543.357 392.2C542.19 392.2 541.132 391.917 540.182 391.35C539.249 390.767 538.515 389.975 537.982 388.975C537.449 387.958 537.182 386.833 537.182 385.6C537.182 384.333 537.432 383.217 537.932 382.25C538.432 381.283 539.132 380.533 540.032 380C540.932 379.467 541.965 379.2 543.132 379.2C544.265 379.2 545.265 379.442 546.132 379.925C547.015 380.408 547.699 381.092 548.182 381.975C548.665 382.858 548.907 383.875 548.907 385.025C548.907 385.292 548.899 385.558 548.882 385.825H538.082V384.425H547.257C547.174 383.258 546.765 382.342 546.032 381.675C545.299 380.992 544.332 380.65 543.132 380.65C542.249 380.65 541.474 380.85 540.807 381.25C540.157 381.65 539.657 382.225 539.307 382.975C538.957 383.708 538.782 384.583 538.782 385.6C538.782 386.567 538.982 387.442 539.382 388.225C539.782 389.008 540.332 389.625 541.032 390.075C541.732 390.525 542.507 390.75 543.357 390.75C544.457 390.75 545.349 390.517 546.032 390.05C546.732 389.567 547.19 388.892 547.407 388.025H549.057C548.857 389.292 548.24 390.308 547.207 391.075C546.19 391.825 544.907 392.2 543.357 392.2ZM556.02 392.2C555.053 392.2 554.22 392.042 553.52 391.725C552.82 391.392 552.262 390.917 551.845 390.3C551.445 389.667 551.212 388.908 551.145 388.025H552.72C552.803 388.892 553.128 389.567 553.695 390.05C554.262 390.517 555.028 390.75 555.995 390.75C556.895 390.75 557.612 390.542 558.145 390.125C558.695 389.708 558.97 389.142 558.97 388.425C558.97 387.908 558.82 387.508 558.52 387.225C558.237 386.942 557.878 386.742 557.445 386.625C557.028 386.492 556.437 386.358 555.67 386.225C554.77 386.075 554.037 385.908 553.47 385.725C552.903 385.542 552.42 385.225 552.02 384.775C551.637 384.325 551.445 383.692 551.445 382.875C551.445 382.158 551.628 381.525 551.995 380.975C552.378 380.408 552.903 379.975 553.57 379.675C554.237 379.358 555.003 379.2 555.87 379.2C556.787 379.2 557.578 379.35 558.245 379.65C558.928 379.933 559.462 380.358 559.845 380.925C560.245 381.492 560.478 382.175 560.545 382.975H558.97C558.903 382.258 558.587 381.692 558.02 381.275C557.47 380.858 556.753 380.65 555.87 380.65C555.103 380.65 554.445 380.842 553.895 381.225C553.362 381.608 553.095 382.125 553.095 382.775C553.095 383.242 553.228 383.608 553.495 383.875C553.778 384.142 554.128 384.333 554.545 384.45C554.962 384.567 555.528 384.675 556.245 384.775C557.178 384.942 557.937 385.125 558.52 385.325C559.103 385.508 559.595 385.85 559.995 386.35C560.412 386.833 560.62 387.525 560.62 388.425C560.62 389.175 560.437 389.833 560.07 390.4C559.703 390.967 559.17 391.408 558.47 391.725C557.787 392.042 556.97 392.2 556.02 392.2ZM567.666 392.2C566.699 392.2 565.866 392.042 565.166 391.725C564.466 391.392 563.907 390.917 563.491 390.3C563.091 389.667 562.857 388.908 562.791 388.025H564.366C564.449 388.892 564.774 389.567 565.341 390.05C565.907 390.517 566.674 390.75 567.641 390.75C568.541 390.75 569.257 390.542 569.791 390.125C570.341 389.708 570.616 389.142 570.616 388.425C570.616 387.908 570.466 387.508 570.166 387.225C569.882 386.942 569.524 386.742 569.091 386.625C568.674 386.492 568.082 386.358 567.316 386.225C566.416 386.075 565.682 385.908 565.116 385.725C564.549 385.542 564.066 385.225 563.666 384.775C563.282 384.325 563.091 383.692 563.091 382.875C563.091 382.158 563.274 381.525 563.641 380.975C564.024 380.408 564.549 379.975 565.216 379.675C565.882 379.358 566.649 379.2 567.516 379.2C568.432 379.2 569.224 379.35 569.891 379.65C570.574 379.933 571.107 380.358 571.491 380.925C571.891 381.492 572.124 382.175 572.191 382.975H570.616C570.549 382.258 570.232 381.692 569.666 381.275C569.116 380.858 568.399 380.65 567.516 380.65C566.749 380.65 566.091 380.842 565.541 381.225C565.007 381.608 564.741 382.125 564.741 382.775C564.741 383.242 564.874 383.608 565.141 383.875C565.424 384.142 565.774 384.333 566.191 384.45C566.607 384.567 567.174 384.675 567.891 384.775C568.824 384.942 569.582 385.125 570.166 385.325C570.749 385.508 571.241 385.85 571.641 386.35C572.057 386.833 572.266 387.525 572.266 388.425C572.266 389.175 572.082 389.833 571.716 390.4C571.349 390.967 570.816 391.408 570.116 391.725C569.432 392.042 568.616 392.2 567.666 392.2ZM580.686 392.2C579.519 392.2 578.461 391.917 577.511 391.35C576.578 390.767 575.844 389.975 575.311 388.975C574.778 387.958 574.511 386.833 574.511 385.6C574.511 384.333 574.761 383.217 575.261 382.25C575.761 381.283 576.461 380.533 577.361 380C578.261 379.467 579.294 379.2 580.461 379.2C581.594 379.2 582.594 379.442 583.461 379.925C584.344 380.408 585.028 381.092 585.511 381.975C585.994 382.858 586.236 383.875 586.236 385.025C586.236 385.292 586.228 385.558 586.211 385.825H575.411V384.425H584.586C584.503 383.258 584.094 382.342 583.361 381.675C582.628 380.992 581.661 380.65 580.461 380.65C579.578 380.65 578.803 380.85 578.136 381.25C577.486 381.65 576.986 382.225 576.636 382.975C576.286 383.708 576.111 384.583 576.111 385.6C576.111 386.567 576.311 387.442 576.711 388.225C577.111 389.008 577.661 389.625 578.361 390.075C579.061 390.525 579.836 390.75 580.686 390.75C581.786 390.75 582.678 390.517 583.361 390.05C584.061 389.567 584.519 388.892 584.736 388.025H586.386C586.186 389.292 585.569 390.308 584.536 391.075C583.519 391.825 582.236 392.2 580.686 392.2ZM594.699 392.2C593.399 392.2 592.291 391.917 591.374 391.35C590.458 390.767 589.758 389.983 589.274 389C588.808 388.017 588.574 386.917 588.574 385.7C588.574 384.483 588.808 383.383 589.274 382.4C589.758 381.417 590.458 380.642 591.374 380.075C592.291 379.492 593.399 379.2 594.699 379.2C595.616 379.2 596.474 379.433 597.274 379.9C598.091 380.35 598.691 380.942 599.074 381.675V374.3H600.649V392H599.074V389.725C598.691 390.458 598.091 391.058 597.274 391.525C596.474 391.975 595.616 392.2 594.699 392.2ZM594.749 390.75C595.649 390.75 596.433 390.542 597.099 390.125C597.783 389.708 598.308 389.117 598.674 388.35C599.058 387.583 599.249 386.7 599.249 385.7C599.249 384.167 598.841 382.942 598.024 382.025C597.208 381.108 596.116 380.65 594.749 380.65C593.849 380.65 593.058 380.858 592.374 381.275C591.708 381.692 591.183 382.283 590.799 383.05C590.433 383.817 590.249 384.7 590.249 385.7C590.249 387.233 590.658 388.458 591.474 389.375C592.291 390.292 593.383 390.75 594.749 390.75ZM610.959 379.4H612.534V392H610.959V379.4ZM612.684 374.3V376.85H610.784V374.3H612.684ZM616.623 379.4H618.198V382.025C618.515 381.092 619.04 380.392 619.773 379.925C620.523 379.442 621.415 379.2 622.448 379.2C623.382 379.2 624.207 379.417 624.923 379.85C625.64 380.267 626.19 380.867 626.573 381.65C626.957 382.417 627.148 383.317 627.148 384.35V392H625.573V384.55C625.573 383.367 625.265 382.425 624.648 381.725C624.048 381.008 623.24 380.65 622.223 380.65C621.457 380.65 620.765 380.85 620.148 381.25C619.532 381.633 619.048 382.175 618.698 382.875C618.365 383.558 618.198 384.342 618.198 385.225V392H616.623V379.4ZM636.803 380.025C636.753 378.875 636.944 377.875 637.378 377.025C637.828 376.158 638.486 375.492 639.353 375.025C640.219 374.542 641.236 374.3 642.403 374.3C643.453 374.3 644.394 374.517 645.228 374.95C646.061 375.367 646.711 375.967 647.178 376.75C647.661 377.533 647.903 378.433 647.903 379.45C647.903 380.583 647.553 381.617 646.853 382.55C646.169 383.483 645.169 384.283 643.853 384.95L641.428 386.175C640.511 386.642 639.719 387.25 639.053 388C638.403 388.733 638.078 389.55 638.078 390.45H648.028V392H636.478V390.85C636.478 389.383 636.903 388.142 637.753 387.125C638.619 386.108 639.636 385.3 640.803 384.7L643.428 383.35C644.411 382.85 645.111 382.283 645.528 381.65C645.944 381 646.153 380.25 646.153 379.4C646.153 378.333 645.794 377.475 645.078 376.825C644.378 376.175 643.486 375.85 642.403 375.85C641.203 375.85 640.244 376.233 639.528 377C638.811 377.767 638.486 378.775 638.553 380.025H636.803ZM656.691 392.2C655.307 392.2 654.191 391.892 653.341 391.275C652.491 390.658 651.866 389.75 651.466 388.55C651.082 387.35 650.891 385.833 650.891 384V382.5C650.891 379.75 651.341 377.7 652.241 376.35C653.157 374.983 654.641 374.3 656.691 374.3H657.516C658.899 374.3 660.016 374.608 660.866 375.225C661.732 375.842 662.357 376.75 662.741 377.95C663.124 379.15 663.316 380.667 663.316 382.5V384C663.316 386.75 662.857 388.808 661.941 390.175C661.041 391.525 659.566 392.2 657.516 392.2H656.691ZM657.516 390.65C658.516 390.65 659.316 390.408 659.916 389.925C660.532 389.425 660.974 388.692 661.241 387.725C661.524 386.758 661.666 385.517 661.666 384V382.5C661.666 380.983 661.524 379.742 661.241 378.775C660.974 377.808 660.532 377.083 659.916 376.6C659.316 376.1 658.516 375.85 657.516 375.85H656.716C655.716 375.85 654.907 376.1 654.291 376.6C653.691 377.083 653.249 377.808 652.966 378.775C652.699 379.742 652.566 380.983 652.566 382.5V384C652.566 385.517 652.699 386.758 652.966 387.725C653.249 388.692 653.691 389.425 654.291 389.925C654.907 390.408 655.716 390.65 656.716 390.65H657.516ZM666.514 380.025C666.464 378.875 666.656 377.875 667.089 377.025C667.539 376.158 668.198 375.492 669.064 375.025C669.931 374.542 670.948 374.3 672.114 374.3C673.164 374.3 674.106 374.517 674.939 374.95C675.773 375.367 676.423 375.967 676.889 376.75C677.373 377.533 677.614 378.433 677.614 379.45C677.614 380.583 677.264 381.617 676.564 382.55C675.881 383.483 674.881 384.283 673.564 384.95L671.139 386.175C670.223 386.642 669.431 387.25 668.764 388C668.114 388.733 667.789 389.55 667.789 390.45H677.739V392H666.189V390.85C666.189 389.383 666.614 388.142 667.464 387.125C668.331 386.108 669.348 385.3 670.514 384.7L673.139 383.35C674.123 382.85 674.823 382.283 675.239 381.65C675.656 381 675.864 380.25 675.864 379.4C675.864 378.333 675.506 377.475 674.789 376.825C674.089 376.175 673.198 375.85 672.114 375.85C670.914 375.85 669.956 376.233 669.239 377C668.523 377.767 668.198 378.775 668.264 380.025H666.514ZM688.744 387.375H679.194V385.825L688.344 374.5H690.419V385.825H693.344V387.375H690.419V392H688.744V387.375ZM688.744 385.825V376.2L681.044 385.825H688.744Z" fill="url(#paint1_linear_3010_364)"/>
<path fill-rule="evenodd" clip-rule="evenodd" d="M112.634 358.116H129.937C130.358 358.116 130.729 358.339 130.927 358.686L135.977 367.449C136.25 367.895 136.151 368.489 135.779 368.835L121.917 382.549C121.471 382.995 120.753 382.995 120.308 382.549L106.47 368.835C106.098 368.464 106.024 367.87 106.296 367.399L111.693 358.612C111.866 358.314 112.238 358.116 112.634 358.116ZM127.583 361.83V364.305H122.632V366.006C126.17 366.179 128.821 366.942 128.821 367.83V369.704C128.796 370.59 126.142 371.331 122.632 371.529V375.695H119.662V371.529C116.124 371.355 113.473 370.593 113.473 369.704V367.83C113.498 366.944 116.151 366.204 119.662 366.006V364.305H114.463V361.83H127.583ZM121.023 370.306C124.655 370.306 127.702 369.672 128.435 368.843C127.801 368.135 125.533 367.575 122.632 367.429V369.184C122.12 369.209 121.585 369.234 121.023 369.234C120.461 369.234 119.926 369.209 119.414 369.184V367.429C116.513 367.575 114.245 368.137 113.611 368.843C114.366 369.672 117.392 370.306 121.023 370.306Z" fill="url(#paint2_linear_3010_364)"/>
<path d="M142.659 362.82L146.644 362.399V366.038H150.11V369.504H146.644V374.727C146.644 375.965 147.162 376.584 148.194 376.584C148.857 376.584 149.399 376.46 149.843 376.237L150.754 379.604C149.843 379.95 148.885 380.173 147.875 380.222C146.275 380.297 144.996 379.901 144.062 379.059C143.151 378.193 142.683 376.732 142.683 374.702V369.504H140.208V366.038H142.683V362.82H142.659Z" fill="url(#paint3_linear_3010_364)"/>
<path d="M165.138 374.455H155.063C155.162 375.172 155.558 375.767 156.202 376.237C156.846 376.683 157.712 376.905 158.776 376.905C160.311 376.905 161.499 376.534 162.341 375.816L164.594 378.341C163.232 379.703 161.252 380.396 158.702 380.396C156.152 380.396 154.37 379.727 153.009 378.391C151.672 377.054 151.003 375.247 151.003 372.994C151.003 370.865 151.672 369.132 152.984 367.82C154.296 366.484 156.053 365.815 158.281 365.815C160.707 365.815 162.564 366.558 163.826 368.068C165.138 369.553 165.584 371.682 165.138 374.455ZM155.063 371.484H161.574C161.549 370.766 161.202 370.222 160.584 369.85C159.965 369.454 159.197 369.256 158.306 369.256C157.514 369.256 156.821 369.454 156.251 369.85C155.657 370.246 155.261 370.791 155.063 371.484Z" fill="url(#paint4_linear_3010_364)"/>
<path d="M168.429 362.622L172.389 362.176V366.038H175.855V369.504H172.389V374.727C172.389 375.965 172.907 376.583 173.939 376.583C174.602 376.583 175.145 376.46 175.588 376.237L176.499 379.604C175.588 379.95 174.654 380.173 173.62 380.222C172.021 380.297 170.741 379.901 169.807 379.059C168.896 378.192 168.429 376.732 168.429 374.702V369.504H165.953V366.038H168.429V362.622Z" fill="url(#paint5_linear_3010_364)"/>
<path d="M178.058 360.344H182.044V367.892C183.036 366.598 184.425 365.949 186.212 365.949C189.861 365.949 191.698 368.192 191.698 372.65V380.148H187.737V372.722C187.737 371.756 187.49 371.014 187.017 370.494C186.544 369.974 185.923 369.702 185.128 369.702C184.257 369.702 183.512 369.999 182.915 370.593C182.343 371.187 182.044 372.029 182.044 373.093V379.901H178.083V360.344H178.058Z" fill="url(#paint6_linear_3010_364)"/>
<path d="M207.42 374.455H197.344C197.443 375.173 197.84 375.767 198.483 376.237C199.127 376.683 199.993 376.905 201.058 376.905C202.592 376.905 203.781 376.534 204.622 375.816L206.875 378.316C205.514 379.678 203.533 380.371 200.983 380.371C198.434 380.371 196.651 379.703 195.29 378.366C193.953 377.029 193.285 375.222 193.285 372.969C193.285 370.841 193.953 369.108 195.265 367.796C196.577 366.459 198.335 365.791 200.563 365.791C202.989 365.791 204.845 366.533 206.108 368.043C207.42 369.553 207.84 371.682 207.42 374.455ZM197.344 371.484H203.83C203.805 370.766 203.459 370.222 202.84 369.85C202.221 369.454 201.454 369.256 200.563 369.256C199.77 369.256 199.077 369.454 198.508 369.85C197.939 370.246 197.542 370.791 197.344 371.484Z" fill="url(#paint7_linear_3010_364)"/>
<path d="M209.026 366.038H212.717L213.012 367.548C213.873 366.31 215.079 365.692 216.653 365.692C217.933 365.692 219.064 366.112 220 366.954L218.352 370.172C217.713 369.702 216.973 369.479 216.163 369.479C215.252 369.479 214.515 369.776 213.901 370.345C213.287 370.915 212.99 371.682 212.99 372.672V379.901H209.029V366.038H209.026Z" fill="url(#paint8_linear_3010_364)"/>
<mask id="mask0_3010_364" style="mask-type:luminance" maskUnits="userSpaceOnUse" x="318" y="515" width="103" height="27">
<path d="M420.696 515H318V542H420.696V515Z" fill="white"/>
</mask>
<g mask="url(#mask0_3010_364)">
<path fill-rule="evenodd" clip-rule="evenodd" d="M341.384 523.85C341.384 538.179 330.174 542.14 330.174 542.14C330.174 542.14 318.964 538.179 318.964 523.85V518.737C318.964 518.185 319.372 517.608 319.924 517.608C323.525 517.488 326.982 516.622 330.174 515.207C333.368 516.767 336.823 517.464 340.425 517.608C340.977 517.753 341.384 518.16 341.384 518.737V523.85ZM331.741 523.515C331.741 523.515 334.711 524.238 334.856 525.805C335 526.673 334.446 527.516 333.554 528.02H333.699C334.952 528.24 335.651 529.373 335.362 530.65C335.241 532.627 333.699 533.206 331.5 533.35V535.493H330.054V533.324H329.089V535.735H327.884V533.324H325.714V531.636H327.161V524.886H325.473V523.44H328.125V521.27H329.33V523.44H330.295V521.27H331.741V523.515ZM329.665 531.935C330.74 531.967 332.946 532.033 332.946 530.506C332.946 528.674 330.319 528.939 329.33 529.083V531.928C329.421 531.928 329.535 531.931 329.665 531.935ZM329.548 527.663C330.502 527.674 332.392 527.696 332.392 526.383C332.392 524.928 330.479 524.949 329.531 524.96C329.458 524.96 329.391 524.961 329.33 524.961V527.661C329.395 527.661 329.468 527.662 329.548 527.663Z" fill="url(#paint9_linear_3010_364)"/>
<path d="M363.965 533.15C363.965 534.136 363.821 535.144 363.269 535.985C362.861 536.706 362.307 537.403 361.468 537.834C360.629 538.266 359.809 538.676 358.97 538.82C358.008 538.965 357.025 539.11 356.063 539.11H347.896V518.377H356.063C356.904 518.377 357.722 518.522 358.561 518.667C359.402 518.811 360.074 519.098 360.771 519.508C361.468 519.94 362.02 520.494 362.43 521.07C362.837 521.912 363.126 522.777 362.982 523.761C362.982 524.747 362.692 525.754 362.02 526.596C361.323 527.316 360.506 527.868 359.522 528.158C360.074 528.302 360.626 528.447 361.181 528.734C361.735 529.021 362.143 529.31 362.574 529.72C362.982 530.151 363.271 530.561 363.416 531.137C363.823 531.882 363.968 532.434 363.968 533.155L363.965 533.15ZM358.377 524.269C358.377 523.534 358.083 522.97 357.519 522.676C356.808 522.235 355.974 522.088 355.116 522.235H352.712V526.574H355.41C356.121 526.574 356.955 526.427 357.543 525.986C357.96 525.593 358.377 525.004 358.377 524.269ZM358.927 532.61C359.072 531.889 358.64 531.195 357.967 530.764C357.129 530.332 356.311 530.188 355.472 530.188H352.715V535.009H355.472C355.88 535.009 356.311 535.009 356.719 534.864C357.126 534.864 357.558 534.72 357.823 534.433C358.52 534.17 359.069 533.473 358.927 532.61Z" fill="url(#paint10_linear_3010_364)"/>
<path d="M370.462 519.682C370.462 520.116 370.317 520.405 370.173 520.67C370.028 520.959 369.883 521.249 369.618 521.514C369.329 521.803 369.064 521.948 368.775 522.092C368.485 522.237 368.075 522.237 367.666 522.237C366.966 522.237 366.267 521.948 365.713 521.514C365.158 521.08 364.869 520.381 364.869 519.658C364.869 519.368 365.014 518.934 365.158 518.669C365.303 518.38 365.448 518.091 365.713 517.825C366.002 517.536 366.267 517.391 366.557 517.247C366.846 517.102 367.256 516.958 367.666 516.958C368.075 516.958 368.365 516.958 368.775 517.102C369.064 517.247 369.329 517.391 369.618 517.681C369.908 517.97 370.028 518.259 370.173 518.524C370.462 518.983 370.462 519.392 370.462 519.682ZM365.25 539.348V524.402H370.071V539.348H365.25Z" fill="url(#paint11_linear_3010_364)"/>
<path d="M378.75 528.165V533.828C378.75 534.406 378.895 534.961 379.16 535.395C379.57 535.829 380.003 535.973 380.558 535.973H381.192C381.479 535.973 381.597 535.829 381.884 535.829V539.396C381.479 539.541 381.047 539.686 380.642 539.686C380.093 539.83 379.688 539.83 379.138 539.83C378.302 539.83 377.489 539.686 376.655 539.396C376.105 539.107 375.556 538.818 375.151 538.263C374.746 537.83 374.459 537.275 374.314 536.552C374.17 535.829 374.172 534.985 374.172 534.262V528.018H371.761V524.402H373.931V520.545H378.752V524.402H382.127V528.018H378.752V528.165H378.75Z" fill="url(#paint12_linear_3010_364)"/>
<path d="M399.261 539.107C397.87 539.397 396.358 539.686 394.825 539.541C393.313 539.541 391.78 539.252 390.389 538.697C388.998 538.264 387.894 537.42 386.792 536.407C385.833 535.419 384.994 534.262 384.442 532.839C383.338 529.85 383.338 526.716 384.442 523.727C384.994 522.449 385.833 521.172 386.792 520.159C387.752 519.171 388.998 518.447 390.389 518.013C391.78 517.435 393.292 517.29 394.683 517.29C396.194 517.29 397.727 517.58 399.118 518.013C400.365 518.447 401.469 519.147 402.428 520.014L399.526 524.016C398.974 523.438 398.279 522.883 397.583 522.594C396.744 522.16 395.929 522.015 394.945 522.015C394.106 522.015 393.292 522.16 392.595 522.449C391.083 523.172 389.958 524.305 389.406 525.872C389.119 526.716 388.998 527.584 388.998 528.428C388.998 529.272 389.143 530.284 389.406 531.128C389.692 531.851 390.1 532.55 390.652 533.273C391.204 533.852 391.898 534.406 392.595 534.696C393.434 534.985 394.393 535.274 395.232 535.13C395.784 535.13 396.336 535.13 396.886 534.985C397.293 534.84 397.845 534.696 398.277 534.551V530.67H394.42V526.572H402.857V537.685C401.729 538.384 400.483 538.818 399.261 539.107Z" fill="url(#paint13_linear_3010_364)"/>
<path d="M420.653 531.807C420.653 532.94 420.508 534.098 419.954 535.086C419.544 536.074 418.99 536.942 418.291 537.641C417.592 538.365 416.627 538.919 415.784 539.208C413.831 539.932 411.613 539.932 409.66 539.208C408.696 538.774 407.852 538.365 407.153 537.641C406.454 536.918 405.755 536.074 405.49 535.086C404.646 532.94 404.646 530.674 405.49 528.529C405.9 527.54 406.454 526.817 407.153 526.118C407.852 525.395 408.817 524.985 409.66 524.551C411.613 523.828 413.831 523.828 415.784 524.551C416.748 524.84 417.592 525.395 418.291 526.118C418.99 526.841 419.689 527.54 419.954 528.529C420.508 529.517 420.653 530.65 420.653 531.807ZM416.049 531.807C416.049 531.374 415.904 530.819 415.759 530.385C415.615 529.951 415.35 529.541 415.06 529.252C414.771 528.963 414.361 528.674 413.951 528.408C412.987 527.974 411.999 527.974 411.034 528.408C410.625 528.553 410.191 528.842 409.925 529.252C409.636 529.541 409.371 529.975 409.226 530.385C409.082 530.819 408.937 531.374 408.937 531.807C408.937 532.241 409.082 532.796 409.226 533.23C409.371 533.664 409.636 534.074 409.925 534.507C410.215 534.941 410.625 535.231 411.034 535.351C411.999 535.785 412.987 535.785 413.951 535.351C414.361 535.207 414.795 534.773 415.06 534.507C415.35 534.074 415.615 533.664 415.759 533.23C416.049 532.651 416.049 532.217 416.049 531.807Z" fill="url(#paint14_linear_3010_364)"/>
</g>
<path d="M785.771 245.362C779.342 245.362 775.177 240.895 775.177 233.984C775.177 227.132 779.493 222.575 785.952 222.575C791.173 222.575 795.067 225.623 795.821 230.362H791.747C790.992 227.796 788.789 226.287 785.861 226.287C781.787 226.287 779.221 229.245 779.221 233.953C779.221 238.632 781.817 241.65 785.861 241.65C788.849 241.65 791.143 240.08 791.868 237.636H795.882C795.037 242.284 790.992 245.362 785.771 245.362ZM800.644 227.102C799.377 227.102 798.381 226.106 798.381 224.869C798.381 223.631 799.377 222.665 800.644 222.665C801.851 222.665 802.847 223.631 802.847 224.869C802.847 226.106 801.851 227.102 800.644 227.102ZM798.803 245V230.09H802.485V245H798.803ZM815.646 230.03V233.44H814.288C811.632 233.44 809.972 234.859 809.972 237.756V245H806.29V230.12H809.761L809.972 232.293C810.606 230.815 812.024 229.819 814.016 229.819C814.529 229.819 815.042 229.879 815.646 230.03ZM816.762 237.515C816.762 232.897 819.81 229.637 824.217 229.637C828.291 229.637 831.068 231.901 831.461 235.493H827.778C827.356 233.803 826.118 232.927 824.368 232.927C822.014 232.927 820.444 234.708 820.444 237.515C820.444 240.322 821.893 242.072 824.247 242.072C826.088 242.072 827.386 241.167 827.778 239.537H831.491C831.038 243.008 828.141 245.392 824.247 245.392C819.72 245.392 816.762 242.253 816.762 237.515ZM837.944 245H834.292V222.545H837.944V245ZM848.476 245.392C844.04 245.392 840.931 242.163 840.931 237.545C840.931 232.867 843.979 229.637 848.356 229.637C852.823 229.637 855.66 232.625 855.66 237.273V238.39L844.432 238.42C844.704 241.046 846.092 242.374 848.537 242.374C850.559 242.374 851.887 241.589 852.31 240.171H855.72C855.086 243.431 852.37 245.392 848.476 245.392ZM848.386 232.656C846.213 232.656 844.885 233.833 844.523 236.066H852.008C852.008 234.014 850.589 232.656 848.386 232.656Z" fill="url(#paint15_linear_3010_364)"/>
<defs>
<linearGradient id="paint0_linear_3010_364" x1="502.5" y1="280" x2="502.5" y2="353.02" gradientUnits="userSpaceOnUse">
<stop stop-color="white"/>
<stop offset="1" stop-color="#E1D2FF"/>
</linearGradient>
<linearGradient id="paint1_linear_3010_364" x1="502" y1="366" x2="502" y2="396.745" gradientUnits="userSpaceOnUse">
<stop stop-color="white"/>
<stop offset="1" stop-color="#EEE6FF"/>
</linearGradient>
<linearGradient id="paint2_linear_3010_364" x1="121.133" y1="358.116" x2="121.205" y2="391.803" gradientUnits="userSpaceOnUse">
<stop stop-color="#E1D1FF"/>
<stop offset="1" stop-color="#A578FF"/>
</linearGradient>
<linearGradient id="paint3_linear_3010_364" x1="145.481" y1="362.399" x2="145.587" y2="386.653" gradientUnits="userSpaceOnUse">
<stop stop-color="#E1D1FF"/>
<stop offset="1" stop-color="#A578FF"/>
</linearGradient>
<linearGradient id="paint4_linear_3010_364" x1="158.155" y1="365.815" x2="158.207" y2="385.646" gradientUnits="userSpaceOnUse">
<stop stop-color="#E1D1FF"/>
<stop offset="1" stop-color="#A578FF"/>
</linearGradient>
<linearGradient id="paint5_linear_3010_364" x1="171.226" y1="362.176" x2="171.335" y2="386.733" gradientUnits="userSpaceOnUse">
<stop stop-color="#E1D1FF"/>
<stop offset="1" stop-color="#A578FF"/>
</linearGradient>
<linearGradient id="paint6_linear_3010_364" x1="184.878" y1="360.344" x2="184.98" y2="387.28" gradientUnits="userSpaceOnUse">
<stop stop-color="#E1D1FF"/>
<stop offset="1" stop-color="#A578FF"/>
</linearGradient>
<linearGradient id="paint7_linear_3010_364" x1="200.431" y1="365.791" x2="200.483" y2="385.622" gradientUnits="userSpaceOnUse">
<stop stop-color="#E1D1FF"/>
<stop offset="1" stop-color="#A578FF"/>
</linearGradient>
<linearGradient id="paint8_linear_3010_364" x1="214.513" y1="365.692" x2="214.578" y2="385.018" gradientUnits="userSpaceOnUse">
<stop stop-color="#E1D1FF"/>
<stop offset="1" stop-color="#A578FF"/>
</linearGradient>
<linearGradient id="paint9_linear_3010_364" x1="330.174" y1="515.207" x2="330.289" y2="551.839" gradientUnits="userSpaceOnUse">
<stop stop-color="#E1D1FF"/>
<stop offset="1" stop-color="#A578FF"/>
</linearGradient>
<linearGradient id="paint10_linear_3010_364" x1="355.932" y1="518.377" x2="356.026" y2="546.575" gradientUnits="userSpaceOnUse">
<stop stop-color="#E1D1FF"/>
<stop offset="1" stop-color="#A578FF"/>
</linearGradient>
<linearGradient id="paint11_linear_3010_364" x1="367.666" y1="516.958" x2="367.982" y2="547.408" gradientUnits="userSpaceOnUse">
<stop stop-color="#E1D1FF"/>
<stop offset="1" stop-color="#A578FF"/>
</linearGradient>
<linearGradient id="paint12_linear_3010_364" x1="376.944" y1="520.545" x2="377.071" y2="546.775" gradientUnits="userSpaceOnUse">
<stop stop-color="#E1D1FF"/>
<stop offset="1" stop-color="#A578FF"/>
</linearGradient>
<linearGradient id="paint13_linear_3010_364" x1="393.236" y1="517.29" x2="393.327" y2="547.606" gradientUnits="userSpaceOnUse">
<stop stop-color="#E1D1FF"/>
<stop offset="1" stop-color="#A578FF"/>
</linearGradient>
<linearGradient id="paint14_linear_3010_364" x1="412.755" y1="524.009" x2="412.81" y2="545.42" gradientUnits="userSpaceOnUse">
<stop stop-color="#E1D1FF"/>
<stop offset="1" stop-color="#A578FF"/>
</linearGradient>
<linearGradient id="paint15_linear_3010_364" x1="815.5" y1="213" x2="815.572" y2="268.765" gradientUnits="userSpaceOnUse">
<stop stop-color="#E1D1FF"/>
<stop offset="1" stop-color="#A578FF"/>
</linearGradient>
</defs>
</svg>
