<svg width="258" height="47" viewBox="0 0 258 47" fill="none" xmlns="http://www.w3.org/2000/svg">
<path d="M14.6846 22.7943C12.2595 22.7943 9.83454 22.831 7.40952 22.778C6.3091 22.7536 5.18831 22.6435 4.11642 22.399C1.55691 21.8162 0.256747 20.1492 0.21599 17.4837C0.179309 15.1973 0.207831 12.9109 0.207831 10.6244C0.207831 9.04308 0.187465 7.46173 0.22007 5.88445C0.232297 5.25272 0.30569 4.60469 0.456489 3.99335C0.847752 2.38347 1.97666 1.42976 3.46835 0.851018C4.5484 0.431226 5.68148 0.264126 6.82673 0.26005C12.0802 0.247823 17.3378 0.239673 22.5913 0.264126C24.083 0.272278 25.5298 0.545345 26.8504 1.31972C28.1749 2.09817 28.8678 3.25565 29.0431 4.74734C29.0879 5.11415 29.1001 5.48504 29.1001 5.85592C29.1001 9.65443 29.1042 13.4529 29.1001 17.2555C29.1001 17.7568 29.0879 18.2703 28.9942 18.7635C28.6722 20.4101 27.7063 21.5961 26.1249 22.1259C25.0856 22.4764 23.9689 22.7128 22.8766 22.7495C20.15 22.8351 17.4193 22.778 14.6927 22.778C14.6927 22.7821 14.6927 22.7902 14.6927 22.7943H14.6846ZM14.6275 19.599C16.9832 19.599 19.339 19.6112 21.6947 19.5909C22.2938 19.5868 22.9051 19.5134 23.4879 19.3789C24.2745 19.1955 24.7759 18.6698 24.9267 17.8628C24.9919 17.5041 25.0082 17.1292 25.0123 16.7624C25.0164 13.3021 25.0164 9.84598 25.0123 6.38575C25.0123 6.01894 24.9715 5.65214 24.9307 5.28533C24.8248 4.35608 24.2501 3.84255 23.382 3.66322C22.7911 3.54095 22.1838 3.47166 21.5806 3.46759C16.971 3.45129 12.3614 3.45129 7.75186 3.46759C7.15274 3.46759 6.54143 3.53687 5.95046 3.66322C4.91524 3.87923 4.38945 4.5191 4.38537 5.58693C4.36907 9.54846 4.36907 13.5141 4.38537 17.4756C4.38945 18.5108 4.95189 19.1792 5.96673 19.4034C6.52102 19.5256 7.0957 19.5868 7.66221 19.5909C9.98533 19.6112 12.3044 19.599 14.6275 19.599Z" fill="#9F78EA"/>
<path d="M61.9009 0.300801H84.8183V3.44313H66.0907V9.21833C66.4697 9.2387 66.8528 9.27131 67.24 9.27131C72.3916 9.27131 77.5473 9.27131 82.6989 9.27131C83.0902 9.27131 83.4855 9.27131 83.9298 9.27131V12.4911H66.0907V19.5501C67.1014 19.6398 68.1326 19.5827 69.1637 19.5909C70.2071 19.6031 71.2504 19.5909 72.2979 19.5909H84.8183C84.9487 20.6424 84.8794 21.6328 84.8713 22.6068C84.0888 22.8228 63.0787 22.8636 61.905 22.6598V0.288574L61.9009 0.300801Z" fill="#9F78EA"/>
<path d="M125.241 22.7371H121.691V0.259894C122.799 0.259894 123.867 0.219137 124.935 0.284347C125.265 0.304725 125.607 0.557418 125.893 0.773427C132.707 5.87207 139.518 10.9829 146.328 16.0897C146.723 16.3872 147.123 16.6725 147.689 17.0842V0.325106H151.251V22.7045C150.228 22.8757 149.315 22.8431 148.366 22.138C140.964 16.644 133.522 11.1989 126.092 5.74164C125.88 5.58677 125.652 5.45227 125.261 5.19143C125.224 8.24409 125.249 11.1419 125.245 14.0356C125.241 16.9171 125.245 19.8026 125.245 22.7371H125.241Z" fill="#9F78EA"/>
<path d="M201.064 5.33028V22.6844H197.657C197.457 22.016 197.375 2.04938 197.587 0.288703C198.672 0.288703 199.772 0.247945 200.868 0.313156C201.194 0.333534 201.52 0.626982 201.81 0.842992C208.73 6.02314 215.643 11.2114 222.559 16.3997C222.824 16.5995 223.101 16.7829 223.394 16.9866C223.814 16.6565 223.672 16.2245 223.676 15.8577C223.688 11.1177 223.684 6.3818 223.684 1.64182C223.684 1.2424 223.684 0.842992 223.684 0.366141H226.985C226.985 0.366141 227.001 0.374293 227.022 0.398747C227.042 0.423201 227.071 0.447653 227.075 0.476182C227.099 0.639208 227.136 0.806311 227.136 0.973412C227.136 8.09765 227.132 15.2219 227.124 22.3461C227.124 22.4399 227.075 22.5336 227.034 22.6803C226.06 22.8393 225.204 22.7741 224.324 22.122C217.004 16.6932 209.647 11.3133 202.299 5.91718C201.981 5.68486 201.651 5.4607 201.325 5.23654C201.239 5.26915 201.154 5.30175 201.072 5.33028H201.064Z" fill="#9F78EA"/>
<path d="M256.745 0.345746V3.41471C256.301 3.41471 255.906 3.41471 255.515 3.41471C250.057 3.41471 244.6 3.39841 239.147 3.43101C238.287 3.43509 237.407 3.58997 236.575 3.8182C235.642 4.07497 235.397 4.49068 235.393 5.44846C235.385 9.48336 235.385 13.5182 235.393 17.5531C235.393 18.5843 235.699 19.0082 236.718 19.2975C237.325 19.4687 237.969 19.5991 238.597 19.6032C242.269 19.6317 245.941 19.6358 249.609 19.6032C250.339 19.595 251.084 19.4687 251.794 19.2853C252.853 19.0082 253.077 18.6536 253.081 17.5531C253.086 15.5031 253.081 13.453 253.081 11.3989C253.081 11.1666 253.102 10.9384 253.118 10.6408H257.116C257.141 10.8732 257.186 11.1258 257.19 11.3826C257.198 13.4653 257.202 15.552 257.19 17.6347C257.178 19.9537 256.179 21.3272 253.986 22.0975C252.666 22.5621 251.288 22.7129 249.919 22.7292C246.08 22.7822 242.24 22.7985 238.401 22.7333C236.828 22.7048 235.25 22.5051 233.791 21.7959C232.3 21.0704 231.415 19.9496 231.411 18.2542C231.399 13.7506 231.403 9.24289 231.403 4.7393C231.403 3.28837 232.12 2.23277 233.327 1.52769C234.411 0.89596 235.605 0.541378 236.869 0.463941C243.361 0.0645269 249.862 0.382428 256.354 0.288688C256.452 0.288688 256.55 0.317217 256.75 0.345746H256.745Z" fill="#9F78EA"/>
<path d="M176.096 10.755C179.381 14.7451 182.605 18.6537 185.96 22.7293C184.969 22.7415 184.142 22.6722 183.335 22.7741C181.933 22.9494 180.991 22.4807 180.095 21.3395C177.914 18.564 175.567 15.923 173.297 13.2167C173.023 12.8907 172.759 12.6624 172.294 12.6665C170.171 12.6869 168.051 12.6787 165.928 12.6869C165.801 12.6869 165.675 12.7358 165.439 12.7847V22.6926H161.375V0.358056H165.39V9.44676C165.834 9.47936 166.16 9.5242 166.482 9.5242C168.267 9.53235 170.052 9.50382 171.837 9.5405C172.465 9.55272 172.905 9.34894 173.325 8.88432C175.681 6.29628 178.081 3.749 180.425 1.15688C180.983 0.537384 181.537 0.199107 182.414 0.264318C183.551 0.349906 184.7 0.284694 186.025 0.284694C182.666 3.82643 179.402 7.26628 176.096 10.755Z" fill="#9F78EA"/>
<path d="M58.1065 0.256104V3.46364C57.6663 3.46364 57.275 3.46364 56.8797 3.46364C51.561 3.46364 46.2422 3.45956 40.9235 3.47179C40.2551 3.47179 39.5745 3.52885 38.9183 3.64297C37.8464 3.83045 37.3573 4.39289 37.2228 5.47701C37.1862 5.77454 37.1902 6.08021 37.1902 6.38181C37.1902 9.77682 37.1902 13.1678 37.1902 16.5628C37.1902 16.5954 37.1902 16.628 37.1902 16.6647C37.1413 18.458 37.5611 19.5543 40.1084 19.5625C45.6961 19.5788 51.2838 19.5665 56.8715 19.5665C57.2669 19.5665 57.6581 19.5665 58.1024 19.5665V22.7292C57.8089 22.7537 57.5481 22.7904 57.2913 22.7904C51.5691 22.7904 45.8469 22.8067 40.1247 22.7782C39.1262 22.7741 38.1032 22.6681 37.1291 22.448C34.378 21.8244 33.1309 20.2594 33.1105 17.4553C33.082 13.559 33.1349 9.65863 33.0901 5.76231C33.0534 2.53439 34.969 0.953041 37.7934 0.463963C38.7145 0.305012 39.6641 0.26833 40.6056 0.26833C46.0588 0.252027 51.512 0.26018 56.9653 0.26018C57.328 0.26018 57.6867 0.26018 58.1024 0.26018L58.1065 0.256104Z" fill="#9F78EA"/>
<path d="M86.6198 22.8065C91.645 15.2013 96.5644 7.75511 101.516 0.259988C102.124 0.259988 102.731 0.312972 103.326 0.247762C104.198 0.149946 104.724 0.459694 105.205 1.21777C107.055 4.14408 108.987 7.01742 110.89 9.91113C113.474 13.8441 116.062 17.7771 118.642 21.7101C118.838 22.0077 119.017 22.3215 119.302 22.7943C117.754 22.7943 116.384 22.8309 115.023 22.7617C114.75 22.7494 114.436 22.3622 114.249 22.077C112.606 19.5378 110.984 16.9824 109.358 14.431C107.442 11.4273 105.531 8.41944 103.611 5.41569C103.456 5.17115 103.257 4.95514 103.02 4.64539C102.772 4.99997 102.572 5.25674 102.397 5.5298C98.8345 11.0319 95.2642 16.5259 91.7266 22.0403C91.376 22.5823 91.0174 22.8432 90.3571 22.8106C89.1874 22.7576 88.0095 22.7943 86.6198 22.7943V22.8065Z" fill="#9F78EA"/>
<path d="M189.106 0.333496H192.795C193.015 1.07934 193.055 21.6206 192.831 22.7047H189.147C188.943 21.9589 188.906 1.4543 189.11 0.333496H189.106Z" fill="#9F78EA"/>
<path d="M112.724 42.9484C113.23 44.0488 113.674 45.0148 114.135 46.0133C113.527 46.2538 113.189 46.0867 112.957 45.565C112.574 44.7091 112.158 43.8695 111.746 42.9973H109.717V46.0581H108.771C108.771 45.4957 108.771 44.9985 108.771 44.5012C108.771 42.9892 108.759 41.4771 108.775 39.965C108.783 39.0888 108.918 38.9583 109.761 38.942C110.638 38.9257 111.514 38.9217 112.386 38.9543C113.405 38.995 113.89 39.5126 113.943 40.5397C113.943 40.5723 113.943 40.609 113.943 40.6416C114.033 41.6401 113.878 42.5286 112.72 42.9525L112.724 42.9484ZM109.774 42.0477C110.638 42.0477 111.437 42.0762 112.231 42.0395C112.814 42.011 112.961 41.8154 113.018 41.2122C113.099 40.34 112.94 39.908 112.37 39.8387C111.518 39.7286 110.65 39.692 109.774 39.8917V42.0518V42.0477Z" fill="#9F78EA"/>
<path d="M137.333 46.0216C136.734 46.2498 136.392 46.0949 136.151 45.5692C135.764 44.7174 135.344 43.8819 134.92 42.9974H132.952V46.0094C132.618 46.0542 132.349 46.0868 131.97 46.1357C131.97 45.5651 131.97 45.1005 131.97 44.6399C131.97 43.0627 131.961 41.4895 131.974 39.9122C131.982 39.0767 132.092 38.9544 132.883 38.9381C133.787 38.9177 134.696 38.9136 135.601 38.9544C136.547 38.9911 137.06 39.5128 137.15 40.4583C137.252 41.518 137.154 42.4921 135.903 42.9445C136.4 44.0123 136.86 45.0027 137.329 46.0175L137.333 46.0216ZM132.972 42.0478C133.857 42.0478 134.631 42.0764 135.397 42.0397C136.013 42.0111 136.18 41.7911 136.225 41.1349C136.282 40.2668 136.11 39.8714 135.499 39.8184C134.676 39.7492 133.844 39.8021 132.972 39.8021V42.0478Z" fill="#9F78EA"/>
<path d="M96.6051 42.4431C96.6051 41.8032 96.5807 41.1633 96.6133 40.5275C96.6581 39.6064 97.2124 39.0195 98.1294 38.9625C98.8997 38.9136 99.6782 38.9136 100.448 38.9625C101.361 39.0154 101.948 39.5901 101.981 40.5153C102.03 41.8562 102.026 43.2011 101.981 44.5461C101.952 45.4672 101.313 46.0867 100.359 46.1601C99.6578 46.213 98.9445 46.213 98.2395 46.1601C97.2409 46.0908 96.6581 45.455 96.601 44.4605C96.597 44.3953 96.601 44.326 96.601 44.2608C96.601 43.6576 96.601 43.0503 96.601 42.4471L96.6051 42.4431ZM97.5507 42.5001C97.5507 43.14 97.5507 43.7758 97.5507 44.4157C97.5507 44.9374 97.7789 45.2593 98.321 45.2716C98.9935 45.2879 99.6659 45.2838 100.338 45.2675C100.77 45.2553 101.039 45.0066 101.048 44.5706C101.064 43.2256 101.068 41.8806 101.048 40.5397C101.039 40.0099 100.689 39.7654 100.188 39.7491C99.617 39.7328 99.0424 39.7205 98.4718 39.7491C97.7952 39.7857 97.5792 40.0058 97.5548 40.6865C97.5303 41.2897 97.5507 41.8969 97.5507 42.5001Z" fill="#9F78EA"/>
<path d="M194.702 46.1149C194.413 46.0945 194.188 46.0782 193.846 46.0497V43.0011H190.553V46.0171C190.206 46.0538 189.942 46.0864 189.615 46.119V39.0192C189.88 38.9988 190.125 38.9784 190.484 38.9499V41.9333C191.608 42.1738 192.64 41.9985 193.777 42.0637V39.0681C194.123 39.0151 194.368 38.9744 194.698 38.9214V46.1149H194.702Z" fill="#9F78EA"/>
<path d="M166.49 44.2158C166.327 44.6764 166.172 45.0799 166.042 45.4956C165.871 46.0417 165.557 46.274 164.921 46.0173C165.329 44.8394 165.728 43.6738 166.132 42.5081C166.429 41.6522 166.722 40.7963 167.028 39.9445C167.375 38.9868 167.464 38.9297 168.491 38.9338C168.691 38.9338 168.891 38.9582 169.213 38.9786C170.028 41.3058 170.855 43.6615 171.695 46.058C171.071 46.2007 170.704 46.0947 170.55 45.4956C170.439 45.0758 170.26 44.6764 170.093 44.2158H166.486H166.49ZM169.734 43.1928C169.368 42.1128 169.033 41.1102 168.675 40.1157C168.63 39.9894 168.414 39.8182 168.32 39.8386C168.157 39.8752 167.957 40.026 167.9 40.1768C167.538 41.1428 167.212 42.1209 166.841 43.1928H169.738H169.734Z" fill="#9F78EA"/>
<path d="M55.4615 38.9747V39.6268C55.3677 39.6594 55.274 39.7246 55.1843 39.7246C54.3447 39.7368 53.5051 39.7246 52.6656 39.7491C51.8627 39.7735 51.6752 39.9773 51.6467 40.7843C51.6344 41.1837 51.6467 41.579 51.6467 42.0518H55.0661C55.0947 42.3575 55.115 42.5939 55.1476 42.9444H51.8464C51.7485 43.1033 51.6874 43.1563 51.6833 43.2093C51.4836 45.6914 51.9523 45.2227 53.5581 45.243C54.1613 45.2512 54.7604 45.243 55.437 45.243C55.4614 45.5365 55.4818 45.781 55.5063 46.1234C54.3284 46.1234 53.2239 46.1682 52.1275 46.1071C51.3083 46.0622 50.7541 45.4713 50.7296 44.6521C50.6848 43.246 50.6889 41.8358 50.7255 40.4256C50.7459 39.6472 51.2635 39.0399 52.0175 38.991C53.1465 38.9217 54.2836 38.9747 55.4615 38.9747Z" fill="#9F78EA"/>
<path d="M125.416 38.9542V39.5981C125.318 39.643 125.232 39.7122 125.143 39.7163C124.405 39.7326 123.663 39.7326 122.926 39.7408C121.67 39.753 121.56 39.863 121.568 41.1509C121.568 41.4444 121.601 41.7378 121.625 42.0924H125.016C125.033 42.3777 125.041 42.5978 125.057 42.9198H121.805C121.687 43.0747 121.617 43.1195 121.613 43.1765C121.409 45.1451 121.495 45.2429 123.447 45.2429C124.079 45.2429 124.711 45.2429 125.387 45.2429V46.0173C125.289 46.054 125.196 46.1151 125.106 46.1151C124.165 46.1273 123.223 46.1558 122.286 46.1232C121.242 46.0866 120.668 45.516 120.643 44.4808C120.615 43.1725 120.615 41.8642 120.643 40.5559C120.664 39.6063 121.193 39.0112 122.11 38.9623C123.178 38.9053 124.246 38.9501 125.412 38.9501L125.416 38.9542Z" fill="#9F78EA"/>
<path d="M74.7107 43.148V46.0336C74.3969 46.0662 74.1483 46.0947 73.8956 46.1233C73.8426 45.9725 73.7814 45.8787 73.7814 45.7891C73.7733 43.8124 73.7651 41.8357 73.7774 39.859C73.7814 39.1009 73.92 38.9623 74.6455 38.942C75.5177 38.9175 76.3899 38.9134 77.2621 38.946C78.2932 38.9868 78.8597 39.5533 78.9453 40.5722C78.9738 40.9064 78.9738 41.2447 78.9453 41.5748C78.8556 42.5122 78.2443 43.1032 77.2987 43.1358C76.4673 43.1643 75.6359 43.1399 74.7148 43.1399L74.7107 43.148ZM74.78 42.2555C75.5666 42.2555 76.2921 42.2718 77.0175 42.2514C77.8204 42.2269 77.9875 42.0354 78.016 41.2121C78.0242 41.0124 78.016 40.8127 78.016 40.6089C78.0079 40.0872 77.7267 39.7775 77.2213 39.7571C76.4306 39.7245 75.6359 39.7489 74.7841 39.7489V42.2555H74.78Z" fill="#9F78EA"/>
<path d="M67.4276 39.0604C66.861 40.2709 66.2945 41.4773 65.7199 42.7122C66.2212 43.776 66.7347 44.8601 67.2523 45.9564C66.3882 46.1765 66.3719 46.1765 66.0377 45.5285C65.7158 44.9009 65.4427 44.2528 65.1045 43.6333C64.7743 43.0261 64.4319 43.022 64.1059 43.6252C63.7717 44.2447 63.4701 44.8846 63.1889 45.5285C62.9443 46.0909 62.5694 46.2621 61.9254 46.038C62.227 45.4062 62.443 44.7582 62.8099 44.2161C63.5231 43.1687 63.4456 42.215 62.7813 41.1798C62.3737 40.5399 62.117 39.8063 61.7869 39.0931C62.3941 38.82 62.7528 38.9463 62.9932 39.4843C63.3397 40.2465 63.6984 41.0086 64.0855 41.7504C64.432 42.4147 64.7825 42.4229 65.133 41.7667C65.512 41.0575 65.8584 40.328 66.1763 39.5903C66.4168 39.0401 66.7469 38.7833 67.4235 39.0645L67.4276 39.0604Z" fill="#9F78EA"/>
<path d="M182.805 45.2428V46.1191C181.692 46.1191 180.621 46.168 179.557 46.1028C178.717 46.0539 178.147 45.4507 178.11 44.5622C178.053 43.1887 178.049 41.807 178.11 40.4335C178.147 39.5654 178.754 39.0111 179.618 38.9622C180.523 38.9133 181.432 38.9459 182.34 38.9378C182.813 38.9337 182.923 39.1742 182.764 39.7203C182.32 39.7284 181.831 39.7366 181.338 39.7407C180.865 39.7447 180.396 39.7203 179.928 39.7529C179.316 39.7937 179.047 40.026 179.031 40.6169C178.998 41.86 178.998 43.1031 179.031 44.3421C179.047 44.9983 179.304 45.2183 179.985 45.2387C180.89 45.2632 181.794 45.2428 182.801 45.2428H182.805Z" fill="#9F78EA"/>
<path d="M159.541 39.0684C159.073 40.2626 158.649 41.4649 158.119 42.6142C157.964 42.9525 157.512 43.1522 157.011 43.5679V46.0581H156.061V43.2745C155.156 43.2459 154.895 42.6428 154.659 41.9906C154.308 41.0247 153.925 40.071 153.554 39.1051C154.186 38.8279 154.524 38.9869 154.72 39.5493C154.981 40.3074 155.303 41.0492 155.555 41.8113C155.719 42.3004 156.061 42.3697 156.497 42.3615C156.917 42.3534 157.292 42.333 157.463 41.8358C157.716 41.1062 158.005 40.393 158.29 39.6757C158.58 38.9461 158.588 38.9502 159.541 39.0603V39.0684Z" fill="#9F78EA"/>
<path d="M204.263 39.8429V46.0297C203.95 46.0664 203.701 46.0949 203.342 46.1357V39.8551C202.927 39.8225 202.609 39.7981 202.287 39.7777C201.989 39.7573 201.692 39.7451 201.349 39.7288C201.215 39.309 201.154 38.9544 201.728 38.9503C203.106 38.934 204.483 38.9422 205.865 38.9503C206.358 38.9503 206.391 39.2479 206.264 39.7206C205.629 39.7614 204.981 39.8021 204.267 39.847L204.263 39.8429Z" fill="#9F78EA"/>
<path d="M85.4746 38.9583C85.8536 38.9746 86.0737 38.9868 86.2979 38.999C86.3386 39.1335 86.3957 39.2272 86.3957 39.321C86.4038 40.8942 86.3956 42.4674 86.4119 44.0447C86.4201 45.1288 86.5342 45.2348 87.6469 45.2429C88.4498 45.247 89.2486 45.2429 90.1289 45.2429V46.1029C89.0815 46.1029 88.0789 46.1681 87.0885 46.0866C85.9922 45.9969 85.4949 45.3937 85.4827 44.2851C85.4664 42.5489 85.4786 40.8127 85.4786 38.9583H85.4746Z" fill="#9F78EA"/>
</svg>
