<svg width="97" height="45" viewBox="0 0 97 45" fill="none" xmlns="http://www.w3.org/2000/svg">
<path d="M24.9351 11.6062C24.9846 9.82408 24.8458 8.05795 24.2603 6.36202C23.8119 5.06654 23.1084 3.929 21.923 3.15681C21.02 2.5681 20.0148 2.39579 18.9651 2.47716C16.4826 2.67021 14.7994 4.13321 13.488 6.08282C12.4541 7.62081 11.875 9.34227 11.8941 11.2185C11.9117 12.9671 12.7493 14.2227 14.3511 14.9039C15.444 15.3682 16.5703 15.759 17.6983 16.1308C19.0672 16.5823 20.4137 17.0848 21.6661 17.8012C23.4163 18.8015 24.4262 20.306 24.7006 22.3194C24.9702 24.2898 24.5411 26.1596 23.9492 28.0055C23.0302 30.8693 21.4667 33.3294 19.1964 35.3141C17.7525 36.5777 16.1204 37.5078 14.1995 37.8078C12.1941 38.1205 10.2556 37.9482 8.51823 36.7723C7.73009 36.2395 7.08395 35.5566 6.54629 34.7685C6.27028 34.3649 6.26071 34.3665 5.93684 34.7398C5.23007 35.5534 4.48501 36.3384 3.83567 37.1951C3.39852 37.7711 2.85768 37.7424 2.27535 37.6993C2.08709 37.6849 2.00413 37.5509 2.05359 37.3627C2.12698 37.0803 2.21312 36.8011 2.28651 36.5187C3.02679 33.6278 3.76069 30.7353 4.50415 27.846C4.8009 26.6941 5.11041 25.5454 5.43109 24.3999C5.48693 24.1988 5.59383 23.8925 5.73423 23.8574C6.04693 23.7776 6.4027 23.8032 6.72498 23.8654C6.80475 23.8813 6.86856 24.2068 6.86378 24.3887C6.84304 25.038 6.77444 25.6858 6.75051 26.3351C6.69307 27.8938 6.85421 29.4286 7.28657 30.9315C7.69021 32.3355 8.33955 33.6086 9.40529 34.6281C10.3817 35.5614 11.5432 36.0416 12.9184 36.1007C15.3514 36.206 17.1957 35.0924 18.7608 33.3932C20.034 32.0116 20.8588 30.3763 21.2449 28.5336C21.4348 27.6274 21.5145 26.7132 21.2976 25.7974C21.0503 24.7493 20.3802 24.0138 19.5059 23.449C18.4801 22.7853 17.3393 22.3657 16.1938 21.9652C14.7101 21.4467 13.2391 20.9059 11.8335 20.1879C9.42284 18.9563 8.4959 16.8168 8.7049 14.087C8.85168 12.1614 9.35583 10.3314 10.1105 8.56689C11.3038 5.77171 13.0875 3.44878 15.7168 1.85814C17.4414 0.81314 19.3097 0.348869 21.3279 0.768465C22.8036 1.07479 23.9444 1.9044 24.8378 3.09618C24.9989 3.31157 25.1601 3.52854 25.31 3.7519C25.4935 4.02631 25.6531 3.9625 25.8254 3.74074C26.4029 2.99568 27.006 2.26976 27.5564 1.50396C27.8819 1.05245 28.2648 0.864191 28.812 0.923221C29.2555 0.971084 29.281 0.967892 29.1805 1.39546C28.9173 2.50907 28.6461 3.62108 28.3749 4.73309C27.9074 6.65079 27.4399 8.56848 26.9661 10.4846C26.7124 11.5088 26.4524 12.5299 26.178 13.5494C26.1365 13.7041 26.0184 13.9371 25.9051 13.9562C25.6291 14.0041 25.3276 13.9738 25.0516 13.9147C24.9862 13.9004 24.9463 13.6419 24.9431 13.4951C24.9319 12.8665 24.9383 12.238 24.9383 11.6078L24.9351 11.6062Z" fill="#9F78EA"/>
<path d="M90.9569 37.2939C89.4731 37.2939 87.991 37.2939 86.5072 37.2939C86.3493 37.2939 86.1929 37.3003 86.035 37.2907C85.5276 37.2636 85.4926 37.2189 85.6026 36.7307C85.6665 36.4467 85.7606 36.1675 85.8148 35.882C85.8834 35.5118 86.0685 35.3666 86.461 35.373C86.997 35.3826 87.5363 35.3331 88.0723 35.2773C89.6438 35.1146 90.1863 34.3168 90.1687 32.782C90.1592 31.9748 90.1017 31.1675 90.0746 30.3602C90.0252 28.8796 89.9837 27.3975 89.9326 25.917C89.9167 25.4335 89.8544 25.3777 89.387 25.3426C89.2753 25.3346 89.162 25.3378 89.0503 25.3378C86.0158 25.3378 82.9829 25.349 79.9485 25.325C79.4315 25.3203 79.1141 25.4734 78.8795 25.9361C77.943 27.7756 76.9666 29.5976 76.0397 31.4419C75.8211 31.8758 75.6967 32.3688 75.5994 32.8491C75.3553 34.068 76.0174 35.0475 77.2331 35.2741C77.6702 35.3555 78.1249 35.3539 78.5716 35.381C79.0311 35.4097 79.0454 35.4145 78.9513 35.8437C78.8747 36.1947 78.7694 36.5377 78.6929 36.8887C78.6354 37.1471 78.4871 37.2764 78.227 37.2843C78.093 37.2875 77.9574 37.2923 77.8234 37.2923C75.0362 37.2923 72.2505 37.2907 69.4633 37.2891C69.3517 37.2891 69.2384 37.2891 69.1267 37.2859C68.8236 37.2811 68.731 37.1264 68.8156 36.8456C68.8475 36.7387 68.8858 36.6302 68.8986 36.5201C68.9911 35.7112 69.3389 35.2677 70.2547 35.2342C71.0843 35.2039 71.7974 34.7141 72.3319 34.0887C72.9701 33.3404 73.6019 32.5651 74.0965 31.7195C75.6137 29.1206 77.0639 26.4849 78.5365 23.862C80.5802 20.2197 82.6256 16.5789 84.6613 12.9318C86.3365 9.93242 87.999 6.92665 89.671 3.92566C90.1959 2.98436 90.7319 2.04944 91.2616 1.11133C91.5121 0.667805 92.1199 0.45402 92.581 0.65983C92.6512 0.691738 92.7262 0.773107 92.7453 0.846496C92.7788 0.97413 92.7772 1.11293 92.782 1.24694C92.8315 2.66049 92.8794 4.07243 92.9304 5.48598C92.9783 6.82772 93.0245 8.16948 93.074 9.51123C93.1665 11.9778 93.2607 14.4443 93.3564 16.9108C93.4425 19.1077 93.5287 21.3046 93.6196 23.5015C93.7074 25.609 93.7999 27.715 93.8924 29.8225C93.9435 30.9888 93.9946 32.1535 94.0552 33.3181C94.0679 33.5622 94.1126 33.8079 94.1653 34.0472C94.336 34.8194 94.8369 35.239 95.6027 35.3618C95.7128 35.3794 95.8261 35.3778 95.9394 35.381C96.7802 35.4049 96.7945 35.4081 96.5967 36.1931C96.284 37.4423 96.5201 37.2779 95.2071 37.2859C93.7919 37.2955 92.3752 37.2875 90.9601 37.2875L90.9569 37.2939ZM85.0107 23.527C86.2679 23.527 87.5251 23.527 88.7823 23.527C89.8832 23.527 89.8417 23.5844 89.8002 22.5139C89.73 20.6329 89.6231 18.7519 89.5561 16.8709C89.4843 14.875 89.446 12.8792 89.3838 10.8833C89.3551 9.98666 89.3056 9.09164 89.2657 8.1966C89.2609 8.08492 89.2593 7.97164 89.2482 7.86156C89.2434 7.82167 89.2083 7.74988 89.1955 7.75307C89.1381 7.76105 89.0711 7.7786 89.0312 7.8153C88.9833 7.85837 88.9578 7.92698 88.9259 7.98601C87.8522 9.9037 86.7785 11.823 85.7063 13.7407C84.2051 16.4226 82.7054 19.1045 81.2041 21.7864C80.9743 22.1964 80.743 22.6064 80.5212 23.0213C80.2995 23.4345 80.3473 23.5063 80.8355 23.527C80.9472 23.5318 81.0605 23.527 81.1721 23.527C82.4517 23.527 83.7312 23.527 85.0107 23.527Z" fill="#9F78EA"/>
<path d="M65.7667 14.0137C67.1404 14.0296 68.2237 14.5896 69.1474 15.5277C69.5016 15.8867 69.5048 15.8915 69.8669 15.5389C70.1892 15.2262 70.4987 14.8991 70.8194 14.5864C70.9311 14.4779 71.0476 14.3359 71.1848 14.3024C71.3666 14.2578 71.5804 14.2785 71.7623 14.3312C71.8038 14.3439 71.7942 14.612 71.7671 14.7555C71.3124 17.112 70.8561 19.4684 70.3839 21.8217C70.3488 21.9972 70.2131 22.2604 70.0871 22.2859C69.792 22.3434 69.4729 22.2923 69.1665 22.2508C69.1171 22.2445 69.0692 22.061 69.0628 21.9573C69.0469 21.7116 69.0469 21.4627 69.0549 21.2154C69.0932 20.2135 68.8905 19.2467 68.6066 18.299C68.155 16.7913 66.9154 15.9186 65.3359 15.8596C62.6684 15.7607 60.6805 17.8842 60.3183 20.3028C60.1588 21.3638 60.5289 22.2811 61.5245 22.7981C62.1355 23.1156 62.7992 23.3469 63.4597 23.5495C64.5095 23.8718 65.5896 24.0999 66.6346 24.4382C68.4709 25.0317 69.4888 26.3957 69.4713 28.3262C69.441 31.6622 68.0514 34.3378 65.4205 36.3863C64.133 37.3882 62.6764 37.9211 61.0618 37.953C59.5158 37.9833 58.2315 37.3563 57.2137 36.1868C56.8164 35.7306 56.818 35.7401 56.4191 36.19C56.0458 36.6096 55.6358 36.9989 55.2848 37.4345C55.0104 37.7759 54.669 37.7536 54.31 37.7296C54.1137 37.7169 54.0356 37.5892 54.0643 37.4057C54.0994 37.184 54.1441 36.9654 54.1919 36.7452C54.7328 34.2692 55.2704 31.7915 55.8209 29.317C55.8671 29.1096 55.9501 28.7937 56.0889 28.749C56.3713 28.6565 56.7079 28.6788 57.0094 28.7283C57.0988 28.7426 57.1849 29.0059 57.2041 29.1638C57.3046 30.0317 57.3604 30.906 57.4801 31.7707C57.5535 32.302 57.6795 32.8301 57.8391 33.3422C58.49 35.4434 60.0934 36.198 62.0318 36.0369C64.8956 35.7992 66.6298 33.5273 66.842 31.0608C66.9282 30.0556 66.5325 29.2372 65.5098 28.8862C64.5765 28.5639 63.6177 28.315 62.6828 27.996C61.7718 27.6848 60.8544 27.3721 59.9801 26.9733C58.6942 26.3846 58.1039 25.2758 57.9938 23.9117C57.7928 21.4372 58.6208 19.277 60.0934 17.3306C61.073 16.0351 62.2408 14.9598 63.8139 14.4412C64.4441 14.2338 65.1174 14.1525 65.7699 14.0137H65.7667Z" fill="#9F78EA"/>
<path d="M50.4938 13.8448C53.5267 13.8113 55.5816 16.372 54.9291 19.3586C54.7296 20.2744 54.377 21.112 53.7851 21.8443C53.3927 22.3293 52.9124 22.6819 52.295 22.8254C51.6345 22.977 51.0777 22.7074 50.7969 22.0979C50.5735 21.6129 50.5129 21.112 50.6485 20.5887C50.8352 19.8643 51.0937 19.1767 51.5898 18.5992C51.7207 18.446 51.8403 18.2817 51.96 18.1205C52.6013 17.2494 52.4051 16.3018 51.4287 15.8343C51.0378 15.6476 50.5672 15.5264 50.1364 15.5375C48.5809 15.5806 47.3604 16.3097 46.3904 17.5079C44.621 19.6952 43.5026 22.2064 42.7767 24.8931C42.3906 26.3194 42.0939 27.776 41.8641 29.2358C41.6248 30.7531 41.6791 32.2687 42.2439 33.7413C42.9411 35.5569 44.7152 36.1743 46.368 35.5776C47.5279 35.1596 48.4325 34.3875 49.168 33.4382C49.7854 32.6421 50.3007 31.7694 50.8751 30.9398C50.9788 30.7898 51.1798 30.56 51.2851 30.584C51.5787 30.6542 51.8627 30.8137 52.1083 30.994C52.1642 31.0355 52.0748 31.3242 52.0015 31.4758C51.3457 32.8112 50.5879 34.0827 49.6131 35.2123C48.7819 36.1759 47.8007 36.9609 46.6201 37.4571C45.1794 38.0633 43.6957 38.1128 42.2088 37.6629C40.6085 37.1779 39.5859 36.0451 38.9796 34.5422C38.3558 32.9963 38.1963 31.3897 38.3861 29.7193C38.7547 26.4837 39.7279 23.4461 41.2818 20.5998C42.5869 18.2099 44.4104 16.2842 46.7749 14.8994C47.9172 14.2309 49.2286 13.8608 50.4922 13.848L50.4938 13.8448Z" fill="#9F78EA"/>
<path d="M29.4006 37.2922C28.0541 37.2922 26.7059 37.2922 25.3594 37.2922C25.1807 37.2922 24.9988 37.2938 24.8217 37.2683C24.6415 37.2412 24.5473 37.1343 24.6016 36.9349C24.7212 36.5025 24.8106 36.059 24.9637 35.641C25.0068 35.5229 25.2286 35.4128 25.3754 35.4017C25.7997 35.3697 26.2273 35.3921 26.6549 35.3889C27.6967 35.3809 28.2966 34.9948 28.6587 34.0136C28.8837 33.4058 29.0448 32.7724 29.2092 32.1438C30.2877 28.0212 31.3614 23.8987 32.4303 19.7745C32.5532 19.2975 32.6728 18.8141 32.7255 18.3259C32.8754 16.9474 32.2899 16.4528 31.146 16.3092C30.7695 16.2614 30.3834 16.2885 30.0021 16.2837C29.742 16.2805 29.6256 16.1465 29.683 15.896C29.7691 15.5243 29.8665 15.1558 29.975 14.7904C30.0563 14.516 30.302 14.5192 30.527 14.5112C31.714 14.4633 32.9026 14.4219 34.0896 14.3708C34.7166 14.3437 35.342 14.291 35.969 14.2671C36.9055 14.232 36.9087 14.2384 36.6853 15.1143C35.9482 18.0036 35.2032 20.8913 34.4709 23.7822C33.6285 27.1087 32.8164 30.4415 31.9501 33.7616C31.6119 35.0586 32.2676 35.4814 33.236 35.3937C33.5918 35.3618 33.9539 35.3825 34.3129 35.3937C34.7756 35.4064 34.7995 35.4192 34.6926 35.8468C34.2539 37.6017 34.573 37.2699 32.9712 37.2938C31.781 37.3114 30.5908 37.297 29.4006 37.297V37.2922Z" fill="#9F78EA"/>
<path d="M32.5596 4.75706C32.6122 4.46829 32.6649 4.18111 32.7175 3.89233C32.7909 4.16994 32.8643 4.44914 32.9393 4.72675C33.2456 5.86109 33.7849 6.8678 34.723 7.59212C36.3248 8.82857 38.3095 8.73444 39.8491 7.39109C40.409 6.90289 40.9212 6.36684 41.2881 5.70952C41.3344 5.62656 41.4221 5.56753 41.4892 5.49574C41.4828 5.58189 41.4939 5.67283 41.4668 5.751C40.902 7.39907 40.0038 8.7823 38.3797 9.56885C36.8082 10.3315 34.9192 9.85443 33.8566 8.45684C33.0254 7.36398 32.6122 6.13391 32.5596 4.75546V4.75706Z" fill="#9F78EA"/>
<path d="M36.1365 6.39217C36.1334 5.07754 37.4528 3.55072 38.7578 3.35768C39.5842 3.23483 40.283 3.91448 40.1347 4.73612C39.9113 5.97577 39.2572 6.92025 38.1101 7.48503C37.933 7.57278 37.732 7.63181 37.5357 7.65415C36.6263 7.76104 36.1381 7.31273 36.1365 6.39217Z" fill="#9F78EA"/>
<path d="M56.6457 42.0226C56.6457 41.5504 56.6505 41.0798 56.6441 40.6075C56.6425 40.4543 56.6122 40.3012 56.5963 40.148C56.5165 40.298 56.4144 40.4416 56.3633 40.5995C56.1783 41.1755 56.0139 41.7594 55.8336 42.337C55.6518 42.9145 55.4619 43.4888 55.2641 44.0616C55.2386 44.135 55.154 44.1876 55.0982 44.2515C55.0503 44.1781 54.9833 44.1111 54.9594 44.0313C54.6562 43.0214 54.3579 42.0099 54.0579 41C53.9877 40.7639 53.9144 40.5277 53.8346 40.2948C53.8154 40.239 53.7596 40.1943 53.7197 40.1448C53.7038 40.2087 53.6735 40.2725 53.6735 40.3379C53.6719 41.3925 53.6703 42.4486 53.6735 43.5032C53.6735 43.784 53.7373 44.0329 54.0101 44.1908C54.0883 44.2355 54.1266 44.3488 54.1824 44.4301C54.0787 44.4493 53.9766 44.478 53.8729 44.4844C53.7165 44.4924 53.557 44.4971 53.4022 44.478C53.2172 44.4557 53.0353 44.4094 52.8518 44.3727C52.9699 44.2818 53.123 44.2132 53.1948 44.0951C53.2937 43.9308 53.3815 43.7298 53.3847 43.5431C53.4022 42.4438 53.3959 41.343 53.3959 40.2422C53.3959 39.9295 53.2985 39.6726 52.9938 39.5226C52.9316 39.4923 52.8981 39.3998 52.8518 39.3376C52.9252 39.2961 52.9954 39.2354 53.0752 39.2195C53.1837 39.1988 53.2985 39.2115 53.4102 39.2083C54.1505 39.1972 54.1409 39.2658 54.2989 39.8417C54.5589 40.7942 54.8652 41.7323 55.1572 42.6752C55.1811 42.755 55.2338 42.8251 55.2737 42.9001C55.3375 42.8251 55.4332 42.7613 55.4603 42.6736C55.773 41.7147 56.0698 40.7495 56.3873 39.7907C56.4527 39.5928 56.5628 39.2897 56.7016 39.2578C57.0143 39.186 57.3605 39.2546 57.6923 39.2658C57.6875 39.3328 57.6987 39.4524 57.678 39.4588C57.169 39.588 57.2089 39.9885 57.2089 40.3762C57.2121 41.4084 57.1977 42.4422 57.2201 43.4745C57.2249 43.701 57.3334 43.9372 57.4371 44.1478C57.4913 44.2594 57.6365 44.3296 57.7386 44.4174C57.5854 44.4381 57.4339 44.47 57.2807 44.478C57.0573 44.4876 56.8308 44.4924 56.6074 44.478C56.4479 44.4668 56.2899 44.4222 56.1304 44.3935C56.2453 44.3057 56.3952 44.2387 56.4686 44.1254C56.5596 43.985 56.6298 43.8063 56.6362 43.642C56.6569 43.1043 56.6441 42.5651 56.6441 42.0258H56.6457V42.0226Z" fill="#9F78EA"/>
<path d="M36.8274 1.10487C37.2693 1.16709 37.7144 1.21974 38.1532 1.29951C38.2632 1.32025 38.3574 1.42555 38.4595 1.49255C38.359 1.51968 38.2585 1.56754 38.1563 1.56914C37.5357 1.57711 36.9757 1.77176 36.4237 2.04457C34.6592 2.91567 34.4007 4.86528 35.2032 6.36019C35.3197 6.57716 35.4744 6.7718 35.6021 6.9824C35.6324 7.03026 35.626 7.10205 35.6356 7.16108C35.5765 7.15311 35.5016 7.16428 35.4585 7.13396C34.4629 6.40486 33.7641 5.4843 33.5695 4.23189C33.4004 3.13903 33.7993 2.31101 34.7102 1.70634C35.3516 1.28036 36.0584 1.11125 36.8258 1.10327L36.8274 1.10487Z" fill="#9F78EA"/>
<path d="M10.0993 40.2565C10.0993 40.4591 10.1056 40.6601 10.0945 40.8611C10.0913 40.909 10.0243 40.9537 9.98757 41.0015C9.9429 40.9601 9.87749 40.9281 9.85994 40.8771C9.78495 40.6665 9.74985 40.4383 9.65572 40.2373C9.46906 39.8417 9.23453 39.4779 8.724 39.4747C8.24537 39.4715 7.89598 39.73 7.70772 40.1352C7.17804 41.2807 7.16048 42.4454 7.76355 43.567C8.18474 44.3503 9.18028 44.3902 9.72592 43.6818C9.82164 43.559 9.88865 43.4138 9.9748 43.283C9.99235 43.2575 10.0402 43.2543 10.0753 43.2415C10.0881 43.283 10.1184 43.3277 10.1088 43.3628C9.81367 44.4668 8.56765 44.9231 7.71569 44.2785C7.26897 43.9419 6.97063 43.4904 6.85576 42.948C6.60687 41.7626 6.63559 40.6266 7.5386 39.6725C8.00925 39.1764 8.57722 39.0966 9.209 39.2354C9.44034 39.2865 9.67965 39.312 9.9062 39.3774C9.98597 39.3997 10.0865 39.505 10.0961 39.5832C10.1216 39.805 10.1056 40.0315 10.1056 40.2549C10.104 40.2549 10.1024 40.2549 10.1008 40.2549L10.0993 40.2565Z" fill="#9F78EA"/>
<path d="M85.376 42.865C85.376 43.1347 85.3681 43.4043 85.3792 43.6723C85.3856 43.8031 85.4095 43.9404 85.459 44.0584C85.5212 44.2036 85.6185 44.3328 85.6999 44.47C85.5228 44.4748 85.3457 44.4796 85.1702 44.4844C85.0809 44.486 84.9899 44.4908 84.9006 44.4844C84.7746 44.4748 84.6485 44.4541 84.5225 44.4381C84.5927 44.3392 84.6852 44.2483 84.7283 44.1382C84.7841 43.9978 84.8272 43.843 84.8304 43.6947C84.8416 43.0661 84.8527 42.4375 84.8256 41.8105C84.816 41.6047 84.6916 41.4036 84.615 41.2026C84.5799 41.1085 84.5353 41.0191 84.4938 40.9282C84.5959 40.8979 84.6996 40.8389 84.8017 40.8436C84.9724 40.8516 85.2691 40.8644 85.2899 40.9378C85.4016 41.3239 85.5148 41.2233 85.7701 41.0463C86.4593 40.5708 87.056 40.8676 87.1182 41.7163C87.1629 42.3194 87.1262 42.9273 87.139 43.5319C87.1422 43.7058 87.1517 43.8973 87.2235 44.0504C87.4246 44.4748 87.4389 44.47 86.9651 44.478C86.8087 44.4812 86.6508 44.4892 86.4944 44.4732C86.4194 44.4653 86.3492 44.4094 86.2774 44.3743C86.3141 44.3233 86.3588 44.2754 86.3859 44.2196C86.4593 44.068 86.5806 43.9164 86.587 43.7601C86.6109 43.1554 86.6077 42.5491 86.5933 41.9445C86.5822 41.477 86.3812 41.2233 86.0621 41.2233C85.7334 41.2233 85.4143 41.5456 85.3713 41.9221C85.3665 41.9668 85.3681 42.0115 85.3681 42.0562C85.3681 42.3258 85.3681 42.5938 85.3681 42.8634H85.3697L85.376 42.865Z" fill="#9F78EA"/>
<path d="M49.3706 44.483C49.1903 44.483 49.01 44.4942 48.8313 44.4798C48.7308 44.4718 48.6335 44.4192 48.533 44.3873C48.6127 44.325 48.6813 44.2389 48.7723 44.2054C49.0004 44.1208 49.0706 43.9549 49.0738 43.7332C49.085 43.0152 49.1233 42.3021 48.7755 41.6256C48.5409 41.1677 48.3894 40.6683 48.1756 40.1993C48.0751 39.9791 47.9139 39.7877 47.7767 39.5851C47.7097 39.4861 47.6395 39.3888 47.5709 39.2899C47.697 39.2628 47.823 39.2197 47.9506 39.2117C48.174 39.199 48.4005 39.199 48.6239 39.2117C48.7531 39.2181 48.8808 39.2596 49.0084 39.2851C48.9318 39.3729 48.8201 39.4494 48.7882 39.5499C48.7404 39.7079 48.6909 39.9041 48.742 40.0493C48.9302 40.5774 49.1568 41.0927 49.3769 41.608C49.4088 41.6814 49.4902 41.7325 49.5477 41.7931C49.6035 41.7261 49.6769 41.6687 49.712 41.5921C49.9385 41.1039 50.1603 40.6125 50.3757 40.1179C50.4858 39.8658 50.4826 39.6377 50.2034 39.4829C50.1555 39.4558 50.1316 39.3872 50.0965 39.3378C50.1667 39.2947 50.2337 39.2197 50.3055 39.2149C50.5288 39.199 50.7554 39.199 50.9787 39.2165C51.0521 39.2229 51.1638 39.2851 51.1798 39.3441C51.1957 39.4016 51.1207 39.4925 51.0745 39.5595C50.9101 39.7956 50.7107 40.011 50.5783 40.2631C50.3087 40.78 50.0709 41.3129 49.8237 41.841C49.5237 42.4823 49.6338 43.1652 49.6641 43.8321C49.6705 43.9597 49.8763 44.081 49.9928 44.2006C50.0502 44.2596 50.1172 44.3091 50.1794 44.3633C50.0885 44.4032 50.0008 44.467 49.9066 44.4766C49.7295 44.4958 49.5477 44.4814 49.3674 44.483H49.3706Z" fill="#9F78EA"/>
<path d="M75.8018 41.3622C76.1145 40.7447 76.5676 40.633 77.0574 41.1005C77.2616 41.2951 77.3733 41.3621 77.5887 41.134C77.7036 41.0128 77.8855 40.9362 78.0514 40.8819C78.4199 40.7607 78.7374 40.8867 78.8778 41.2393C78.9751 41.4834 79.0246 41.7578 79.0374 42.0211C79.0613 42.5348 79.0438 43.0517 79.0469 43.567C79.0469 43.701 79.0278 43.8478 79.0725 43.9659C79.1331 44.1222 79.2496 44.2562 79.3437 44.3998C79.106 44.427 78.8683 44.4541 78.6289 44.478C78.5619 44.4844 78.4949 44.4812 78.4279 44.4748C78.2397 44.4589 78.1024 44.4413 78.3035 44.2116C78.4104 44.0919 78.4917 43.9068 78.4981 43.7473C78.5204 43.1426 78.5204 42.5364 78.5029 41.9317C78.4901 41.4483 78.2923 41.2122 77.9636 41.2233C77.635 41.2361 77.3255 41.5536 77.3111 41.9541C77.2904 42.5364 77.2904 43.1203 77.3143 43.7026C77.3207 43.8622 77.4068 44.0441 77.5121 44.1685C77.7339 44.4317 77.5648 44.4557 77.3574 44.4716C77.2457 44.4796 77.134 44.4748 77.0207 44.4748C76.5948 44.4684 76.5995 44.47 76.7176 44.0664C76.7479 43.9611 76.7591 43.8462 76.7591 43.7361C76.7623 43.1091 76.7767 42.4805 76.7543 41.8535C76.7336 41.2632 76.5661 41.1548 75.9917 41.3015C75.9263 41.3175 75.8609 41.3318 75.7955 41.3478L75.805 41.359L75.8018 41.3622Z" fill="#9F78EA"/>
<path d="M16.3358 42.8922C16.3358 43.1619 16.3326 43.4315 16.3358 43.7011C16.3374 43.8128 16.331 43.9356 16.3741 44.0314C16.4347 44.1654 16.5384 44.2818 16.6245 44.4047C16.4283 44.4302 16.2337 44.4589 16.0374 44.4781C15.9481 44.4876 15.8555 44.4924 15.7678 44.4781C15.6657 44.4605 15.5684 44.419 15.4695 44.3887C15.5221 44.3233 15.5907 44.2643 15.6226 44.1893C15.6896 44.033 15.779 43.8686 15.7838 43.7059C15.8029 43.122 15.8013 42.538 15.7869 41.9541C15.7742 41.4755 15.5843 41.233 15.262 41.225C14.9079 41.217 14.5776 41.5537 14.5648 41.9828C14.5473 42.5668 14.5457 43.1523 14.568 43.7346C14.5744 43.8942 14.6574 44.0792 14.7659 44.1989C14.9318 44.3839 14.919 44.4589 14.6749 44.4765C14.5186 44.4876 14.3606 44.4813 14.2027 44.4813C13.7863 44.4781 13.7895 44.4781 13.965 44.0649C13.9985 43.9851 14.0144 43.891 14.016 43.8032C14.0208 43.106 14.016 42.4104 14.0208 41.7132C14.0224 41.4643 13.9187 41.2904 13.7225 41.1452C13.6778 41.1117 13.6539 40.9634 13.6858 40.9251C13.8357 40.748 14.4627 40.8309 14.5393 41.0639C14.6303 41.3431 14.7068 41.2489 14.844 41.1229C15.4487 40.5677 16.1555 40.7528 16.307 41.7483C16.3629 42.1216 16.3166 42.5109 16.3166 42.8922C16.323 42.8922 16.3294 42.8922 16.3342 42.8922H16.3358Z" fill="#9F78EA"/>
<path d="M38.4547 42.865C38.4547 43.1346 38.4403 43.4043 38.4611 43.6723C38.4722 43.8207 38.5233 43.9754 38.5967 44.1047C38.6557 44.2116 38.7738 44.2849 38.8663 44.3743C38.7259 44.411 38.5887 44.462 38.4467 44.478C38.2696 44.4987 38.0877 44.4987 37.9091 44.4907C37.8069 44.4876 37.7048 44.4525 37.6027 44.4317C37.6602 44.3488 37.7336 44.2738 37.7734 44.1828C37.8325 44.0472 37.9043 43.902 37.9075 43.7584C37.9218 43.0628 37.925 42.3672 37.9075 41.6716C37.9027 41.5073 37.8133 41.343 37.7495 41.1834C37.7144 41.0957 37.6522 41.0175 37.6011 40.9361C37.7064 40.9138 37.8101 40.8755 37.917 40.8723C38.1452 40.8628 38.4371 40.7367 38.4738 41.142C38.477 41.1707 38.5967 41.2169 38.6525 41.2074C38.7099 41.1978 38.7514 41.1212 38.8073 41.0845C39.5507 40.574 40.0916 40.8037 40.208 41.7179C40.2814 42.2939 40.2767 42.8794 40.307 43.4601C40.3165 43.6388 40.2974 43.8255 40.3421 43.9946C40.4665 44.4764 40.4777 44.4748 40.0166 44.4828C39.9049 44.4844 39.79 44.4939 39.68 44.4796C39.5763 44.4668 39.4758 44.4269 39.372 44.3982C39.4438 44.3264 39.53 44.2642 39.5858 44.1812C39.6576 44.0791 39.7534 43.9611 39.7566 43.8494C39.7725 43.1985 39.7805 42.5475 39.7597 41.8982C39.7454 41.4818 39.538 41.2488 39.238 41.2249C38.9158 41.201 38.6047 41.4387 38.4962 41.7945C38.477 41.8583 38.4643 41.9269 38.4627 41.9923C38.4595 42.2843 38.4627 42.5762 38.4627 42.8666C38.4627 42.8666 38.4611 42.8666 38.4595 42.8666L38.4547 42.865Z" fill="#9F78EA"/>
<path d="M70.403 42.8459C70.403 43.1156 70.3839 43.3868 70.4094 43.6548C70.4254 43.8239 70.5003 43.9898 70.5658 44.1494C70.6104 44.2595 70.687 44.3568 70.7492 44.4605C70.6407 44.4685 70.5307 44.4812 70.4222 44.4828C70.2419 44.486 70.0632 44.4796 69.8829 44.4812C69.5415 44.4812 69.4458 44.4206 69.7473 44.1366C69.851 44.0393 69.8526 43.808 69.8574 43.6357C69.8701 43.0517 69.859 42.4678 69.8638 41.8839C69.8654 41.6095 69.8414 41.3654 69.6133 41.1516C69.425 40.9745 69.4904 40.8501 69.7649 40.8469C69.9579 40.8453 70.3009 40.866 70.3185 40.9394C70.4525 41.4946 70.6344 41.142 70.8338 41.0016C71.4289 40.582 72.0559 40.8692 72.1404 41.627C72.1979 42.1376 72.158 42.6593 72.1771 43.1762C72.1931 43.5655 72.0511 43.9994 72.4499 44.3026C72.4563 44.3073 72.3893 44.4621 72.351 44.4653C72.083 44.4828 71.8118 44.4876 71.5438 44.4796C71.4656 44.478 71.3906 44.4222 71.3124 44.3903C71.3651 44.3265 71.4289 44.2674 71.4672 44.1956C71.5549 44.0233 71.6905 43.8478 71.7001 43.6692C71.7304 43.1092 71.7113 42.546 71.7081 41.9844C71.7081 41.9397 71.7001 41.8951 71.6921 41.8504C71.6107 41.4005 71.4464 41.2202 71.1226 41.2234C70.7732 41.2266 70.4461 41.5201 70.4126 41.9046C70.3855 42.2173 70.4078 42.5332 70.4078 42.8475H70.4046L70.403 42.8459Z" fill="#9F78EA"/>
<path d="M62.067 42.8508C62.067 43.1204 62.0558 43.39 62.0718 43.6581C62.0798 43.7889 62.1148 43.9277 62.1771 44.041C62.2489 44.1686 62.3653 44.2723 62.4611 44.3872C62.2728 44.4191 62.0845 44.459 61.8947 44.4781C61.7623 44.4925 61.6251 44.4877 61.491 44.4749C61.3411 44.4606 61.1847 44.3792 61.3602 44.2388C61.6155 44.033 61.6011 43.7761 61.6011 43.5081C61.6027 43.0135 61.6107 42.5205 61.5979 42.0259C61.5884 41.6925 61.59 41.3479 61.2757 41.1118C61.2358 41.0815 61.2214 40.9379 61.2501 40.9123C61.4448 40.748 61.9601 40.8262 62.0415 41.0671C62.1324 41.3415 62.2217 41.2474 62.359 41.1405C62.4467 41.0719 62.5344 40.9985 62.6334 40.9442C63.1152 40.6794 63.597 40.8437 63.7661 41.3686C63.8618 41.6622 63.8953 41.9829 63.9113 42.294C63.9352 42.7423 63.9161 43.1922 63.9209 43.6405C63.9209 43.7745 63.9161 43.9181 63.9623 44.0378C64.0134 44.1718 64.1171 44.2851 64.1985 44.4079C64.0262 44.4318 63.8523 44.4638 63.6784 44.4797C63.5444 44.4909 63.4071 44.4941 63.2747 44.4797C63.1726 44.4685 63.0753 44.4255 62.9764 44.3967C63.0338 44.3345 63.1104 44.2819 63.1471 44.2101C63.2332 44.0394 63.3545 43.8607 63.3625 43.6804C63.3896 43.1204 63.3864 42.5572 63.3689 41.9972C63.3529 41.4867 63.1375 41.2139 62.8057 41.2219C62.4467 41.2298 62.1308 41.5553 62.0734 41.9765C62.067 42.0212 62.067 42.0658 62.067 42.1105C62.067 42.3578 62.067 42.6051 62.067 42.8508Z" fill="#9F78EA"/>
<path d="M26.6023 42.3943C26.6023 42.7756 26.5735 43.1601 26.6134 43.5366C26.6342 43.7377 26.7714 43.9275 26.8639 44.119C26.9054 44.2051 26.966 44.2833 27.0171 44.3647C26.9357 44.3918 26.8559 44.4285 26.773 44.4428C26.6852 44.4588 26.5815 44.4811 26.5065 44.4492C26.1029 44.2785 25.7535 44.32 25.3546 44.5386C25.0116 44.7252 24.525 44.4173 24.4357 43.9897C24.3463 43.5558 24.3352 43.1043 24.3096 42.6592C24.2921 42.3464 24.3208 42.0306 24.2985 41.7179C24.2857 41.5487 24.2155 41.3812 24.1549 41.2185C24.115 41.1148 24.0448 41.0222 23.989 40.9249C24.1629 40.8978 24.3384 40.8404 24.5091 40.8531C24.6144 40.8611 24.7627 40.9568 24.7978 41.0494C24.8521 41.1882 24.8281 41.3573 24.8281 41.5136C24.8297 42.1406 24.8154 42.7692 24.8313 43.3962C24.8441 43.9179 25.0435 44.1716 25.3881 44.17C25.7647 44.17 26.1013 43.8701 26.122 43.4393C26.1523 42.8362 26.1396 42.23 26.1268 41.6253C26.1236 41.5009 26.0566 41.3716 25.996 41.2568C25.9322 41.1371 25.8412 41.0318 25.7615 40.9201C25.9577 40.8962 26.1603 40.8308 26.3454 40.8659C26.4459 40.885 26.5767 41.0685 26.5847 41.1866C26.615 41.587 26.5959 41.9923 26.5959 42.3959H26.5975L26.6023 42.3943Z" fill="#9F78EA"/>
<path d="M38.6174 2.94137C37.5947 3.03072 36.7571 3.47265 36.2115 4.3948C36.0982 4.58625 36.0169 4.79844 35.9148 4.99786C35.8813 5.06487 35.827 5.12072 35.7823 5.18294C35.7712 5.11753 35.7504 5.05212 35.7504 4.98671C35.7536 4.06296 36.0823 3.26524 36.7811 2.66696C38.0095 1.61398 39.9879 2.03517 40.7313 3.48221C40.7569 3.53167 40.7441 3.60347 40.7489 3.66409C40.6899 3.65133 40.6117 3.65771 40.5734 3.62261C40.0246 3.12963 39.3513 2.99402 38.6206 2.94297L38.6174 2.94137Z" fill="#9F78EA"/>
<path d="M59.6083 42.4343C59.9641 42.1504 59.9625 41.7786 59.8189 41.4053C59.7232 41.1548 59.4998 41.0368 59.219 41.0798C58.9558 41.1213 58.951 41.3112 58.9302 41.5297C58.9159 41.6877 58.8106 41.8408 58.7244 41.9828C58.7149 42.0004 58.5473 41.9653 58.5011 41.9126C58.324 41.71 58.3798 41.4962 58.5266 41.3016C58.8042 40.9315 59.1696 40.748 59.637 40.8293C60.1013 40.9107 60.3374 41.2442 60.3853 41.6685C60.4411 42.1551 60.4172 42.6513 60.4252 43.1427C60.4283 43.3661 60.4124 43.5926 60.4363 43.8128C60.4491 43.934 60.5113 44.0601 60.5799 44.1638C60.6437 44.2595 60.7474 44.3281 60.8352 44.4079C60.6724 44.4621 60.5129 44.5259 60.347 44.5626C60.2959 44.5738 60.205 44.5275 60.1731 44.4813C59.9768 44.1973 59.7997 44.2324 59.5142 44.4031C59.002 44.7078 58.6478 44.6201 58.4085 44.2276C58.1501 43.8064 58.2107 43.1507 58.6016 42.8827C58.9047 42.6752 59.2812 42.5715 59.6242 42.4232C59.4743 42.5508 59.286 42.6545 59.1823 42.8125C59.0308 43.0454 58.8856 43.307 58.8345 43.5751C58.7755 43.8894 58.9813 44.1143 59.2525 44.1558C59.5365 44.1989 59.8396 43.9963 59.8699 43.6788C59.9035 43.3262 59.8827 42.9672 59.854 42.613C59.8492 42.546 59.696 42.4918 59.6099 42.4311L59.6083 42.4343Z" fill="#9F78EA"/>
<path d="M13.247 42.5526C13.1512 43.1907 13.0826 43.7013 12.7332 44.1193C12.1972 44.7606 11.3963 44.7351 10.9161 44.0618C10.4103 43.3535 10.3688 42.1904 10.8203 41.4485C11.0581 41.0576 11.4027 40.8024 11.8605 40.8183C12.3328 40.8343 12.7317 41.0529 12.9135 41.5219C13.0571 41.8921 13.1608 42.2797 13.247 42.551V42.5526ZM11.007 42.6323C11.0836 43.0551 11.1203 43.4125 11.216 43.7523C11.3341 44.1719 11.5431 44.3283 11.8589 44.3171C12.1557 44.3059 12.4221 44.1129 12.4812 43.7172C12.5609 43.1955 12.5705 42.6579 12.5641 42.1282C12.5609 41.8921 12.47 41.648 12.3775 41.4262C12.2754 41.1805 12.0536 41.013 11.7903 41.0896C11.6021 41.1438 11.366 41.297 11.3006 41.4645C11.1506 41.8522 11.0916 42.2734 11.007 42.6339V42.6323Z" fill="#9F78EA"/>
<path d="M91.2393 40.8099C91.8328 40.802 92.329 41.2662 92.5093 41.9475C92.6528 42.4819 92.6034 43.0116 92.4694 43.5333C92.3274 44.0853 91.7674 44.564 91.2856 44.5895C90.7878 44.6166 90.2884 44.2146 90.0826 43.5892C89.8433 42.8601 89.8337 42.1389 90.2374 41.4529C90.4687 41.0604 90.8117 40.8371 91.2393 40.8083V40.8099ZM92.0322 42.7452C91.9812 42.3256 91.9652 41.9666 91.887 41.622C91.82 41.3285 91.6429 41.1035 91.2935 41.0764C90.9298 41.0477 90.7559 41.271 90.6585 41.5566C90.3889 42.3431 90.4065 43.1329 90.7016 43.9098C90.7942 44.1524 90.9633 44.3215 91.2537 44.3183C91.568 44.3151 91.769 44.1444 91.8376 43.862C91.9317 43.4759 91.978 43.0802 92.0354 42.7436L92.0322 42.7452Z" fill="#9F78EA"/>
<path d="M37.1768 42.6753C37.0747 43.0598 37.0252 43.4698 36.8609 43.8256C36.4269 44.7605 35.441 44.8387 34.8219 44.0186C34.3433 43.3836 34.2524 41.919 34.9942 41.1453C35.4059 40.7145 36.0999 40.7113 36.5641 41.1341C37.0156 41.5457 37.1193 42.0834 37.1768 42.6753ZM35.0261 42.7487C35.0628 43.0406 35.0772 43.4235 35.1665 43.7889C35.2367 44.0793 35.4282 44.309 35.7776 44.3218C36.1382 44.3345 36.2993 44.0984 36.395 43.8096C36.628 43.1124 36.6311 42.3993 36.4493 41.6941C36.3312 41.2362 36.1078 41.0559 35.7776 41.0687C35.4665 41.0799 35.2048 41.3096 35.1171 41.7276C35.0533 42.0307 35.0597 42.3482 35.0261 42.7487Z" fill="#9F78EA"/>
<path d="M43.4356 42.0659C43.4436 42.4807 43.4069 42.5254 42.9841 42.5461C42.6922 42.5605 42.4002 42.5413 42.1082 42.5557C41.7126 42.5732 41.652 42.6466 41.6583 43.0471C41.6583 43.1364 41.6647 43.2274 41.6855 43.3151C41.7684 43.6741 41.8849 44.0155 42.2885 44.1383C42.6906 44.2612 42.9825 44.0953 43.2187 43.7746C43.2553 43.7251 43.3415 43.7092 43.4037 43.6789C43.3989 43.7427 43.4117 43.8145 43.3862 43.8703C43.1995 44.3059 42.8358 44.5308 42.3922 44.5755C41.9567 44.6202 41.6105 44.408 41.3887 44.0235C40.9308 43.2258 40.9037 42.4057 41.2914 41.5745C41.5706 40.9778 42.038 40.7162 42.5757 40.8406C43.0862 40.9587 43.4229 41.4405 43.434 42.0659H43.4356ZM42.2502 42.2829C42.8023 42.2892 42.8804 42.2446 42.8772 41.9175C42.8725 41.4134 42.6411 41.0719 42.2997 41.0687C41.9439 41.0656 41.6711 41.407 41.6615 41.8712C41.6536 42.2254 41.7253 42.2749 42.2502 42.2829Z" fill="#9F78EA"/>
<path d="M83.0627 42.5397C82.0736 42.5493 82.0145 42.6243 82.324 43.497C82.5937 44.2596 83.1441 44.3872 83.7376 43.8288C83.7918 43.7778 83.8748 43.7587 83.945 43.7236C83.9338 43.8033 83.9482 43.899 83.9083 43.9597C83.3323 44.8132 82.3129 44.7877 81.8582 43.8783C81.4386 43.0423 81.4785 42.1824 81.9778 41.3799C82.3161 40.8374 82.7915 40.6875 83.2973 40.9092C83.7823 41.1214 84.1492 41.8138 84.0088 42.302C83.9817 42.3993 83.8381 42.511 83.7344 42.527C83.5158 42.5621 83.2877 42.5382 83.0643 42.5382L83.0627 42.5397ZM82.8266 42.2813C83.3882 42.2829 83.4568 42.2446 83.4552 41.9223C83.4536 41.4341 83.2111 41.0799 82.8761 41.0751C82.5362 41.0704 82.1996 41.4836 82.1757 41.9319C82.1613 42.2127 82.2857 42.2797 82.8266 42.2813Z" fill="#9F78EA"/>
<path d="M66.6107 42.7027C66.6426 42.1666 66.7814 41.6513 67.1228 41.2158C67.4562 40.7882 67.9684 40.702 68.447 40.9605C68.8442 41.1759 69.1873 41.905 69.0245 42.2847C68.9719 42.4075 68.7629 42.5176 68.6129 42.5352C68.2811 42.5751 67.9428 42.5432 67.6078 42.5591C67.2408 42.5767 67.1675 42.6612 67.2137 43.009C67.2377 43.1861 67.2807 43.3616 67.3382 43.5307C67.5886 44.2566 68.2555 44.3843 68.774 43.8099C68.8044 43.7764 68.8155 43.7222 68.8506 43.7014C68.8969 43.6743 68.9559 43.6711 69.0102 43.6583C69.0181 43.6998 69.0437 43.7493 69.0309 43.7828C68.8554 44.204 68.5379 44.4784 68.0944 44.5645C67.6844 44.6443 67.343 44.4752 67.0877 44.1593C66.7511 43.7413 66.6537 43.2372 66.6107 42.7043V42.7027ZM67.8535 42.2847C68.4151 42.2879 68.4853 42.2496 68.4933 41.9369C68.5044 41.471 68.2587 41.0929 67.9365 41.077C67.595 41.061 67.2249 41.487 67.2217 41.9002C67.2201 42.1954 67.3621 42.2815 67.8535 42.2847Z" fill="#9F78EA"/>
<path d="M43.8409 43.7044C43.8409 43.7139 43.8249 43.6198 43.8457 43.5352C43.8632 43.4619 43.9222 43.398 43.9637 43.3294C44.0164 43.3901 44.0818 43.4459 44.1217 43.5145C44.2206 43.6884 44.2908 43.8814 44.4041 44.0458C44.5748 44.2931 44.8332 44.3569 45.1188 44.3042C45.3693 44.2596 45.5145 44.0936 45.5464 43.8495C45.5831 43.564 45.4969 43.3071 45.2433 43.1507C44.9768 42.9864 44.6785 42.8747 44.4216 42.6976C43.8345 42.2924 43.8058 41.5027 44.3386 41.0272C44.6466 40.7528 44.9816 40.8039 45.3486 40.8852C45.8368 40.9937 45.8479 40.973 45.8352 41.4452C45.832 41.5681 45.7809 41.6893 45.7522 41.8106C45.6804 41.7149 45.6054 41.6191 45.5368 41.5218C45.4985 41.4676 45.473 41.4038 45.4379 41.3463C45.3055 41.1341 45.0981 41.0129 44.8715 41.0831C44.7008 41.1373 44.511 41.2809 44.4312 41.4357C44.3099 41.6718 44.3977 41.9414 44.6131 42.0946C44.8476 42.2621 45.1252 42.3674 45.3789 42.5094C45.9564 42.8364 46.1239 43.3183 45.8766 43.9261C45.6644 44.4478 45.1571 44.6871 44.6226 44.5116C44.5173 44.4765 44.42 44.4095 44.3131 44.3808C43.8361 44.2564 43.8361 44.2596 43.8425 43.698L43.8409 43.7044Z" fill="#9F78EA"/>
<path d="M17.1079 43.8255C17.0951 43.6899 17.0744 43.5989 17.0824 43.5112C17.0872 43.4537 17.1302 43.3995 17.1574 43.3421C17.2052 43.3756 17.2706 43.3995 17.2978 43.4458C17.3759 43.5814 17.4302 43.7298 17.5084 43.8654C17.7333 44.2515 17.9886 44.3871 18.322 44.3025C18.5613 44.2419 18.7033 44.0871 18.7416 43.8382C18.7943 43.4825 18.6714 43.283 18.2534 43.0517C18.0189 42.9225 17.7652 42.8172 17.5578 42.6528C17.068 42.262 17.0106 41.6445 17.3903 41.1643C17.6009 40.8979 17.8689 40.7655 18.2135 40.8277C18.3236 40.8468 18.4417 40.9314 18.5342 40.9074C18.9458 40.7958 19.0591 40.9745 19.008 41.3462C18.9873 41.4962 18.9729 41.6461 18.9554 41.7961C18.874 41.6812 18.7831 41.5696 18.7097 41.4499C18.4847 41.0798 18.1098 40.9585 17.8067 41.1643C17.561 41.3302 17.4796 41.6972 17.6711 41.9333C17.7796 42.0673 17.9439 42.1598 18.0939 42.2508C18.2853 42.3657 18.5007 42.4422 18.6826 42.5683C19.174 42.9081 19.308 43.5303 19.0208 44.0504C18.7624 44.5211 18.271 44.6774 17.695 44.4732C17.6743 44.4652 17.6551 44.4509 17.6328 44.4477C17.2579 44.3807 16.9436 44.2674 17.1047 43.8255H17.1079Z" fill="#9F78EA"/>
<path d="M21.3454 41.0991C21.138 41.1597 21.0391 41.2172 20.9449 41.2124C20.5844 41.19 20.4807 41.3687 20.4871 41.7006C20.5014 42.3276 20.4823 42.9546 20.495 43.5816C20.5046 44.0458 20.5174 44.0427 21.0199 44.1751C21.0885 44.1926 21.146 44.258 21.2082 44.3011C21.1651 44.349 21.1316 44.4112 21.0774 44.4415C20.5174 44.7606 20.0164 44.5293 19.9701 43.8911C19.9239 43.2449 19.9558 42.594 19.9462 41.9447C19.9414 41.624 20.0515 41.2395 19.549 41.1629C19.5378 41.1613 19.5362 40.9683 19.5474 40.9667C19.9239 40.9029 19.9829 40.6492 19.967 40.3237C19.9558 40.1115 19.9143 39.8052 20.2238 39.802C20.5333 39.7988 20.503 40.1083 20.4871 40.3173C20.4552 40.7401 20.6051 40.9555 21.0502 40.9332C21.1141 40.93 21.1811 41.0034 21.347 41.1007L21.3454 41.0991Z" fill="#9F78EA"/>
<path d="M64.9785 42.7392C64.9785 42.3579 64.9785 41.9782 64.9785 41.5969C64.9785 41.3991 64.9291 41.2555 64.7025 41.2076C64.5031 41.1662 64.3866 41.0226 64.6546 40.9412C64.9721 40.8455 65.0072 40.6477 64.9992 40.3844C64.9961 40.2504 64.9817 40.1084 65.0216 39.9856C65.0487 39.901 65.1588 39.7893 65.2338 39.7893C65.3151 39.7893 65.4396 39.8834 65.4715 39.9664C65.5194 40.0845 65.5082 40.2281 65.5082 40.3621C65.5098 40.8375 65.5082 40.8327 65.9948 40.93C66.0793 40.9476 66.1511 41.0306 66.2277 41.0832C66.1575 41.1263 66.0841 41.2092 66.0155 41.206C65.5736 41.1773 65.5002 41.423 65.5146 41.7948C65.5353 42.3532 65.5146 42.9147 65.5241 43.4731C65.5321 44.0299 65.5385 44.0299 66.0794 44.1815C66.1384 44.1975 66.191 44.2373 66.2469 44.2661C66.1942 44.3299 66.1559 44.4192 66.0889 44.4559C65.489 44.775 64.953 44.4463 64.9785 43.8193C64.9929 43.462 64.9817 43.103 64.9817 42.744H64.9769L64.9785 42.7392Z" fill="#9F78EA"/>
<path d="M27.3585 42.8062C27.4542 42.0547 27.5595 41.4405 28.1211 41.0273C28.4131 40.8119 28.7258 40.7337 29.0688 40.8837C29.4406 41.0448 29.5714 41.3799 29.6304 41.7436C29.6655 41.9622 29.5762 42.1855 29.3448 42.1887C29.2347 42.1887 29.0991 41.9813 29.0194 41.8425C28.9715 41.758 29.0305 41.6192 29.005 41.5123C28.9715 41.3735 28.9125 41.1358 28.8455 41.1294C28.6652 41.1118 28.4753 41.1932 28.2903 41.2395C28.2727 41.2442 28.2631 41.273 28.2488 41.2905C27.8228 41.8154 27.8499 43.3997 28.2918 43.9214C28.595 44.2787 28.9587 44.2548 29.3751 43.8559C29.4358 43.7985 29.5107 43.7538 29.5777 43.7028C29.5666 43.8001 29.5841 43.915 29.5363 43.99C29.3113 44.3569 28.9763 44.6026 28.5439 44.5691C28.1147 44.5356 27.7861 44.258 27.6345 43.8607C27.4925 43.4906 27.4303 43.0886 27.3585 42.8062Z" fill="#9F78EA"/>
<path d="M88.5413 39.7272C88.6211 39.8165 88.7104 39.8724 88.7248 39.9426C88.7567 40.0941 88.7647 40.2537 88.7583 40.4084C88.7455 40.7291 88.846 40.9253 89.2082 40.9253C89.2991 40.9253 89.3901 41.0067 89.4826 41.0514C89.3996 41.104 89.3135 41.2061 89.2353 41.2014C88.8269 41.171 88.7455 41.3864 88.7567 41.7374C88.7743 42.2974 88.7567 42.859 88.7647 43.419C88.7742 44.0157 88.7934 44.0252 89.3725 44.1736C89.4395 44.1912 89.4938 44.2598 89.5528 44.3044C89.505 44.3491 89.4651 44.4066 89.4092 44.4337C88.7742 44.7512 88.3403 44.5613 88.2605 43.8481C88.1855 43.1829 88.2238 42.5064 88.2111 41.8331C88.2063 41.5476 88.2701 41.2221 87.8425 41.1694C87.8569 41.0897 87.8664 40.9397 87.8856 40.9381C88.3036 40.9126 88.3148 40.6254 88.3068 40.3159C88.3036 40.1835 88.31 40.0447 88.3451 39.9186C88.3642 39.8516 88.4568 39.8054 88.5397 39.7256L88.5413 39.7272Z" fill="#9F78EA"/>
<path d="M30.5637 42.6066C30.6451 42.9496 30.6818 43.3133 30.819 43.634C31.103 44.2913 31.5306 44.3488 32.0634 43.8494C32.1241 43.792 32.199 43.7505 32.2692 43.7026C32.2517 43.7999 32.2644 43.918 32.2118 43.9914C31.5992 44.8402 30.7121 44.7588 30.2766 43.8015C29.9319 43.0421 29.9782 42.2715 30.3372 41.5265C30.4983 41.193 30.7632 40.9489 31.1333 40.85C31.7731 40.6777 32.3841 41.2473 32.2325 41.8886C32.207 41.9955 32.0762 42.0769 31.9932 42.1694C31.8911 42.0737 31.7603 41.9923 31.6965 41.8743C31.6502 41.7897 31.6917 41.6557 31.6933 41.544C31.6981 41.3637 31.7252 41.1659 31.4955 41.0989C31.2561 41.0303 31.0136 41.0877 30.9083 41.3047C30.7759 41.5807 30.7073 41.8886 30.6323 42.1902C30.6004 42.3162 30.6275 42.4582 30.6275 42.5922C30.6052 42.597 30.5845 42.6018 30.5621 42.6066H30.5637Z" fill="#9F78EA"/>
<path d="M22.3361 44.483C22.2468 44.483 22.1558 44.4862 22.0665 44.483C21.6884 44.4686 21.6964 44.4718 21.8766 44.148C21.9373 44.0379 21.9772 43.8991 21.9788 43.773C21.9883 43.0774 21.9883 42.3834 21.9788 41.6878C21.9772 41.5602 21.9181 41.4325 21.8782 41.3065C21.8352 41.1693 21.473 41.072 21.7347 40.9268C21.9213 40.8231 22.2276 40.9332 22.4797 40.9475C22.5371 41.3671 22.7047 41.1502 22.8818 41.0273C23.3141 40.729 23.6619 40.8454 23.6938 41.3129C23.7034 41.4501 23.5502 41.5985 23.4721 41.7405C23.362 41.6527 23.1769 41.5793 23.1578 41.4756C23.0955 41.131 22.9328 41.2459 22.8179 41.3943C22.6887 41.5618 22.5515 41.7708 22.5387 41.9686C22.5036 42.5717 22.51 43.1795 22.5387 43.7842C22.5451 43.9278 22.6919 44.0698 22.7828 44.2054C22.8371 44.2868 22.9121 44.3538 22.9775 44.4272C22.877 44.4495 22.7765 44.4814 22.6744 44.4926C22.5643 44.5037 22.451 44.4958 22.3393 44.4958C22.3393 44.491 22.3393 44.4878 22.3393 44.483H22.3361Z" fill="#9F78EA"/>
<path d="M33.6014 42.5528C33.6014 42.9102 33.5966 43.2676 33.6046 43.6266C33.6077 43.7574 33.6173 43.8994 33.6684 44.0174C33.7258 44.1498 33.8327 44.2615 33.9172 44.3812C33.729 44.4147 33.5407 44.4546 33.3509 44.4801C33.2631 44.4929 33.1722 44.4881 33.0828 44.4801C32.9026 44.4626 32.5803 44.5407 32.9185 44.1929C33.0238 44.086 33.0477 43.8675 33.0525 43.6999C33.0669 43.0522 33.0589 42.4029 33.0589 41.7551C33.0589 41.5302 33.0557 41.3148 32.8308 41.1632C32.6058 41.0117 32.7255 40.9048 32.9137 40.8601C33.4354 40.7357 33.587 40.8601 33.5966 41.4137C33.603 41.7934 33.5966 42.1731 33.5966 42.5544H33.5998L33.6014 42.5528Z" fill="#9F78EA"/>
<path d="M80.7844 42.5078C80.7844 42.8892 80.7653 43.272 80.7924 43.6518C80.8052 43.8368 80.8626 44.0474 80.9727 44.191C81.1211 44.3841 81.1163 44.4606 80.8738 44.475C80.6728 44.4878 80.4701 44.4862 80.2675 44.4782C79.9436 44.467 79.9564 44.4686 80.1271 44.1495C80.1973 44.0203 80.234 43.8576 80.2372 43.7092C80.2484 43.0583 80.2564 42.4073 80.2324 41.7564C80.226 41.5729 80.1335 41.3783 80.0378 41.214C79.8766 40.9411 79.8862 40.8837 80.1782 40.8454C80.6775 40.7784 80.7733 40.855 80.7844 41.3607C80.7924 41.742 80.786 42.1233 80.786 42.5062L80.7844 42.5078Z" fill="#9F78EA"/>
<path d="M73.8954 42.5188C73.8954 42.9001 73.8826 43.283 73.9018 43.6627C73.9098 43.8302 73.9353 44.0456 74.0406 44.1509C74.3006 44.4094 74.2256 44.4748 73.9129 44.478C73.7327 44.4796 73.554 44.486 73.3737 44.4748C73.2668 44.4684 73.1599 44.4317 73.053 44.4078C73.1152 44.3216 73.1982 44.245 73.2333 44.1493C73.2923 43.9866 73.3482 43.8143 73.3529 43.6452C73.3673 43.0389 73.3705 42.4327 73.3513 41.8264C73.345 41.6365 73.2716 41.4419 73.1966 41.2648C73.1455 41.1435 73.0387 41.0446 72.9557 40.9361C73.1727 40.9058 73.396 40.8372 73.6066 40.8628C73.7103 40.8755 73.8635 41.0574 73.8715 41.1707C73.9018 41.6174 73.8842 42.0673 73.8842 42.5156C73.8874 42.5156 73.8922 42.5156 73.8954 42.5156V42.5188Z" fill="#9F78EA"/>
<path d="M75.7923 41.3495C75.5945 41.6877 75.5243 42.0515 75.5466 42.444C75.5674 42.8013 75.5498 43.1603 75.5514 43.5193C75.5514 43.631 75.5323 43.7538 75.5706 43.8527C75.644 44.0458 75.7525 44.2261 75.8466 44.4111C75.5594 44.4335 75.2738 44.4749 74.9867 44.4718C74.7777 44.4718 74.7091 44.392 74.875 44.1846C74.9899 44.0426 75.0696 43.8352 75.0776 43.6517C75.1031 43.0933 75.0951 42.5317 75.084 41.9717C75.0776 41.659 75.0648 41.3415 74.7553 41.1341C74.7154 41.1086 74.7378 40.898 74.7537 40.8948C74.9276 40.8645 75.1063 40.8549 75.2834 40.847C75.5466 40.8342 75.5163 41.0607 75.5913 41.2107C75.6248 41.2777 75.7285 41.3112 75.8003 41.3591L75.7908 41.3479L75.7923 41.3495Z" fill="#9F78EA"/>
<path d="M33.3241 39.742C33.0894 39.7212 33.0399 39.5551 33.0287 39.3635C33.0127 39.0729 33.1916 38.7792 33.3337 38.8654C33.4822 38.9548 33.6227 39.148 33.6562 39.3172C33.6945 39.5168 33.5748 39.7084 33.3241 39.7435V39.742Z" fill="#9F78EA"/>
<path d="M80.911 39.2709C80.7418 39.4641 80.646 39.6413 80.4991 39.7196C80.3506 39.7978 80.076 39.488 80.1431 39.2805C80.1957 39.116 80.3666 38.9899 80.4847 38.8462C80.6109 38.9707 80.7354 39.0953 80.911 39.2693V39.2709Z" fill="#9F78EA"/>
<path d="M74.0204 39.3383C73.8208 39.5076 73.6899 39.7088 73.5462 39.7167C73.3163 39.7311 73.1917 39.4964 73.2492 39.292C73.2955 39.1308 73.4696 39.0062 73.5877 38.8657C73.7123 39.0014 73.8352 39.1372 74.0204 39.3383Z" fill="#9F78EA"/>
</svg>
