<svg width="142" height="38" viewBox="0 0 142 38" fill="none" xmlns="http://www.w3.org/2000/svg">
<path d="M13.0238 1.2745C16.2202 1.05291 19.1144 2.47873 21.9235 4.1754C22.6957 4.64097 23.0494 5.2319 22.8882 6.21005C22.4585 8.81997 22.1451 11.4478 21.7444 14.0622C21.6907 14.4114 21.3952 14.7247 21.2117 15.056C20.9767 14.7247 20.5961 14.4181 20.5312 14.0555C20.0746 11.5261 19.6493 8.98784 19.2912 6.44284C19.1882 5.70867 18.8659 5.31024 18.2257 5.03716C15.4569 3.85755 12.5605 3.55761 9.67749 4.25822C5.05978 5.37963 4.14653 10.4965 5.98422 13.4466C6.53037 14.3218 7.62717 14.9866 8.61652 15.4253C12.0927 16.9608 15.6539 18.3016 19.1323 19.8259C20.9274 20.6138 22.4831 21.8315 23.4612 23.5774C25.6817 27.5415 24.7998 31.6063 21.1222 34.3729C16.3701 37.9498 11.166 37.9409 5.83201 36.0427C4.34575 35.5145 3.01393 34.5453 1.6172 33.7686C0.836017 33.3343 0.576371 32.6516 0.710672 31.7832C1.08224 29.3523 1.42695 26.917 1.83209 24.4906C1.88805 24.1616 2.23275 23.8818 2.44315 23.5796C2.61103 23.8796 2.8774 24.1616 2.93112 24.4817C3.24897 26.3171 3.63843 28.1526 3.76378 30.0059C3.89137 31.8682 4.91205 32.9717 6.42965 33.6858C10.0625 35.3959 13.7826 35.3466 17.3192 33.5492C21.337 31.5056 21.6146 25.997 17.7646 23.6669C15.4636 22.2724 12.8045 21.4711 10.3266 20.3631C8.5628 19.573 6.71616 18.8925 5.10679 17.8539C0.605473 14.9486 -0.0257378 9.09529 3.64067 5.16922C6.10957 2.52797 9.13357 1.13125 13.0216 1.28122L13.0238 1.2745Z" fill="#9F78EA"/>
<path d="M81.6963 37.7192C81.3024 37.5782 80.8883 37.4819 80.5212 37.2917C77.3181 35.6353 74.7485 33.1932 72.4318 30.5005C70.7575 28.5554 69.2668 26.4491 67.7335 24.3853C67.3037 23.8079 66.9255 23.6601 66.3748 24.1615C66.2652 24.2622 66.1644 24.3943 66.0346 24.4503C63.7179 25.4508 63.3419 27.3355 63.5859 29.5828C63.7022 30.6527 63.6396 31.745 63.597 32.8262C63.5635 33.7036 63.935 34.0886 64.7945 34.2386C66.5561 34.5474 68.3065 34.9324 70.0547 35.3152C70.4106 35.3935 70.7351 35.6084 71.0731 35.7584L71.053 36.1367C70.6232 36.2329 70.1957 36.4098 69.7659 36.412C65.5534 36.4321 61.3408 36.4321 57.1282 36.412C56.6492 36.4098 56.1724 36.2329 55.6934 36.1367C55.6733 35.9957 55.6531 35.8546 55.6352 35.7136C56.2105 35.4629 56.7746 35.1787 57.3632 34.966C60.4634 33.8536 59.9933 34.6079 60.0023 31.3108C60.0291 22.3955 60.0067 13.4801 60.0403 4.56479C60.0425 3.85299 59.8232 3.55977 59.1606 3.4277C57.99 3.19492 56.826 2.92408 55.6711 2.62638C55.4226 2.56147 55.2211 2.31524 54.9973 2.15184C55.2256 1.95263 55.4338 1.61241 55.6867 1.57659C58.1937 1.21398 60.7096 0.909563 63.2188 0.573811C63.8052 0.495468 64.0626 0.728254 64.0425 1.30575C64.0313 1.6415 64.0223 1.97725 64.0134 2.313C63.8097 9.27203 63.606 16.2288 63.4023 23.1878C63.512 23.2281 63.6194 23.2684 63.7291 23.3087C66.4666 20.9025 69.2041 18.4963 72.2192 15.8461C71.1918 15.5573 70.4665 15.3559 69.7435 15.1499C69.4212 15.0582 69.081 14.9932 68.7878 14.841C68.5505 14.7157 68.3737 14.4762 68.17 14.2882C68.4319 14.136 68.6915 13.8539 68.9534 13.8517C72.7586 13.8226 76.5638 13.8226 80.3667 13.8517C80.6286 13.8517 80.8883 14.136 81.1479 14.2882C80.942 14.4739 80.7674 14.7425 80.5257 14.8298C79.9303 15.0425 79.3147 15.226 78.6925 15.3223C76.5906 15.6491 75.0641 16.9272 73.5532 18.2814C72.6668 19.076 71.7402 19.837 70.7642 20.513C69.9763 21.0569 69.992 21.5113 70.5382 22.2298C74.0412 26.8274 77.5151 31.4451 80.9912 36.0628C81.327 36.5105 81.6135 36.9962 81.9224 37.464C81.8463 37.5513 81.7702 37.6386 81.6941 37.7259L81.6963 37.7192Z" fill="#9F78EA"/>
<path d="M95.5069 31.886C96.0016 29.7081 96.4448 27.7563 96.8925 25.8022C97.4341 23.4407 97.9266 21.0659 98.5645 18.7313C98.6966 18.25 99.3054 17.7218 99.809 17.5494C102.614 16.5869 102.587 16.6295 103.218 19.5304C104.098 23.5683 105.042 27.5906 106.197 31.6689C106.287 31.3533 106.401 31.0444 106.464 30.7243C107.37 26.1536 108.257 21.5807 109.185 17.0145C109.344 16.2355 109.105 15.9535 108.351 15.8057C107.034 15.5461 105.736 15.2014 104.445 14.8365C104.183 14.7627 103.988 14.4426 103.762 14.2367C104.035 14.0979 104.308 13.8427 104.581 13.8405C107.377 13.8114 110.173 13.8114 112.97 13.8382C113.261 13.8405 113.548 14.0688 113.837 14.1919C113.651 14.4784 113.53 14.9082 113.266 15.029C112.102 15.5618 111.746 16.5131 111.522 17.6837C110.401 23.5012 109.206 29.3052 108.066 35.1204C107.887 36.0359 107.495 36.4478 106.506 36.4478C103.99 36.4478 103.986 36.4881 103.393 34.0774C102.502 30.458 101.613 26.8386 100.738 23.2147C100.599 22.6417 100.53 22.0507 100.373 21.1599C100.022 22.5655 99.7329 23.7004 99.4576 24.8375C98.6339 28.2442 97.8258 31.6532 96.9932 35.0555C96.6574 36.4232 96.5007 36.45 94.4459 36.4478C93.3962 36.4478 93.0403 35.9486 92.85 35.0018C91.6167 28.8643 90.3565 22.7312 89.0403 16.6093C88.9284 16.09 88.3912 15.6065 87.9458 15.2327C87.5451 14.897 87.0012 14.7358 86.52 14.4963L86.5356 14.165C86.84 14.0531 87.1444 13.8449 87.4489 13.8427C90.6542 13.8181 93.8617 13.8203 97.067 13.836C97.3647 13.836 97.6624 13.977 97.9624 14.0509C97.9781 14.1561 97.9937 14.259 98.0094 14.3642C97.6871 14.5321 97.3804 14.7694 97.0379 14.8544C95.7733 15.1678 94.4974 15.4431 93.2193 15.7095C92.5724 15.8438 92.2613 16.09 92.4113 16.851C93.3626 21.715 94.2713 26.5879 95.2003 31.4563C95.2115 31.5189 95.2786 31.5727 95.5069 31.8883V31.886Z" fill="#9F78EA"/>
<path d="M141.438 35.2524C140.847 35.4919 140.54 35.6889 140.211 35.7382C138.112 36.0515 136.005 36.3269 133.903 36.629C133.084 36.7454 132.616 36.4567 132.531 35.5949C132.462 34.8943 132.343 34.1959 132.236 33.4304C131.206 34.1669 130.266 34.9301 129.239 35.5546C126.152 37.4259 122.904 37.4684 119.728 35.9329C116.245 34.2497 115.977 29.4909 119.121 27.2347C121.387 25.6096 124.017 25.1127 126.696 24.8083C128.064 24.6539 129.445 24.6181 130.821 24.5733C131.513 24.5509 131.887 24.2868 131.842 23.5705C131.766 22.3081 131.795 21.0278 131.569 19.7922C131.074 17.0972 129.501 16.1526 126.98 16.1705C125.483 16.1817 123.983 16.6742 122.497 17.001C121.619 17.1935 121.107 17.7486 120.948 18.6864C120.742 19.8974 120.467 21.1016 120.142 22.2857C120.041 22.6506 119.683 22.946 119.444 23.2728C119.254 22.9393 118.963 22.6282 118.891 22.2723C118.604 20.8106 118.331 19.34 118.175 17.8605C118.132 17.4486 118.383 16.8197 118.71 16.5869C121.326 14.7156 124.214 13.3122 127.453 13.2226C132.379 13.0861 135.175 15.1476 135.414 20.5801C135.584 24.4524 135.488 28.3382 135.432 32.215C135.414 33.379 135.777 33.9027 136.97 34.0169C138.15 34.1288 139.311 34.4422 140.475 34.7018C140.726 34.7578 140.945 34.9637 141.442 35.2547L141.438 35.2524ZM131.844 29.6364C131.844 28.8194 131.923 28.2442 131.815 27.707C131.75 27.3869 131.403 26.8833 131.166 26.8743C128.18 26.7557 125.194 26.8318 122.41 28.0942C121.12 28.6784 120.411 30.0147 120.525 31.1361C120.679 32.6403 121.7 33.3454 122.985 33.6811C125.176 34.2541 127.3 34.0169 129.409 33.0992C131.115 32.3583 132.397 31.5144 131.844 29.6342V29.6364Z" fill="#9F78EA"/>
<path d="M52.5754 35.8257C51.2078 36.6471 27.7656 36.5934 26.8232 35.7831C27.356 35.6018 27.7589 35.3937 28.1864 35.3265C31.2417 34.8475 34.2993 34.3842 37.3591 33.9432C38.1694 33.8268 38.5097 33.4485 38.5074 32.6136C38.4873 27.7296 38.4738 22.8433 38.5164 17.9592C38.5253 16.8803 37.9657 16.6318 37.0905 16.5378C34.9798 16.3095 32.869 16.0879 30.7672 15.7925C30.239 15.7186 29.7488 15.3761 29.2407 15.1568C29.7264 14.9844 30.2031 14.7091 30.7023 14.6554C34.2187 14.2793 37.7374 13.9548 41.2561 13.6011C42.1559 13.5116 42.3708 13.8742 42.3529 14.7651C42.232 20.7258 42.1805 26.6865 42.091 32.6472C42.0776 33.4664 42.4156 33.8649 43.2303 33.9947C45.8425 34.4088 48.4479 34.8542 51.0534 35.3153C51.5055 35.3959 51.933 35.6063 52.5754 35.8279V35.8257Z" fill="#9F78EA"/>
<path d="M43.5616 5.42439C43.3355 5.71761 43.1587 6.00412 42.9259 6.23467C42.1358 7.02257 41.3031 7.77017 40.5331 8.57374C39.9668 9.16466 39.4587 9.14452 38.917 8.58717C38.0866 7.7366 37.2719 6.86812 36.4213 6.0377C35.949 5.57884 35.9065 5.24756 36.4325 4.76855C37.3927 3.89112 38.2545 2.90624 39.2237 2.04C39.4475 1.83855 40.1056 1.76469 40.2847 1.93033C41.3143 2.8861 42.2634 3.93141 43.2326 4.9521C43.3534 5.07968 43.4363 5.24309 43.5616 5.42439Z" fill="#9F78EA"/>
</svg>
