<svg width="241" height="50" viewBox="0 0 241 50" fill="none" xmlns="http://www.w3.org/2000/svg">
<mask id="mask0_86_185" style="mask-type:luminance" maskUnits="userSpaceOnUse" x="0" y="0" width="241" height="50">
<path d="M240.033 0.625H0V49.819H240.033V0.625Z" fill="white"/>
</mask>
<g mask="url(#mask0_86_185)">
<path d="M42.4085 7.93651L29.9149 0.693115L24.1728 4.01795L18.4306 0.693115L5.93707 7.93651V14.1536L-0.000137329 17.5887V32.6438L5.93707 36.0789V42.3045L18.4306 49.5479L24.1728 46.223L29.9149 49.5479L42.4085 42.3045V36.0789L48.3457 32.6438V17.5887L42.4085 14.1536V7.93651ZM35.8521 12.364C36.1744 12.364 36.4289 12.6269 36.4289 12.9322C36.4289 13.2376 36.1744 13.5005 35.8521 13.5005C35.5298 13.5005 35.2753 13.2376 35.2753 12.9322C35.2753 12.6269 35.5298 12.364 35.8521 12.364ZM13.1041 12.364C13.4264 12.364 13.6809 12.6269 13.6809 12.9322C13.6809 13.2376 13.4264 13.5005 13.1041 13.5005C12.7818 13.5005 12.5274 13.2376 12.5274 12.9322C12.5359 12.6184 12.7818 12.364 13.1041 12.364ZM13.1041 37.8685C12.7818 37.8685 12.5274 37.6056 12.5274 37.3003C12.5274 36.9949 12.7818 36.732 13.1041 36.732C13.4264 36.732 13.6809 36.9949 13.6809 37.3003C13.6809 37.6056 13.4264 37.8685 13.1041 37.8685ZM23.7232 44.8744L19.0244 47.6055L14.4188 44.9253V38.7252C14.4188 38.7252 14.775 37.9025 14.775 37.2833C14.775 36.3673 14.0287 35.6124 13.1126 35.6124C12.1966 35.6124 11.4502 36.3588 11.4502 37.2833C11.4502 37.9025 11.8743 38.7252 11.8743 38.7252V43.8566L7.63342 41.4054V35.7226L12.8751 32.7031L17.8115 35.5615V41.2358C17.1075 41.6429 16.7258 42.5504 17.133 43.4665C17.3026 43.8481 17.6249 44.1535 18.015 44.3062C19.2364 44.7727 20.3984 43.8736 20.3984 42.7116C20.3984 42.067 20.0422 41.5072 19.5078 41.2188V34.6115L14.4188 31.3206V26.5709C15.0889 26.1553 15.462 25.3071 15.0888 24.3995C14.9277 24.0094 14.6054 23.6871 14.2152 23.5344C12.9854 23.034 11.8064 23.9415 11.8064 25.1205C11.8064 25.7821 12.1796 26.3419 12.7225 26.6302V31.1086L7.0312 34.3825L1.69621 31.2952V26.3419L5.73352 28.4114C5.73352 28.9882 6.03035 29.5564 6.55622 29.8618C7.34502 30.3283 8.3713 30.0484 8.82083 29.2511C9.28732 28.4538 9.00746 27.436 8.21866 26.9695C7.68431 26.6557 7.05664 26.6896 6.55622 26.978L2.54438 24.4335V18.8186L7.2772 16.079L11.4841 18.4963L8.40523 20.2774C8.18471 20.1587 7.93029 20.0823 7.6504 20.0823C6.75982 20.0823 6.03885 20.8118 6.03885 21.7023C6.03885 22.5929 6.7683 23.3224 7.6504 23.3224C8.5325 23.3224 9.26189 22.5929 9.26189 21.7023C9.26189 21.6769 9.2534 21.6515 9.2534 21.626L19.4993 15.7058V9.01369C20.2373 8.63201 20.6613 7.73295 20.2881 6.79148C20.1355 6.4098 19.8301 6.08749 19.4569 5.92634C18.2101 5.38351 16.9972 6.29954 16.9972 7.48698C16.9972 8.10615 17.3195 8.6405 17.803 8.94584V14.6286L12.7988 17.5209L7.62493 14.5438V8.81013L11.8658 6.35891V11.4819C11.8658 11.4819 11.4332 12.3046 11.4332 12.9238C11.4332 13.8398 12.1796 14.5947 13.0957 14.5947C14.0117 14.5947 14.758 13.8483 14.758 12.9238C14.758 12.3046 14.4103 11.4819 14.4103 11.4819V5.30718L19.0329 2.62695L23.7402 5.35806V17.9365L17.803 21.4309V28.7761L23.7402 32.2197L23.7148 44.8575L23.7232 44.8744ZM12.5358 25.1205C12.5358 24.7982 12.7903 24.5522 13.1126 24.5522C13.4349 24.5522 13.6894 24.8151 13.6894 25.1205C13.6894 25.4258 13.4349 25.6888 13.1126 25.6888C12.7903 25.6888 12.5358 25.4428 12.5358 25.1205ZM18.2695 42.7201C18.2695 42.3978 18.5239 42.1518 18.8462 42.1518C19.1685 42.1518 19.423 42.4147 19.423 42.7201C19.423 43.0254 19.1685 43.2883 18.8462 43.2883C18.5239 43.2883 18.2695 43.0424 18.2695 42.7201ZM6.88702 28.14C7.04817 27.8601 7.39591 27.7753 7.66733 27.9279C7.93874 28.0891 8.03204 28.4368 7.87937 28.7167C7.71822 28.9966 7.37048 29.0815 7.09906 28.9288C6.82765 28.7676 6.72587 28.4199 6.88702 28.14ZM7.98114 21.7872C7.98114 22.1095 7.7267 22.3554 7.40439 22.3554C7.08209 22.3554 6.82764 22.0925 6.82764 21.7872C6.82764 21.4818 7.08209 21.2189 7.40439 21.2189C7.7267 21.2189 7.98114 21.4649 7.98114 21.7872ZM18.2695 7.51242C18.2695 7.19012 18.5239 6.94415 18.8462 6.94415C19.1685 6.94415 19.423 7.20708 19.423 7.51242C19.423 7.81777 19.1685 8.0807 18.8462 8.0807C18.5239 8.0807 18.2695 7.83473 18.2695 7.51242ZM19.5078 27.8092V22.3894L24.1728 19.6498L28.8377 22.3894V27.8007L24.1728 30.5064L19.5078 27.8092ZM35.8521 37.8685C35.5298 37.8685 35.2753 37.6056 35.2753 37.3003C35.2753 36.9949 35.5298 36.732 35.8521 36.732C36.1744 36.732 36.4289 36.9949 36.4289 37.3003C36.4204 37.6141 36.1744 37.8685 35.8521 37.8685ZM46.6494 18.8101V24.4589L42.3915 27.0034C41.8911 26.7066 41.2635 26.6811 40.7291 26.995C39.9403 27.4614 39.6604 28.4792 40.1269 29.2765C40.5934 30.0738 41.6027 30.3452 42.3915 29.8872C42.9259 29.5734 43.2143 29.0136 43.2143 28.4368L47.489 26.3673V31.3206L42.1541 34.408L36.4628 31.134V26.6557C37.0056 26.3673 37.3788 25.799 37.3788 25.1459C37.3788 23.9755 36.1999 23.0679 34.97 23.5598C34.5798 23.721 34.2576 24.0348 34.0964 24.425C33.7232 25.3325 34.0964 26.1807 34.7665 26.5963V31.2697L28.8292 34.7133V41.2442C28.1168 41.6429 27.6927 42.525 28.0913 43.458C28.261 43.8566 28.5918 44.1789 28.9904 44.3316C30.2118 44.8066 31.3738 43.899 31.3738 42.737C31.3738 42.1094 31.0345 41.5581 30.5341 41.2612V35.5869L35.4705 32.7286L40.7122 35.7481V41.4309L36.4713 43.8821V38.7846C36.9887 38.4877 37.3449 37.9364 37.3449 37.2918C37.3449 36.0958 36.132 35.1798 34.8767 35.7226C34.5035 35.8838 34.2067 36.1891 34.0455 36.5708C33.6638 37.4953 34.0455 38.3859 34.7749 38.793V44.9338L30.1524 47.614L25.445 44.8829L25.4111 32.5505L31.3823 29.0815V21.1595L25.445 17.6651V5.39199L30.1524 2.66088L34.7749 5.3411V11.4649C34.2576 11.7618 33.9013 12.3131 33.9013 12.9577C33.9013 14.1536 35.1142 15.0696 36.3695 14.5353C36.7427 14.3741 37.048 14.0688 37.2007 13.6956C37.5824 12.7711 37.2007 11.8805 36.4798 11.4734V6.4098L40.7206 8.8695V14.6116L35.5468 17.5887L30.5426 14.6964V9.01369C31.026 8.70834 31.3483 8.174 31.3483 7.55484C31.3483 6.36739 30.1354 5.45136 28.8886 5.99419C28.5154 6.15535 28.2101 6.47765 28.0574 6.85933C27.6842 7.8008 28.1083 8.69138 28.8462 9.08154V15.587L39.5926 21.7956C39.5926 21.7956 39.5841 21.8465 39.5841 21.8805C39.5841 22.8219 40.3474 23.5853 41.2804 23.5853C42.2134 23.5853 42.9768 22.8219 42.9768 21.8805C42.9768 20.939 42.2134 20.1756 41.2804 20.1756C41.0005 20.1756 40.7291 20.2605 40.4916 20.3792L37.2686 18.5132L41.6791 15.9687L46.6578 18.8525L46.6494 18.8101ZM41.8487 28.9288C41.5688 29.0899 41.2295 28.9882 41.0684 28.7167C40.9072 28.4368 41.009 28.0891 41.2804 27.9279C41.5518 27.7668 41.8996 27.8686 42.0607 28.14C42.2219 28.4199 42.1201 28.7676 41.8487 28.9288ZM36.4204 25.1205C36.4204 25.4428 36.166 25.6888 35.8436 25.6888C35.5213 25.6888 35.2669 25.4258 35.2669 25.1205C35.2669 24.8151 35.5213 24.5522 35.8436 24.5522C36.1744 24.5437 36.4204 24.7982 36.4204 25.1205ZM30.6867 42.7201C30.6867 43.0424 30.4323 43.2883 30.11 43.2883C29.7877 43.2883 29.5332 43.0254 29.5332 42.7201C29.5332 42.4147 29.7877 42.1518 30.11 42.1518C30.4323 42.1518 30.6867 42.3978 30.6867 42.7201ZM30.6867 7.51242C30.6867 7.83473 30.4323 8.0807 30.11 8.0807C29.7877 8.0807 29.5332 7.81777 29.5332 7.51242C29.5332 7.20708 29.7877 6.94415 30.11 6.94415C30.4323 6.94415 30.6867 7.19012 30.6867 7.51242ZM40.9751 21.7872C40.9751 21.4649 41.2295 21.2189 41.5518 21.2189C41.8741 21.2189 42.1286 21.4818 42.1286 21.7872C42.1286 22.0925 41.8741 22.3554 41.5518 22.3554C41.2295 22.3554 40.9751 22.1095 40.9751 21.7872Z" fill="#9F78EA"/>
<path d="M42.4085 7.93651L29.9149 0.693115L24.1728 4.01795L18.4306 0.693115L5.93707 7.93651V14.1536L-0.000137329 17.5887V32.6438L5.93707 36.0789V42.3045L18.4306 49.5479L24.1728 46.223L29.9149 49.5479L42.4085 42.3045V36.0789L48.3457 32.6438V17.5887L42.4085 14.1536V7.93651ZM35.8521 12.364C36.1744 12.364 36.4289 12.6269 36.4289 12.9322C36.4289 13.2376 36.1744 13.5005 35.8521 13.5005C35.5298 13.5005 35.2753 13.2376 35.2753 12.9322C35.2753 12.6269 35.5298 12.364 35.8521 12.364ZM13.1041 12.364C13.4264 12.364 13.6809 12.6269 13.6809 12.9322C13.6809 13.2376 13.4264 13.5005 13.1041 13.5005C12.7818 13.5005 12.5274 13.2376 12.5274 12.9322C12.5359 12.6184 12.7818 12.364 13.1041 12.364ZM13.1041 37.8685C12.7818 37.8685 12.5274 37.6056 12.5274 37.3003C12.5274 36.9949 12.7818 36.732 13.1041 36.732C13.4264 36.732 13.6809 36.9949 13.6809 37.3003C13.6809 37.6056 13.4264 37.8685 13.1041 37.8685ZM23.7232 44.8744L19.0244 47.6055L14.4188 44.9253V38.7252C14.4188 38.7252 14.775 37.9025 14.775 37.2833C14.775 36.3673 14.0287 35.6124 13.1126 35.6124C12.1966 35.6124 11.4502 36.3588 11.4502 37.2833C11.4502 37.9025 11.8743 38.7252 11.8743 38.7252V43.8566L7.63342 41.4054V35.7226L12.8751 32.7031L17.8115 35.5615V41.2358C17.1075 41.6429 16.7258 42.5504 17.133 43.4665C17.3026 43.8481 17.6249 44.1535 18.015 44.3062C19.2364 44.7727 20.3984 43.8736 20.3984 42.7116C20.3984 42.067 20.0422 41.5072 19.5078 41.2188V34.6115L14.4188 31.3206V26.5709C15.0889 26.1553 15.462 25.3071 15.0888 24.3995C14.9277 24.0094 14.6054 23.6871 14.2152 23.5344C12.9854 23.034 11.8064 23.9415 11.8064 25.1205C11.8064 25.7821 12.1796 26.3419 12.7225 26.6302V31.1086L7.0312 34.3825L1.69621 31.2952V26.3419L5.73352 28.4114C5.73352 28.9882 6.03035 29.5564 6.55622 29.8618C7.34502 30.3283 8.3713 30.0484 8.82083 29.2511C9.28732 28.4538 9.00746 27.436 8.21866 26.9695C7.68431 26.6557 7.05664 26.6896 6.55622 26.978L2.54438 24.4335V18.8186L7.2772 16.079L11.4841 18.4963L8.40523 20.2774C8.18471 20.1587 7.93029 20.0823 7.6504 20.0823C6.75982 20.0823 6.03885 20.8118 6.03885 21.7023C6.03885 22.5929 6.7683 23.3224 7.6504 23.3224C8.5325 23.3224 9.26189 22.5929 9.26189 21.7023C9.26189 21.6769 9.2534 21.6515 9.2534 21.626L19.4993 15.7058V9.01369C20.2373 8.63201 20.6613 7.73295 20.2881 6.79148C20.1355 6.4098 19.8301 6.08749 19.4569 5.92634C18.2101 5.38351 16.9972 6.29954 16.9972 7.48698C16.9972 8.10615 17.3195 8.6405 17.803 8.94584V14.6286L12.7988 17.5209L7.62493 14.5438V8.81013L11.8658 6.35891V11.4819C11.8658 11.4819 11.4332 12.3046 11.4332 12.9238C11.4332 13.8398 12.1796 14.5947 13.0957 14.5947C14.0117 14.5947 14.758 13.8483 14.758 12.9238C14.758 12.3046 14.4103 11.4819 14.4103 11.4819V5.30718L19.0329 2.62695L23.7402 5.35806V17.9365L17.803 21.4309V28.7761L23.7402 32.2197L23.7148 44.8575L23.7232 44.8744ZM12.5358 25.1205C12.5358 24.7982 12.7903 24.5522 13.1126 24.5522C13.4349 24.5522 13.6894 24.8151 13.6894 25.1205C13.6894 25.4258 13.4349 25.6888 13.1126 25.6888C12.7903 25.6888 12.5358 25.4428 12.5358 25.1205ZM18.2695 42.7201C18.2695 42.3978 18.5239 42.1518 18.8462 42.1518C19.1685 42.1518 19.423 42.4147 19.423 42.7201C19.423 43.0254 19.1685 43.2883 18.8462 43.2883C18.5239 43.2883 18.2695 43.0424 18.2695 42.7201ZM6.88702 28.14C7.04817 27.8601 7.39591 27.7753 7.66733 27.9279C7.93874 28.0891 8.03204 28.4368 7.87937 28.7167C7.71822 28.9966 7.37048 29.0815 7.09906 28.9288C6.82765 28.7676 6.72587 28.4199 6.88702 28.14ZM7.98114 21.7872C7.98114 22.1095 7.7267 22.3554 7.40439 22.3554C7.08209 22.3554 6.82764 22.0925 6.82764 21.7872C6.82764 21.4818 7.08209 21.2189 7.40439 21.2189C7.7267 21.2189 7.98114 21.4649 7.98114 21.7872ZM18.2695 7.51242C18.2695 7.19012 18.5239 6.94415 18.8462 6.94415C19.1685 6.94415 19.423 7.20708 19.423 7.51242C19.423 7.81777 19.1685 8.0807 18.8462 8.0807C18.5239 8.0807 18.2695 7.83473 18.2695 7.51242ZM19.5078 27.8092V22.3894L24.1728 19.6498L28.8377 22.3894V27.8007L24.1728 30.5064L19.5078 27.8092ZM35.8521 37.8685C35.5298 37.8685 35.2753 37.6056 35.2753 37.3003C35.2753 36.9949 35.5298 36.732 35.8521 36.732C36.1744 36.732 36.4289 36.9949 36.4289 37.3003C36.4204 37.6141 36.1744 37.8685 35.8521 37.8685ZM46.6494 18.8101V24.4589L42.3915 27.0034C41.8911 26.7066 41.2635 26.6811 40.7291 26.995C39.9403 27.4614 39.6604 28.4792 40.1269 29.2765C40.5934 30.0738 41.6027 30.3452 42.3915 29.8872C42.9259 29.5734 43.2143 29.0136 43.2143 28.4368L47.489 26.3673V31.3206L42.1541 34.408L36.4628 31.134V26.6557C37.0056 26.3673 37.3788 25.799 37.3788 25.1459C37.3788 23.9755 36.1999 23.0679 34.97 23.5598C34.5798 23.721 34.2576 24.0348 34.0964 24.425C33.7232 25.3325 34.0964 26.1807 34.7665 26.5963V31.2697L28.8292 34.7133V41.2442C28.1168 41.6429 27.6927 42.525 28.0913 43.458C28.261 43.8566 28.5918 44.1789 28.9904 44.3316C30.2118 44.8066 31.3738 43.899 31.3738 42.737C31.3738 42.1094 31.0345 41.5581 30.5341 41.2612V35.5869L35.4705 32.7286L40.7122 35.7481V41.4309L36.4713 43.8821V38.7846C36.9887 38.4877 37.3449 37.9364 37.3449 37.2918C37.3449 36.0958 36.132 35.1798 34.8767 35.7226C34.5035 35.8838 34.2067 36.1891 34.0455 36.5708C33.6638 37.4953 34.0455 38.3859 34.7749 38.793V44.9338L30.1524 47.614L25.445 44.8829L25.4111 32.5505L31.3823 29.0815V21.1595L25.445 17.6651V5.39199L30.1524 2.66088L34.7749 5.3411V11.4649C34.2576 11.7618 33.9013 12.3131 33.9013 12.9577C33.9013 14.1536 35.1142 15.0696 36.3695 14.5353C36.7427 14.3741 37.048 14.0688 37.2007 13.6956C37.5824 12.7711 37.2007 11.8805 36.4798 11.4734V6.4098L40.7206 8.8695V14.6116L35.5468 17.5887L30.5426 14.6964V9.01369C31.026 8.70834 31.3483 8.174 31.3483 7.55484C31.3483 6.36739 30.1354 5.45136 28.8886 5.99419C28.5154 6.15535 28.2101 6.47765 28.0574 6.85933C27.6842 7.8008 28.1083 8.69138 28.8462 9.08154V15.587L39.5926 21.7956C39.5926 21.7956 39.5841 21.8465 39.5841 21.8805C39.5841 22.8219 40.3474 23.5853 41.2804 23.5853C42.2134 23.5853 42.9768 22.8219 42.9768 21.8805C42.9768 20.939 42.2134 20.1756 41.2804 20.1756C41.0005 20.1756 40.7291 20.2605 40.4916 20.3792L37.2686 18.5132L41.6791 15.9687L46.6578 18.8525L46.6494 18.8101ZM41.8487 28.9288C41.5688 29.0899 41.2295 28.9882 41.0684 28.7167C40.9072 28.4368 41.009 28.0891 41.2804 27.9279C41.5518 27.7668 41.8996 27.8686 42.0607 28.14C42.2219 28.4199 42.1201 28.7676 41.8487 28.9288ZM36.4204 25.1205C36.4204 25.4428 36.166 25.6888 35.8436 25.6888C35.5213 25.6888 35.2669 25.4258 35.2669 25.1205C35.2669 24.8151 35.5213 24.5522 35.8436 24.5522C36.1744 24.5437 36.4204 24.7982 36.4204 25.1205ZM30.6867 42.7201C30.6867 43.0424 30.4323 43.2883 30.11 43.2883C29.7877 43.2883 29.5332 43.0254 29.5332 42.7201C29.5332 42.4147 29.7877 42.1518 30.11 42.1518C30.4323 42.1518 30.6867 42.3978 30.6867 42.7201ZM30.6867 7.51242C30.6867 7.83473 30.4323 8.0807 30.11 8.0807C29.7877 8.0807 29.5332 7.81777 29.5332 7.51242C29.5332 7.20708 29.7877 6.94415 30.11 6.94415C30.4323 6.94415 30.6867 7.19012 30.6867 7.51242ZM40.9751 21.7872C40.9751 21.4649 41.2295 21.2189 41.5518 21.2189C41.8741 21.2189 42.1286 21.4818 42.1286 21.7872C42.1286 22.0925 41.8741 22.3554 41.5518 22.3554C41.2295 22.3554 40.9751 22.1095 40.9751 21.7872Z" fill="#9F78EA"/>
<path d="M72.6457 22.1093C70.5762 20.5826 68.4134 19.9973 65.6314 19.9973C62.5949 19.9973 61.9164 20.6759 61.9164 21.4647C61.9164 22.2535 62.6882 22.3383 63.7569 22.474L68.9562 23.0508C72.8917 23.5342 75.3175 25.1288 75.3175 28.6063C75.3175 32.7369 71.2463 34.5859 65.8858 34.5859C62.1708 34.5859 59.3888 33.7717 56.4541 31.5325L58.6848 27.8345C61.1106 29.5562 63.5618 30.4299 66.3099 30.4299C68.7611 30.4299 70.7034 29.8785 70.7034 28.6826C70.7034 28.0635 70.5423 27.7412 69.4142 27.6479L63.2734 26.9354C59.4991 26.4774 57.2259 24.9846 57.2259 21.5156C57.2259 17.5885 61.0003 15.7734 65.6229 15.7734C69.0495 15.7734 72.0859 16.4265 74.9273 18.6318L72.6373 22.1178L72.6457 22.1093Z" fill="#9F78EA"/>
<path d="M82.2725 15.8835V22.6774H86.2164L90.2453 16.7402H96.1994L90.4998 24.9844L96.5896 34.5518L90.4489 33.7036L86.3352 26.9183H82.281V33.7036H77.1919V15.892H82.281L82.2725 15.8835Z" fill="#9F78EA"/>
<path d="M103.477 15.8923V33.704H98.3878V15.8923H103.477Z" fill="#9F78EA"/>
<path d="M111.11 15.8923V29.4631H122.985V33.704H106.021V15.8923H111.11Z" fill="#9F78EA"/>
<path d="M129.77 15.8923V29.4631H141.645V33.704H124.681V15.8923H129.77Z" fill="#9F78EA"/>
<path d="M143.341 15.8923H160.304V20.1332H148.43V23.5259H158.608V27.7668H148.43V33.704H143.341V15.8923Z" fill="#9F78EA"/>
<path d="M167.938 15.8923V25.0865C167.938 28.2672 169.261 30.1162 172.196 30.1162C175.13 30.1162 176.42 28.2672 176.42 25.0865V15.8923H181.509V25.0441C181.509 30.9813 177.87 34.2977 172.179 34.2977C166.488 34.2977 162.849 30.9813 162.849 25.0441V15.8923H167.938Z" fill="#9F78EA"/>
<path d="M188.294 15.8923V29.4631H200.168V33.704H183.205V15.8923H188.294Z" fill="#9F78EA"/>
<path d="M224.782 15.8923L232.314 33.704H227.174L226.08 31.1594H216.504L215.436 33.704H210.236L217.929 15.8923H224.791H224.782ZM218.15 26.9186H224.333L221.67 20.1332H220.94L218.15 26.9186Z" fill="#9F78EA"/>
<path d="M240.033 15.8923V33.704H234.944V15.8923H240.033Z" fill="#9F78EA"/>
</g>
</svg>
