<svg width="44" height="47" viewBox="0 0 44 47" fill="none" xmlns="http://www.w3.org/2000/svg">
<path d="M34.02 0C37.2415 4.17511 40.4587 8.34596 43.677 12.5157C43.2791 12.6661 42.8876 12.8037 42.5047 12.9616C41.4561 13.3926 40.4577 13.9153 39.5733 14.6342C39.0304 15.0758 38.56 15.5804 38.2538 16.2204C37.9295 16.8989 37.8954 17.5954 38.112 18.3122C38.3786 19.1944 38.7776 20.0009 39.4283 20.6633C40.1515 21.3993 41.0209 21.8495 42.0524 21.9679C42.1249 21.9764 42.1484 22.0073 42.1633 22.0735C42.3063 22.7338 42.3884 23.4015 42.4396 24.0746C42.5004 24.8683 42.5057 25.663 42.4663 26.4577C42.3873 28.0172 42.1217 29.5437 41.6588 31.036C40.9313 33.3849 39.7622 35.4916 38.1792 37.3723C37.074 38.6854 35.8111 39.8289 34.4265 40.838C34.4115 40.8497 34.3945 40.8583 34.3667 40.8753C34.0894 40.6215 33.811 40.3676 33.5294 40.1105C33.1635 40.3345 32.8019 40.5564 32.4413 40.7783C29.1132 42.8232 25.785 44.868 22.459 46.9161C22.3833 46.9631 22.3342 46.9545 22.2638 46.9097C18.765 44.7048 15.264 42.501 11.7631 40.2982C11.7407 40.2844 11.7172 40.2705 11.6863 40.2513C11.5274 40.4305 11.3652 40.6044 11.2137 40.7868C11.1508 40.8625 11.0975 40.8743 11.0068 40.8348C10.1929 40.4764 9.44833 40.0028 8.74857 39.4577C7.13037 38.1968 5.85778 36.6394 4.8508 34.8601C3.86943 33.1257 3.2006 31.2717 2.75151 29.3346C2.48377 28.1793 2.30136 27.0113 2.18509 25.8315C2.07415 24.7061 2.02508 23.5775 2.02615 22.4458C2.02615 22.4106 2.02615 22.3764 2.02615 22.3391C2.26616 22.3156 2.4987 22.3007 2.73018 22.2687C3.69449 22.1353 4.61079 21.8633 5.41083 21.2873C6.31753 20.6345 6.77622 19.7374 6.84769 18.628C6.91916 17.5133 6.51381 16.5778 5.77884 15.7671C5.10681 15.0257 4.28225 14.4913 3.39794 14.0422C2.56591 13.6198 1.6976 13.2902 0.797298 13.0459C0.768497 13.0384 0.739696 13.0278 0.701294 13.016C0.723695 12.9819 0.740762 12.952 0.76103 12.9253C3.84489 8.7609 6.92983 4.59646 10.0126 0.430953C10.066 0.359483 10.1097 0.355215 10.1865 0.382949C11.889 0.999509 13.616 1.53713 15.3654 2.00008C16.5366 2.30943 17.7175 2.57291 18.9101 2.78092C20.3437 3.0316 21.787 3.12333 23.2409 3.0572C23.8681 3.0284 24.4954 3.01026 25.1215 2.97613C26.8699 2.88119 28.5595 2.51744 30.1863 1.86568C31.461 1.35473 32.6813 0.733899 33.8824 0.0746711C33.923 0.0522702 33.9646 0.0298679 34.02 0ZM2.60751 12.0282C2.65444 12.0453 2.68645 12.057 2.71845 12.0677C3.33607 12.2715 3.93663 12.5189 4.51586 12.8155C5.4343 13.2848 6.28873 13.8427 7.00236 14.5969C8.02641 15.6807 8.48403 16.9415 8.20561 18.436C7.99547 19.5656 7.48345 20.5267 6.63115 21.299C5.72337 22.1215 4.64813 22.6154 3.45981 22.8799C3.38834 22.8959 3.36381 22.9204 3.36274 22.993C3.34674 24.0885 3.35101 25.184 3.46514 26.2742C3.55262 27.1009 3.66462 27.9265 3.80969 28.7458C4.09984 30.3885 4.60119 31.9683 5.32976 33.4724C6.19913 35.2687 7.35438 36.8506 8.88831 38.1414C9.5582 38.7046 10.2782 39.1942 11.0772 39.5622C11.1604 39.6006 11.2148 39.5985 11.2799 39.5281C11.4282 39.3681 11.5871 39.2177 11.7407 39.063C11.8438 38.9599 11.9565 38.9467 12.0788 39.0235C15.5787 41.205 19.0797 43.3864 22.5785 45.571C22.651 45.6158 22.699 45.6211 22.7748 45.5742C24.9882 44.1768 27.2038 42.7826 29.4183 41.3874C30.7271 40.5628 32.036 39.7404 33.3416 38.9126C33.4344 38.8539 33.491 38.8571 33.571 38.9275C33.7587 39.0918 33.9571 39.2433 34.147 39.4043C34.2089 39.4566 34.2537 39.4619 34.3187 39.4107C34.7795 39.0513 35.2606 38.7163 35.7023 38.3355C37.5989 36.6992 38.9835 34.6916 39.9371 32.3822C40.959 29.9063 41.4358 27.3196 41.4774 24.6485C41.486 24.1386 41.4625 23.6277 41.4497 23.1178C41.4444 22.9108 41.439 22.914 41.2684 22.881C39.7195 22.577 38.5568 21.7492 37.8314 20.3369C37.5285 19.747 37.361 19.1133 37.2629 18.4584C37.1722 17.8557 37.1711 17.2562 37.3034 16.6599C37.5263 15.6519 38.0576 14.8241 38.7979 14.1222C39.7078 13.2582 40.7809 12.6619 41.9521 12.2331C42.0044 12.2139 42.0567 12.1946 42.1164 12.1722C42.0844 12.1296 42.0641 12.1008 42.0428 12.073C39.3611 8.66383 36.6794 5.25569 33.9976 1.84648C33.8771 1.69287 33.8782 1.69501 33.7043 1.76754C30.8338 2.95479 27.863 3.7687 24.777 4.15591C23.8724 4.27005 22.9636 4.33618 22.0526 4.35325C21.1096 4.37139 20.1688 4.31165 19.2311 4.20285C18.3458 4.09938 17.4689 3.95004 16.6006 3.7527C14.6443 3.31001 12.7519 2.67958 10.9321 1.83368C10.8351 1.78888 10.738 1.74194 10.6388 1.69394C7.96134 5.14049 5.29029 8.57743 2.60858 12.0293L2.60751 12.0282Z" fill="#9F78EA"/>
<path d="M37.3097 8.18262C38.2218 9.28133 39.1263 10.3715 40.0426 11.4756C39.9882 11.5086 39.9434 11.5353 39.8976 11.562C38.6143 12.3087 37.5263 13.2666 36.7294 14.5306C36.067 15.5803 35.7235 16.7259 35.7822 17.9697C35.8494 19.3842 36.2164 20.7101 37.1092 21.8419C37.906 22.852 38.9525 23.4537 40.2283 23.6446C40.32 23.6585 40.3307 23.7043 40.336 23.7769C40.384 24.5022 40.3616 25.2255 40.2955 25.9487C40.1739 27.2778 39.8965 28.5739 39.4624 29.8347C38.5717 32.4247 37.1167 34.652 35.1176 36.5209C34.66 36.9486 34.1629 37.3348 33.6861 37.7423C33.621 37.7977 33.5709 37.7956 33.5026 37.7476C33.3608 37.6452 33.2093 37.5556 33.0674 37.4532C32.996 37.402 32.9426 37.4031 32.869 37.4511C31.7714 38.1583 30.6716 38.8612 29.5729 39.5663C27.3616 40.984 25.1503 42.4017 22.9411 43.8225C22.8494 43.8812 22.7843 43.8823 22.6915 43.8268C19.9074 42.1425 17.1222 40.4603 14.337 38.778C13.6095 38.3386 12.882 37.9012 12.1567 37.4596C12.0681 37.4052 12.0137 37.4052 11.9391 37.4831C11.7353 37.6975 11.522 37.9033 11.3118 38.1124C11.299 38.1252 11.282 38.1348 11.2585 38.153C10.3059 37.3636 9.35655 36.5753 8.38904 35.7731C10.3699 33.8829 12.3412 32.0023 14.3157 30.1185C12.6079 27.8848 11.8825 25.3801 12.2303 22.596C12.5375 20.1437 13.6298 18.0753 15.4635 16.4208C17.3441 14.7237 19.5703 13.8575 22.1006 13.8341C24.6319 13.8106 26.8581 14.6597 28.7942 16.3056C31.6295 13.6004 34.4627 10.8974 37.3087 8.18368L37.3097 8.18262ZM18.126 28.8203C18.1463 28.7947 18.1612 28.7723 18.1793 28.752C18.5569 28.3371 18.9346 27.9221 19.3122 27.5072C19.533 27.265 19.7517 27.0218 19.9746 26.7818C20.0706 26.6783 20.1037 26.5791 20.0567 26.4298C19.6919 25.2799 19.3335 24.1289 18.9836 22.9747C18.9356 22.8168 18.8492 22.7358 18.7031 22.6867C17.8913 22.4168 17.0806 22.1437 16.2678 21.8771C16.2336 21.8653 16.1686 21.8845 16.1451 21.9123C15.6395 22.4947 15.1381 23.0824 14.6336 23.6659C14.5813 23.7267 14.5749 23.779 14.5984 23.8547C14.9792 25.0889 15.3568 26.3242 15.7344 27.5594C15.7654 27.6618 15.7814 27.7738 15.9328 27.761C15.9595 27.7589 15.9894 27.7845 16.0171 27.7973C16.7137 28.1355 17.4102 28.4736 18.126 28.8203ZM30.2918 23.7747C30.2513 23.7107 30.215 23.6254 30.1553 23.5635C29.6209 23.0131 29.0811 22.467 28.5456 21.9165C28.4955 21.8643 28.4539 21.8472 28.3856 21.8771C28.2928 21.9165 28.1957 21.9464 28.1008 21.9805C27.4181 22.2205 26.7365 22.4627 26.0517 22.6974C25.9471 22.7336 25.8756 22.7678 25.8394 22.8883C25.4852 24.0489 25.1268 25.2095 24.7599 26.3658C24.7012 26.5503 24.7428 26.6879 24.8527 26.8255C25.2324 27.3002 25.6143 27.7738 25.9898 28.2507C26.0399 28.3147 26.0837 28.3232 26.1573 28.304C26.5178 28.208 26.8805 28.1173 27.2421 28.0235C27.7509 27.8923 28.2587 27.7589 28.7675 27.6288C28.8592 27.6053 28.9083 27.5573 28.9424 27.4666C29.3766 26.2794 29.8139 25.0932 30.2502 23.9059C30.2641 23.8697 30.2748 23.8323 30.2929 23.7747H30.2918ZM22.1635 19.7884C22.1635 19.7607 22.1635 19.749 22.1635 19.7372C22.1016 18.9884 22.0398 18.2385 21.9725 17.4897C21.9693 17.4566 21.9256 17.4129 21.8915 17.399C21.7016 17.319 21.5085 17.2475 21.3155 17.1729C20.6808 16.9265 20.045 16.6822 19.4124 16.4304C19.3271 16.3963 19.2759 16.392 19.2034 16.4582C18.2615 17.2987 17.3174 18.1372 16.368 18.9692C16.2582 19.0652 16.2208 19.1601 16.2294 19.2999C16.2688 19.973 16.303 20.6461 16.3339 21.3192C16.3371 21.3949 16.3638 21.4269 16.432 21.4493C16.7905 21.5656 17.1489 21.6851 17.5062 21.8056C17.982 21.9656 18.4577 22.1235 18.9314 22.2899C19.0071 22.3166 19.0551 22.3176 19.1191 22.2685C20.0877 21.5282 21.0573 20.789 22.0312 20.0551C22.1336 19.9783 22.187 19.8994 22.1624 19.7895L22.1635 19.7884ZM28.2982 20.1319C28.2779 20.1319 28.2587 20.1319 28.2384 20.1319C28.2384 19.7383 28.2363 19.3447 28.2405 18.9511C28.2405 18.8668 28.2149 18.8177 28.1456 18.7708C27.1429 18.0838 26.1423 17.3958 25.1417 16.7046C25.0745 16.6576 25.0159 16.647 24.9369 16.6715C24.1337 16.9179 23.3294 17.1611 22.524 17.4022C22.4558 17.4225 22.4312 17.4491 22.4376 17.5238C22.4771 17.9665 22.5123 18.4092 22.5486 18.8519C22.5752 19.1783 22.604 19.5036 22.62 19.83C22.6243 19.9132 22.6435 19.9623 22.7096 20.0124C23.6697 20.7389 24.6287 21.4664 25.5823 22.2013C25.7028 22.2941 25.8031 22.3059 25.9407 22.2568C26.6949 21.9859 27.4512 21.7213 28.2085 21.4589C28.2821 21.4333 28.3003 21.3981 28.2992 21.3245C28.296 20.9277 28.2971 20.5298 28.2971 20.133L28.2982 20.1319ZM18.4919 29.088C18.5089 29.1083 18.5217 29.1275 18.5377 29.1435C19.0967 29.7195 19.6557 30.2956 20.2178 30.8684C20.2498 30.9014 20.3138 30.9185 20.3618 30.9185C21.5853 30.9217 22.8089 30.9196 24.0324 30.9217C24.1028 30.9217 24.1444 30.8993 24.1838 30.8406C24.6649 30.1174 25.1471 29.3953 25.6324 28.6763C25.6772 28.6101 25.6666 28.5717 25.6207 28.5163C25.37 28.208 25.1204 27.8986 24.8751 27.5861C24.7023 27.3664 24.5369 27.1402 24.3652 26.9194C24.3481 26.897 24.3086 26.8821 24.2788 26.8821C23.0318 26.8799 21.7848 26.8799 20.5389 26.8821C20.5037 26.8821 20.4589 26.9055 20.4344 26.9333C20.3373 27.0399 20.2498 27.1541 20.1538 27.2608C19.6012 27.8699 19.0476 28.4768 18.4919 29.088ZM25.449 32.8759C27.3637 32.1623 28.9008 30.9718 30.0764 29.2992C30.0337 29.2512 29.9953 29.2075 29.9569 29.1638C29.6667 28.8384 29.3702 28.5173 29.0875 28.1856C28.9979 28.08 28.9254 28.0565 28.7867 28.0928C27.9419 28.3189 27.0928 28.5323 26.2447 28.7488C26.1701 28.768 26.1029 28.7862 26.0527 28.8619C25.5738 29.5862 25.0905 30.3073 24.6052 31.0273C24.5625 31.0913 24.5615 31.1383 24.5956 31.2055C24.8633 31.7282 25.1279 32.253 25.3924 32.7778C25.4074 32.8087 25.4266 32.8375 25.449 32.877V32.8759ZM18.9207 32.8983C18.957 32.8322 18.974 32.8023 18.99 32.7714C19.2546 32.2594 19.517 31.7474 19.7858 31.2375C19.8274 31.1585 19.8221 31.1116 19.7581 31.0476C19.3143 30.5985 18.8674 30.1526 18.4385 29.6886C18.1804 29.4091 17.8902 29.1947 17.5414 29.0379C16.9878 28.7894 16.447 28.5131 15.9008 28.2475C15.7568 28.1781 15.6747 28.1813 15.5659 28.3083C15.2341 28.6966 14.8928 29.0763 14.5504 29.455C14.4874 29.5254 14.4917 29.5681 14.5472 29.6395C15.3888 30.7425 16.415 31.6332 17.6385 32.2892C18.0524 32.5111 18.4865 32.6925 18.9207 32.8973V32.8983ZM19.3751 14.7056C19.3804 14.8005 19.3826 14.8741 19.3879 14.9477C19.4082 15.2272 19.438 15.5067 19.4455 15.7872C19.4487 15.9205 19.5052 15.9813 19.6183 16.0251C20.4493 16.3451 21.2803 16.6683 22.1112 16.9883C22.1582 17.0065 22.2211 17.0161 22.268 17.0011C23.0915 16.7547 23.914 16.5051 24.7353 16.2512C24.7705 16.2406 24.8143 16.1862 24.8164 16.1499C24.8473 15.6912 24.8697 15.2314 24.8985 14.7728C24.9028 14.7056 24.8804 14.68 24.8153 14.6608C24.1572 14.4741 23.4873 14.3621 22.8046 14.3162C21.964 14.2607 21.1298 14.3162 20.3053 14.4837C19.9938 14.5466 19.6866 14.6298 19.374 14.7056H19.3751ZM12.6303 23.331C12.6484 23.3406 12.6548 23.347 12.6623 23.3481C13.1594 23.3865 13.6554 23.4259 14.1535 23.4601C14.1877 23.4622 14.2336 23.4334 14.257 23.4046C14.784 22.7944 15.3088 22.1821 15.8304 21.5677C15.8614 21.5304 15.8838 21.4706 15.8816 21.4226C15.8496 20.7143 15.8123 20.0071 15.7792 19.2988C15.776 19.2369 15.7547 19.2113 15.6992 19.1932C15.2075 19.0321 14.7168 18.8711 14.2272 18.7057C14.161 18.6833 14.1301 18.6993 14.0959 18.7548C13.217 20.1543 12.7295 21.6787 12.6314 23.3321L12.6303 23.331ZM30.0028 18.3388C29.6027 18.5095 29.2177 18.6769 28.8294 18.8348C28.7227 18.8785 28.6864 18.9308 28.6907 19.0481C28.7184 19.8343 28.7366 20.6215 28.7622 21.4077C28.7643 21.4578 28.7963 21.5176 28.8326 21.5549C29.3787 22.116 29.9281 22.6739 30.4753 23.2339C30.5318 23.2915 30.5734 23.3641 30.6289 23.4217C30.6502 23.4441 30.694 23.4569 30.726 23.4547C30.9703 23.4345 31.2145 23.4099 31.4588 23.3865C31.5538 23.3769 31.6476 23.3641 31.7479 23.3523C31.637 21.509 31.0577 19.846 30.0028 18.3377V18.3388ZM28.1445 35.4904C28.1541 35.4883 28.1627 35.4851 28.1723 35.483C28.1968 35.516 28.2213 35.5491 28.2448 35.5822C28.3995 35.8115 28.5531 36.0419 28.7088 36.2691C28.8059 36.4099 28.8784 36.6009 29.0139 36.6713C29.1494 36.7417 29.3489 36.6916 29.5195 36.6937C29.527 36.6937 29.5355 36.6937 29.543 36.6937C29.6177 36.7022 29.6454 36.6724 29.6454 36.5945C29.6433 35.9054 29.6433 35.2152 29.6454 34.5261C29.6454 34.4461 29.6123 34.4259 29.5409 34.4269C29.3969 34.4301 29.2529 34.4312 29.1089 34.4269C29.0224 34.4237 28.9936 34.4536 28.9947 34.5411C28.999 34.8685 28.9968 35.196 28.9958 35.5224C28.9958 35.563 28.9926 35.6024 28.9883 35.6718C28.9478 35.6152 28.9243 35.5854 28.903 35.5544C28.6694 35.2088 28.4358 34.8643 28.2053 34.5165C28.1648 34.4557 28.1211 34.4237 28.0443 34.4259C27.896 34.4312 27.7477 34.4291 27.6005 34.4259C27.5269 34.4248 27.4971 34.4483 27.4971 34.5261C27.4992 35.2152 27.4992 35.9054 27.4971 36.5945C27.4971 36.6734 27.529 36.6948 27.6016 36.6926C27.7456 36.6894 27.8896 36.6873 28.0336 36.6926C28.1211 36.6958 28.1477 36.6649 28.1467 36.5785C28.1424 36.2553 28.1456 35.9321 28.1456 35.6088V35.4872L28.1445 35.4904ZM19.454 36.6937C19.4615 36.683 19.469 36.6713 19.4754 36.6606C19.2503 36.3363 19.1959 35.8979 18.7873 35.6878C18.8289 35.6728 18.8577 35.6622 18.8866 35.6515C19.1703 35.548 19.3282 35.2974 19.3026 34.9934C19.277 34.6883 19.1084 34.4792 18.7873 34.4568C18.3105 34.4237 17.8305 34.4355 17.3516 34.4333C17.327 34.4333 17.2811 34.4899 17.2801 34.5208C17.2758 35.2142 17.2779 35.9075 17.2758 36.6009C17.2758 36.6734 17.3025 36.6969 17.3718 36.6948C17.5318 36.6916 17.6918 36.6894 17.8508 36.6948C17.9414 36.698 17.9745 36.6702 17.9724 36.5764C17.967 36.3385 17.9724 36.1006 17.9692 35.8638C17.9681 35.7753 18.0054 35.755 18.0844 35.771C18.1943 35.7923 18.2615 35.8617 18.3116 35.9555C18.4279 36.1721 18.542 36.3886 18.6615 36.603C18.6817 36.6393 18.7233 36.6884 18.7564 36.6894C18.989 36.6969 19.2215 36.6937 19.454 36.6937ZM12.6239 35.5587C12.6239 35.8979 12.626 36.2371 12.6218 36.5764C12.6207 36.6649 12.642 36.7022 12.738 36.698C12.8895 36.6905 13.042 36.6916 13.1935 36.698C13.2831 36.7012 13.3183 36.6734 13.3162 36.5785C13.3108 36.3449 13.3162 36.1113 13.313 35.8766C13.3119 35.7955 13.3418 35.7667 13.4218 35.7678C13.601 35.771 13.7802 35.7731 13.9594 35.7678C14.0586 35.7646 14.0874 35.803 14.0863 35.8969C14.0821 36.1262 14.0863 36.3566 14.0842 36.587C14.0842 36.6649 14.1087 36.7001 14.192 36.698C14.352 36.6937 14.512 36.6948 14.6709 36.698C14.737 36.698 14.7712 36.683 14.7712 36.6073C14.769 35.9139 14.769 35.2195 14.7712 34.5261C14.7712 34.4557 14.7445 34.428 14.6752 34.4291C14.5194 34.4312 14.3637 34.4333 14.208 34.4291C14.1173 34.4259 14.0821 34.4589 14.0842 34.5507C14.0885 34.7416 14.0842 34.9326 14.0853 35.1235C14.0853 35.1971 14.0597 35.2291 13.9829 35.228C13.7962 35.2248 13.6085 35.2248 13.4218 35.228C13.3418 35.2291 13.3119 35.2003 13.313 35.1192C13.3172 34.9283 13.3108 34.7373 13.3151 34.5464C13.3172 34.4621 13.2906 34.4269 13.202 34.4291C13.0463 34.4344 12.8906 34.4344 12.7348 34.4291C12.6484 34.4259 12.6196 34.4568 12.6207 34.5443C12.625 34.8835 12.6228 35.2227 12.6228 35.5619L12.6239 35.5587ZM21.7496 35.5598C21.7496 35.899 21.7496 36.2371 21.7496 36.5764C21.7496 36.6361 21.7432 36.6969 21.8339 36.6958C22.2147 36.6884 22.5976 36.7012 22.9774 36.6724C23.4169 36.6382 23.7188 36.3587 23.7838 35.9278C23.818 35.7006 23.8201 35.4595 23.7838 35.2323C23.7006 34.7032 23.3817 34.4429 22.843 34.4323C22.5198 34.4259 22.1966 34.4323 21.8733 34.428C21.7752 34.4269 21.7464 34.4611 21.7475 34.556C21.7517 34.8909 21.7496 35.2259 21.7496 35.5608V35.5598ZM32.2535 35.5587C32.245 35.5566 32.2354 35.5544 32.2269 35.5523C32.2237 35.4819 32.2226 35.4126 32.2162 35.3422C32.1756 34.8451 31.845 34.4856 31.3521 34.412C31.2145 34.3917 31.0727 34.3843 30.934 34.3907C30.4188 34.4152 30.0422 34.7213 29.943 35.2067C29.9089 35.3763 29.9004 35.5555 29.9121 35.7283C29.9473 36.2627 30.2705 36.618 30.7964 36.7033C30.9564 36.7289 31.1239 36.731 31.2849 36.715C31.6679 36.6766 31.9719 36.4974 32.1191 36.1305C32.1916 35.9502 32.2108 35.7486 32.2535 35.5566V35.5587ZM19.5927 35.563C19.5927 35.8937 19.598 36.2254 19.5906 36.5561C19.5884 36.6713 19.6268 36.699 19.7367 36.6969C20.1965 36.6916 20.6562 36.6958 21.116 36.6937C21.2323 36.6937 21.3965 36.7289 21.4509 36.6692C21.5128 36.6009 21.4733 36.443 21.4851 36.3246C21.4957 36.2201 21.4605 36.1827 21.3507 36.1849C21.0349 36.1923 20.7192 36.1849 20.4045 36.1891C20.3127 36.1902 20.2775 36.1593 20.2839 36.0686C20.2893 35.9993 20.2903 35.9278 20.2839 35.8585C20.2743 35.7571 20.3106 35.7198 20.4141 35.723C20.62 35.7294 20.8269 35.7251 21.0338 35.7251C21.3741 35.7251 21.3709 35.7251 21.3688 35.388C21.3688 35.3016 21.3421 35.2728 21.2557 35.2739C21.0146 35.2782 20.7725 35.2771 20.5314 35.2739C20.2519 35.2707 20.2925 35.3155 20.285 35.0243C20.2818 34.9272 20.3149 34.8963 20.412 34.8974C20.7234 34.9027 21.0349 34.8973 21.3464 34.9005C21.4253 34.9005 21.4616 34.8792 21.4563 34.7949C21.4509 34.7096 21.4509 34.6232 21.4563 34.5379C21.4616 34.4483 21.4211 34.4259 21.3379 34.4259C20.796 34.428 20.2551 34.428 19.7133 34.4259C19.6236 34.4259 19.5906 34.4525 19.5927 34.5464C19.598 34.8856 19.5948 35.2238 19.5948 35.563H19.5927ZM15.1221 35.5662C15.1221 35.9054 15.1232 36.2446 15.1221 36.5838C15.1221 36.6596 15.1381 36.6969 15.2256 36.6969C15.791 36.6937 16.3563 36.6948 16.9206 36.6969C16.9921 36.6969 17.0177 36.6702 17.0145 36.6009C17.0102 36.5038 17.0081 36.4057 17.0145 36.3086C17.0209 36.2179 16.991 36.1859 16.8971 36.1881C16.6358 36.1934 16.3744 36.1902 16.1142 36.1902C15.9072 36.1902 15.8045 36.0885 15.8059 35.8851C15.8059 35.7799 15.861 35.7269 15.9712 35.7262C16.24 35.7262 16.5089 35.723 16.7777 35.7272C16.8694 35.7283 16.9057 35.6974 16.8971 35.6056C16.8907 35.532 16.8918 35.4574 16.8971 35.3838C16.9025 35.3027 16.8715 35.2739 16.7905 35.275C16.5451 35.2792 16.2998 35.2782 16.0534 35.275C15.7782 35.2718 15.8112 35.3208 15.8048 35.0264C15.8027 34.9315 15.8326 34.8963 15.9307 34.8984C16.2422 34.9038 16.5547 34.8984 16.8662 34.9016C16.9462 34.9016 16.9803 34.8781 16.9761 34.7949C16.9718 34.7139 16.9707 34.6307 16.9761 34.5496C16.9825 34.4579 16.9473 34.4269 16.8555 34.4269C16.3179 34.4301 15.7792 34.4301 15.2416 34.4269C15.1499 34.4269 15.12 34.4589 15.1211 34.5496C15.1253 34.8888 15.1232 35.228 15.1232 35.5672L15.1221 35.5662ZM24.9433 36.6948H25.338C25.6335 36.6948 25.6367 36.6948 25.7242 36.4131C25.7476 36.3395 25.785 36.3171 25.8586 36.3182C26.057 36.3214 26.2554 36.3225 26.4538 36.3182C26.5306 36.3161 26.5626 36.347 26.585 36.4174C26.6714 36.6958 26.6735 36.6958 26.9648 36.6958H27.3701C27.3658 36.6617 27.3669 36.6489 27.3626 36.6393C27.0992 35.9278 26.8357 35.2163 26.5669 34.5069C26.553 34.4707 26.4879 34.4355 26.4453 34.4333C26.2629 34.4248 26.0794 34.4333 25.897 34.428C25.8138 34.4259 25.7722 34.4568 25.7434 34.5357C25.6207 34.876 25.4927 35.2142 25.3668 35.5534C25.2292 35.9246 25.0905 36.2969 24.9423 36.6958L24.9433 36.6948ZM24.7812 35.5683C24.7812 35.2291 24.7791 34.8899 24.7823 34.5507C24.7823 34.4632 24.7609 34.4216 24.6649 34.4259C24.5135 34.4323 24.3609 34.4301 24.2094 34.4259C24.1316 34.4248 24.0964 34.4504 24.0964 34.5336C24.0985 35.2195 24.0985 35.9054 24.0964 36.5913C24.0964 36.6756 24.1326 36.698 24.2105 36.6958C24.3588 36.6916 24.5071 36.6884 24.6543 36.6969C24.762 36.7033 24.7844 36.6596 24.7833 36.5614C24.778 36.2297 24.7812 35.899 24.7812 35.5672V35.5683Z" fill="#9F78EA"/>
<path d="M20.1997 11.1963C20.2147 11.2037 20.2307 11.2133 20.2467 11.2208C20.5208 11.3413 20.6456 11.5408 20.6168 11.8149C20.5869 12.1019 20.4067 12.3163 20.125 12.36C19.9192 12.3931 19.708 12.3995 19.4978 12.4048C19.2141 12.4123 18.9293 12.4048 18.6455 12.408C18.558 12.4091 18.5196 12.3867 18.5207 12.2918C18.5239 11.6069 18.5228 10.921 18.5207 10.2362C18.5207 10.1498 18.5506 10.1221 18.637 10.1221C19.0455 10.1263 19.4552 10.121 19.8637 10.1274C19.9672 10.1295 20.0749 10.1466 20.1709 10.1839C20.3704 10.2629 20.4899 10.4154 20.508 10.6352C20.5272 10.8613 20.4472 11.0384 20.2445 11.1525C20.2307 11.16 20.2189 11.1696 20.2061 11.1781C20.204 11.1803 20.204 11.1856 20.2008 11.1952L20.1997 11.1963ZM19.5042 11.4576C19.3279 11.459 19.2397 11.5483 19.2397 11.7253C19.2397 11.7637 19.2343 11.8043 19.2429 11.8416C19.2482 11.8651 19.2749 11.9035 19.2919 11.9035C19.4424 11.9035 19.5949 11.9067 19.7442 11.8875C19.8562 11.8725 19.9192 11.7723 19.9096 11.6667C19.9 11.5547 19.8317 11.4907 19.725 11.4725C19.6525 11.4608 19.5778 11.4629 19.5042 11.4576ZM19.5021 10.5957C19.2034 10.5989 19.2429 10.5701 19.2397 10.825C19.2397 10.8677 19.2333 10.9125 19.2439 10.952C19.2503 10.9765 19.2845 11.0128 19.3058 11.0128C19.4253 11.0128 19.5469 11.0149 19.6642 10.9968C19.7752 10.9797 19.8285 10.8965 19.82 10.7866C19.8114 10.6778 19.7506 10.617 19.644 10.6032C19.5864 10.5957 19.5277 10.5957 19.5021 10.5946V10.5957Z" fill="#9F78EA"/>
<path d="M30.9789 12.4047C30.7111 12.4047 30.47 12.4079 30.23 12.4005C30.197 12.4005 30.1564 12.3503 30.1351 12.3141C30.0135 12.0965 29.9047 11.8714 29.7756 11.6591C29.7319 11.5876 29.6444 11.5343 29.5655 11.4948C29.5025 11.4639 29.4599 11.5012 29.4609 11.5823C29.4641 11.8116 29.4567 12.0421 29.4641 12.2714C29.4684 12.3823 29.4279 12.4122 29.3233 12.4079C29.1676 12.4005 29.0118 12.4037 28.8561 12.4079C28.7825 12.4101 28.7526 12.3866 28.7526 12.3087C28.7548 11.6154 28.7537 10.922 28.7526 10.2286C28.7526 10.1753 28.7526 10.1252 28.8284 10.1262C29.3073 10.1337 29.7873 10.122 30.2642 10.155C30.5842 10.1764 30.7634 10.3886 30.7911 10.6831C30.821 11.0009 30.6684 11.2538 30.3772 11.3679C30.3527 11.3775 30.3282 11.3871 30.2876 11.4042C30.5095 11.5055 30.613 11.6911 30.709 11.8831C30.7922 12.0495 30.8775 12.2149 30.9767 12.4069L30.9789 12.4047ZM29.7404 10.5935C29.4172 10.5967 29.4673 10.5668 29.462 10.8324C29.462 10.8793 29.4545 10.9284 29.4652 10.9711C29.4727 10.9988 29.5089 11.0383 29.5324 11.0383C29.6636 11.0361 29.7959 11.0319 29.926 11.0116C30.0305 10.9956 30.0828 10.9156 30.086 10.8111C30.0881 10.7055 30.0231 10.6244 29.9153 10.6063C29.8471 10.5945 29.7756 10.5956 29.7404 10.5924V10.5935Z" fill="#9F78EA"/>
<path d="M28.4742 11.2711C28.4582 11.3981 28.4518 11.5271 28.424 11.6519C28.3174 12.1223 27.9579 12.4136 27.4373 12.4434C27.2837 12.452 27.1248 12.4434 26.9733 12.4157C26.5104 12.3293 26.1935 11.9975 26.1445 11.5271C26.1221 11.3138 26.1274 11.0887 26.1722 10.8796C26.2735 10.4039 26.6618 10.1105 27.1856 10.0892C27.3285 10.0828 27.4747 10.0913 27.6155 10.1169C28.1019 10.2065 28.4176 10.5649 28.456 11.061C28.4614 11.1303 28.456 11.2007 28.456 11.2711C28.4614 11.2711 28.4678 11.2711 28.4731 11.2722L28.4742 11.2711ZM27.7712 11.2562C27.7509 11.1452 27.7403 11.0151 27.7008 10.8956C27.6432 10.7207 27.4864 10.6268 27.2912 10.6257C27.1013 10.6257 26.9509 10.7154 26.889 10.8871C26.7973 11.1399 26.7984 11.4002 26.8901 11.6519C26.9562 11.8322 27.1141 11.9154 27.3307 11.9069C27.5184 11.8994 27.6581 11.7991 27.7093 11.6167C27.7403 11.5058 27.7488 11.3884 27.7701 11.254L27.7712 11.2562Z" fill="#9F78EA"/>
<path d="M18.1645 10.8826C18.1645 11.081 18.1666 11.2794 18.1645 11.4789C18.1581 12.0624 17.8178 12.4208 17.2354 12.4443C17.0498 12.4517 16.8609 12.4357 16.6785 12.4048C16.3479 12.3483 16.1377 12.1413 16.047 11.8213C16.015 11.7104 15.9958 11.592 15.9937 11.4768C15.9873 11.0682 15.9937 10.6586 15.9894 10.25C15.9894 10.153 16.0204 10.1188 16.1164 10.1231C16.2721 10.1295 16.4279 10.1284 16.5836 10.1231C16.6711 10.1199 16.6977 10.1519 16.6967 10.2383C16.6935 10.6586 16.6935 11.0799 16.6967 11.5002C16.6977 11.7104 16.7799 11.8352 16.9367 11.8864C17.2215 11.9792 17.454 11.8202 17.4583 11.5205C17.4636 11.1034 17.4636 10.6874 17.4583 10.2703C17.4572 10.1615 17.4818 10.1156 17.5991 10.1231C17.7463 10.1327 17.8957 10.1306 18.0429 10.1231C18.1421 10.1188 18.1698 10.1572 18.1677 10.2522C18.1623 10.4623 18.1655 10.6725 18.1655 10.8826H18.1645Z" fill="#9F78EA"/>
<path d="M23.6964 10.7706C23.4841 10.7834 23.2868 10.7994 23.0894 10.8047C23.066 10.8047 23.0318 10.762 23.019 10.7322C22.9412 10.5519 22.7748 10.4676 22.5913 10.538C22.5401 10.5572 22.4782 10.6244 22.4739 10.6735C22.4707 10.7194 22.5273 10.7983 22.5742 10.8154C22.7278 10.8709 22.8889 10.9007 23.0457 10.9466C23.1502 10.9775 23.2548 11.0106 23.354 11.0543C23.6025 11.1621 23.7583 11.3477 23.7721 11.625C23.786 11.9024 23.6729 12.1274 23.4414 12.2821C23.1801 12.456 22.8836 12.4613 22.5849 12.4421C22.4921 12.4357 22.3993 12.4208 22.3086 12.3984C21.9662 12.313 21.7347 12.0176 21.7315 11.6485C21.9342 11.6346 22.1379 11.6186 22.3427 11.6122C22.363 11.6122 22.395 11.6602 22.4046 11.6922C22.4835 11.9333 22.6435 12.0304 22.8878 11.9781C22.9924 11.9557 23.0681 11.8949 23.082 11.7861C23.0958 11.6805 23.0372 11.6037 22.9422 11.5674C22.8409 11.5279 22.7342 11.5055 22.6307 11.4693C22.459 11.4095 22.2809 11.3594 22.1187 11.2773C21.9086 11.1706 21.7976 10.9871 21.8062 10.7439C21.8147 10.505 21.9214 10.3172 22.1347 10.217C22.5326 10.0281 22.9433 10.0292 23.3444 10.2031C23.5716 10.3023 23.6644 10.5092 23.6932 10.7716L23.6964 10.7706Z" fill="#9F78EA"/>
<path d="M13.7845 10.8026C13.601 10.8442 13.4176 10.8879 13.2309 10.9242C13.2085 10.9284 13.1679 10.889 13.1519 10.8612C13.0517 10.6767 12.9205 10.6041 12.7125 10.6255C12.5471 10.6426 12.4106 10.762 12.3668 10.9455C12.3124 11.1727 12.3167 11.4021 12.3732 11.6282C12.4138 11.7903 12.5386 11.8906 12.6975 11.9055C12.8725 11.9215 13.025 11.8821 13.1135 11.7135C13.1509 11.6421 13.1786 11.5642 13.2181 11.4714C13.4144 11.5311 13.6128 11.5909 13.808 11.6506C13.777 12.0239 13.4784 12.36 13.0965 12.4144C12.881 12.4453 12.6517 12.4421 12.4362 12.409C12.0159 12.344 11.7812 12.057 11.6703 11.6655C11.5935 11.3946 11.5999 11.1172 11.6713 10.8452C11.7919 10.3865 12.1439 10.1081 12.6485 10.09C12.8213 10.0836 13.0005 10.0996 13.169 10.138C13.4794 10.2084 13.7408 10.5007 13.7845 10.8036V10.8026Z" fill="#9F78EA"/>
<path d="M24.025 11.2623C24.025 10.9231 24.0271 10.5839 24.0239 10.2457C24.0239 10.1572 24.0484 10.122 24.1434 10.1231C24.5093 10.1284 24.8762 10.1199 25.2421 10.1284C25.8277 10.1412 26.1381 10.6852 25.8597 11.2068C25.7221 11.4639 25.4832 11.5429 25.2154 11.561C25.0917 11.5695 24.9658 11.5674 24.841 11.5631C24.7599 11.5599 24.7311 11.5887 24.7333 11.6698C24.7375 11.8799 24.7322 12.0912 24.7354 12.3013C24.7365 12.3813 24.7087 12.4122 24.6266 12.4101C24.4634 12.4058 24.2991 12.4048 24.1359 12.4101C24.0463 12.4133 24.0228 12.377 24.0239 12.2928C24.0271 11.9503 24.025 11.6069 24.025 11.2645V11.2623ZM24.7343 10.8367C24.7343 11.1151 24.7407 11.1215 25.0074 11.0863C25.1738 11.0639 25.257 10.9775 25.2517 10.8324C25.2474 10.6863 25.161 10.6074 24.9882 10.601C24.6757 10.5903 24.7418 10.5828 24.7343 10.8367Z" fill="#9F78EA"/>
<path d="M31.9859 10.1253C32.2931 10.1253 32.6014 10.1295 32.9086 10.1231C33.0185 10.121 33.0515 10.1594 33.0441 10.2639C33.0366 10.3727 33.0377 10.4815 33.0441 10.5904C33.0483 10.6736 33.0142 10.6992 32.9352 10.697C32.7838 10.6928 32.6312 10.7024 32.4798 10.6938C32.3688 10.6874 32.3315 10.7205 32.3336 10.8357C32.34 11.3104 32.3326 11.7851 32.339 12.2608C32.3411 12.3814 32.3038 12.4176 32.1864 12.4102C32.0435 12.4006 31.8984 12.4027 31.7544 12.4102C31.6573 12.4144 31.6275 12.3814 31.6285 12.2843C31.6328 11.8011 31.6264 11.3189 31.6328 10.8357C31.6339 10.7205 31.5976 10.6885 31.4867 10.6938C31.3352 10.7024 31.1826 10.6906 31.0312 10.6981C30.9362 10.7024 30.9074 10.665 30.9117 10.5754C30.917 10.4666 30.9181 10.3567 30.9117 10.249C30.9053 10.1487 30.948 10.1231 31.0408 10.1242C31.3565 10.1285 31.6712 10.1263 31.9869 10.1263L31.9859 10.1253Z" fill="#9F78EA"/>
<path d="M14.064 11.2551C14.064 10.9202 14.0672 10.5852 14.0619 10.2503C14.0608 10.1532 14.0917 10.1191 14.1877 10.1233C14.3349 10.1297 14.4843 10.1308 14.6315 10.1233C14.7382 10.118 14.7734 10.1521 14.7723 10.2609C14.767 10.7399 14.7734 11.2188 14.768 11.6978C14.767 11.813 14.8032 11.8429 14.9142 11.8397C15.1862 11.8322 15.4592 11.8397 15.7323 11.8354C15.8198 11.8343 15.8614 11.8557 15.855 11.9527C15.8475 12.069 15.8507 12.1864 15.855 12.3026C15.8571 12.3762 15.8326 12.4072 15.7558 12.4061C15.2256 12.404 14.6965 12.404 14.1664 12.4061C14.0789 12.4061 14.064 12.3666 14.064 12.292C14.0661 11.9453 14.064 11.5986 14.064 11.2519V11.2551Z" fill="#9F78EA"/>
<path d="M17.9725 35.1121C17.9725 34.874 17.9725 34.8719 18.2148 34.8751C18.2959 34.8762 18.3781 34.8826 18.4571 34.8975C18.5585 34.9178 18.6066 34.9904 18.6098 35.0907C18.6141 35.1953 18.5724 35.2861 18.4689 35.3053C18.3247 35.332 18.1764 35.3352 18.0301 35.3416C18.012 35.3416 17.9789 35.3 17.9746 35.2743C17.9661 35.221 17.9725 35.1655 17.9725 35.111V35.1121Z" fill="#9F78EA"/>
<path d="M23.1337 35.5742C23.123 35.6724 23.1188 35.7738 23.0996 35.872C23.0611 36.0706 22.9565 36.1549 22.7323 36.1816C22.538 36.2051 22.4409 36.1201 22.4409 35.9265C22.4409 35.634 22.4452 35.3415 22.4387 35.05C22.4366 34.9497 22.4729 34.9155 22.5669 34.9273C22.6213 34.9337 22.6757 34.9337 22.7302 34.9401C22.9586 34.971 23.0611 35.066 23.1028 35.2924C23.1198 35.3842 23.1241 35.477 23.1337 35.5742Z" fill="#9F78EA"/>
<path d="M31.5581 35.532C31.5346 35.6717 31.5239 35.7933 31.493 35.9085C31.4429 36.0952 31.3021 36.2008 31.1101 36.2125C30.8967 36.2264 30.7239 36.1368 30.6556 35.9565C30.5575 35.6962 30.5575 35.4285 30.6556 35.1693C30.7239 34.989 30.8754 34.9101 31.0621 34.9111C31.2477 34.9111 31.4023 34.9858 31.4706 35.1661C31.5165 35.2866 31.5314 35.421 31.5559 35.533L31.5581 35.532Z" fill="#9F78EA"/>
<path d="M26.4084 35.827H25.9066C25.9867 35.559 26.0646 35.3007 26.1415 35.0434C26.1511 35.0434 26.1607 35.0423 26.1692 35.0413C26.2472 35.2975 26.3251 35.5548 26.4084 35.8259V35.827Z" fill="#9F78EA"/>
</svg>
