<svg width="36" height="36" viewBox="0 0 36 36" fill="none" xmlns="http://www.w3.org/2000/svg">
<path d="M27.3383 18.7814L29.6016 24.223L35.4763 24.694L31.0004 28.5281L32.3678 34.2608L27.3383 31.1888L22.3087 34.2608L23.6761 28.5281L19.2002 24.694L25.0749 24.223L27.3383 18.7814Z" fill="#D0FC41"/>
<path d="M27.3383 18.7814L29.6016 24.223L35.4763 24.694L31.0004 28.5281L32.3678 34.2608L27.3383 31.1888L22.3087 34.2608L23.6761 28.5281L19.2002 24.694L25.0749 24.223L27.3383 18.7814Z" fill="url(#paint0_linear_27_35)"/>
<circle cx="8.55119" cy="27.3385" r="7.65611" fill="white"/>
<circle cx="8.55119" cy="27.3385" r="7.65611" fill="url(#paint1_linear_27_35)"/>
<circle cx="8.55125" cy="8.55112" r="7.65611" fill="white"/>
<circle cx="8.55125" cy="8.55112" r="7.65611" fill="url(#paint2_linear_27_35)"/>
<circle cx="26.4377" cy="8.55112" r="7.65611" fill="white"/>
<circle cx="26.4377" cy="8.55112" r="7.65611" fill="url(#paint3_linear_27_35)"/>
<defs>
<linearGradient id="paint0_linear_27_35" x1="27.3653" y1="15.2446" x2="27.2447" y2="35.8945" gradientUnits="userSpaceOnUse">
<stop stop-color="#6E2AF3"/>
<stop offset="1" stop-color="#1E0C41"/>
</linearGradient>
<linearGradient id="paint1_linear_27_35" x1="8.57534" y1="16.5178" x2="8.46747" y2="34.9941" gradientUnits="userSpaceOnUse">
<stop stop-color="#6E2AF3"/>
<stop offset="1" stop-color="#1E0C41"/>
</linearGradient>
<linearGradient id="paint2_linear_27_35" x1="8.5754" y1="-2.2695" x2="8.46754" y2="16.2067" gradientUnits="userSpaceOnUse">
<stop stop-color="#6E2AF3"/>
<stop offset="1" stop-color="#1E0C41"/>
</linearGradient>
<linearGradient id="paint3_linear_27_35" x1="26.4618" y1="-2.2695" x2="26.3539" y2="16.2067" gradientUnits="userSpaceOnUse">
<stop stop-color="#6E2AF3"/>
<stop offset="1" stop-color="#1E0C41"/>
</linearGradient>
</defs>
</svg>
