<svg width="36" height="36" viewBox="0 0 36 36" fill="none" xmlns="http://www.w3.org/2000/svg">
<path fill-rule="evenodd" clip-rule="evenodd" d="M5.07936 15.0289L6.5131 11.2337L3.89864 7.35415L7.60948 3.81198L11.1517 6.76379L14.7782 5.07704L15.3685 0.522827H20.5974L21.1035 5.07704L24.73 6.76379L28.2721 3.81198L31.8986 7.35415L29.2842 11.2337L30.8866 15.0289L35.3565 15.6192V20.4264L30.8866 21.1011L29.2842 24.9807L31.8986 28.3542L28.2721 32.2337L24.73 29.3662L21.1035 31.0529V35.5228H15.7902L14.7782 31.0529L11.1517 29.3662L7.60948 32.2337L3.89864 28.3542L6.5131 24.9807L5.07936 21.6072L0.525146 21.1011V15.6192L5.07936 15.0289ZM17.9838 25.1492C21.8964 25.1492 25.0682 21.9774 25.0682 18.0648C25.0682 14.1522 21.8964 10.9805 17.9838 10.9805C14.0713 10.9805 10.8995 14.1522 10.8995 18.0648C10.8995 21.9774 14.0713 25.1492 17.9838 25.1492Z" fill="url(#paint0_linear_27_41)"/>
<defs>
<linearGradient id="paint0_linear_27_41" x1="17.9957" y1="-6.71051" x2="17.748" y2="35.5217" gradientUnits="userSpaceOnUse">
<stop stop-color="#6E2AF3"/>
<stop offset="1" stop-color="#1E0C41"/>
</linearGradient>
</defs>
</svg>
