<svg width="45" height="36" viewBox="0 0 45 36" fill="none" xmlns="http://www.w3.org/2000/svg">
<path fill-rule="evenodd" clip-rule="evenodd" d="M7.4461 1.30055C7.72682 1.0334 8.09736 0.877563 8.47914 0.877563H44.1192C44.7704 0.877563 45.0961 1.65675 44.6357 2.11314L37.5953 9.09245C37.3258 9.3596 36.9552 9.51544 36.5622 9.51544H0.922196C0.270928 9.51544 -0.0547054 8.73625 0.405673 8.27987L7.4461 1.30055ZM7.44612 27.3589C7.71561 27.0918 8.08616 26.9359 8.47917 26.9359H44.1192C44.7705 26.9359 45.0961 27.7151 44.6357 28.1715L37.5953 35.1508C37.3258 35.418 36.9553 35.5738 36.5623 35.5738H0.922221C0.270954 35.5738 -0.0546797 34.7946 0.405699 34.3382L7.44612 27.3589ZM36.5623 13.8232C36.9553 13.8232 37.3258 13.979 37.5953 14.2462L44.6357 21.2255C45.0961 21.6819 44.7705 22.4611 44.1192 22.4611H8.47917C8.08616 22.4611 7.71561 22.3053 7.44612 22.0381L0.405699 15.0588C-0.0546797 14.6024 0.270954 13.8232 0.922221 13.8232H36.5623Z" fill="url(#paint0_linear_65_151)"/>
<defs>
<linearGradient id="paint0_linear_65_151" x1="22.5911" y1="-6.29299" x2="22.4013" y2="35.5733" gradientUnits="userSpaceOnUse">
<stop stop-color="#6E2AF3"/>
<stop offset="1" stop-color="#1E0C41"/>
</linearGradient>
</defs>
</svg>
