<svg width="40" height="38" viewBox="0 0 40 38" fill="none" xmlns="http://www.w3.org/2000/svg">
<path d="M19.0696 1.36342C19.3625 0.462138 20.6375 0.462137 20.9304 1.36342L24.8319 13.3712C24.9629 13.7742 25.3385 14.0471 25.7623 14.0471H38.388C39.3357 14.0471 39.7297 15.2598 38.963 15.8168L28.7486 23.238C28.4057 23.4871 28.2623 23.9287 28.3932 24.3317L32.2948 36.3395C32.5876 37.2407 31.5561 37.9902 30.7894 37.4332L20.575 30.012C20.2321 29.7629 19.7679 29.7629 19.425 30.012L9.2106 37.4332C8.44393 37.9902 7.41237 37.2407 7.70521 36.3395L11.6068 24.3317C11.7377 23.9287 11.5943 23.4871 11.2514 23.238L1.037 15.8168C0.270323 15.2598 0.664341 14.0471 1.61201 14.0471H14.2377C14.6615 14.0471 15.0371 13.7742 15.1681 13.3712L19.0696 1.36342Z" fill="url(#paint0_linear_27_6)"/>
<defs>
<linearGradient id="paint0_linear_27_6" x1="20.071" y1="-10.8" x2="19.754" y2="43.4986" gradientUnits="userSpaceOnUse">
<stop stop-color="#6E2AF3"/>
<stop offset="1" stop-color="#1E0C41"/>
</linearGradient>
</defs>
</svg>
