<svg width="45" height="36" viewBox="0 0 45 36" fill="none" xmlns="http://www.w3.org/2000/svg">
<path d="M19.1356 18.4853C16.687 22.7051 14.3341 29.2169 13.1657 35.0074L17.3796 36C18.4696 27.8008 20.4503 21.0745 23.1904 16.3883L24.2842 14.5178L24.5122 15.7646C24.7219 16.9108 24.8001 17.0114 25.4827 17.0114C25.891 17.0114 26.2251 17.1295 26.2251 17.2738C26.2251 17.4182 25.9363 17.5363 25.5833 17.5363C24.9043 17.5363 24.8106 17.7063 25.1701 18.2862C25.3124 18.516 25.6072 18.58 26.0005 18.4667L26.6102 18.2909L26.02 18.7774C25.2216 19.4357 25.4902 20.2165 26.4444 20.0115C27.0164 19.8886 27.0527 19.9117 26.6743 20.1576C25.9343 20.6388 26.1058 21.2469 26.9311 21.0683C27.5195 20.9409 27.5623 20.9641 27.1878 21.2076C26.6805 21.5374 26.6466 21.7061 26.9796 22.2441C27.1729 22.5565 27.2821 22.5622 27.6175 22.2776C27.864 22.0685 28.0222 22.0434 28.0222 22.2134C28.0222 22.3669 27.9066 22.5655 27.7654 22.6547C27.3324 22.9284 27.4646 23.204 28.7064 24.6161C29.6664 25.7079 29.9474 25.8989 30.1226 25.5788C30.4877 24.9117 29.6415 18.7705 28.881 16.5685C28.7754 16.2627 29.0742 16.4241 29.7172 17.02C31.9008 19.0437 31.7796 18.9897 32.2527 18.1494L32.6717 17.4051L32.5282 18.2958C32.4447 18.8138 32.5125 19.3439 32.6903 19.563C32.9501 19.8831 33.068 19.8479 33.4762 19.3285L33.9565 18.7175L33.8075 19.505C33.6935 20.1078 33.7761 20.3671 34.1595 20.611C34.5991 20.8907 34.6916 20.8425 34.9152 20.2173C35.1639 19.5218 35.1704 19.5282 35.1902 20.4893C35.2134 21.616 35.7284 21.8166 36.2014 20.883C36.4796 20.3338 36.4945 20.3523 36.4131 21.1482C36.3338 21.9239 36.4333 22.0656 37.4758 22.6613C38.1084 23.0228 38.6741 23.2694 38.733 23.2093C38.9197 23.0184 37.6039 19.4331 36.8901 18.1878C35.4699 15.7101 33.3167 13.8041 30.6662 12.6786L29.1774 12.0464L30.5074 12.0354C31.6776 12.0256 31.851 11.9534 31.951 11.4337L32.0646 10.8431L32.2555 11.4337C32.3605 11.7585 32.6559 12.0243 32.912 12.0243C33.1901 12.0243 33.4235 11.7864 33.4913 11.4337L33.605 10.8431L33.7959 11.4337C33.9228 11.8264 34.1918 12.0243 34.5986 12.0243C35.0568 12.0243 35.2148 11.876 35.2279 11.4337L35.2453 10.8431L35.5239 11.4337C35.9222 12.278 36.6935 12.1995 36.8127 11.3024L36.9086 10.5806L37.2194 11.3318C37.4676 11.9318 37.6457 12.0514 38.1033 11.926C38.4185 11.8397 39.243 11.768 39.9356 11.7654C41.1188 11.762 41.1702 11.734 40.7876 11.3024C40.1247 10.5547 37.6373 9.11497 35.8843 8.46436C33.1244 7.44013 31.0022 7.38295 27.6308 8.24198C26.9138 8.42467 26.8906 8.40716 27.2521 7.95666C27.5455 7.59089 27.5608 7.45044 27.3162 7.36629C26.7806 7.18195 26.9576 6.77654 27.5447 6.84334C28.2236 6.92061 28.482 6.34002 27.8439 6.1709C27.589 6.10334 27.7848 6.03053 28.279 6.00928C29.1265 5.97268 29.1492 5.94863 28.6792 5.58512C28.2068 5.21995 28.2228 5.19974 28.9849 5.19974C29.7451 5.19974 30.4847 4.69145 29.7703 4.65995C29.5855 4.65179 29.7961 4.50414 30.2383 4.33185C30.6805 4.15953 31.5388 3.57562 32.1458 3.03424L33.2492 2.04993H32.3584C31.1697 2.04993 28.7687 2.70517 27.4645 3.38545C26.8839 3.68827 25.8466 4.47383 25.1593 5.13116L23.9096 6.32629L22.6816 5.01672C20.6856 2.8883 16.0771 1 12.8785 1H12.0898L12.6691 1.801C13.1351 2.44539 13.3749 2.57032 13.8962 2.4399C14.4927 2.29067 14.5066 2.30628 14.0717 2.63701C13.637 2.96751 13.6327 3.02467 14.0184 3.35191C14.3358 3.6213 14.5096 3.63385 14.7347 3.40371C15.2486 2.87824 15.5451 3.07406 15.0619 3.6199C14.6763 4.05549 14.6563 4.20736 14.9387 4.55518C15.2438 4.93111 15.297 4.93157 15.5003 4.56013C15.6238 4.33445 15.8951 4.14983 16.1031 4.14983C16.4311 4.14983 16.4287 4.23217 16.0846 4.76897C15.731 5.32084 15.73 5.42392 16.0757 5.71724C16.3925 5.98605 16.4926 5.9688 16.6224 5.62303C16.7097 5.39023 16.8885 5.19977 17.0195 5.19977C17.1506 5.19977 17.1218 5.45957 16.9556 5.77709C16.6827 6.29849 16.7751 6.46321 17.9093 7.47781L19.1652 8.60125L17.9186 8.60675C15.1803 8.61859 11.4669 10.1443 8.88963 12.3163C7.74683 13.2795 4.85781 16.5137 5.00545 16.6647C5.17243 16.8354 7.72594 15.8868 7.61106 15.6967C7.53666 15.5737 7.59318 15.3988 7.73669 15.3081C7.8802 15.2174 7.99761 15.2683 7.99761 15.4212C7.99761 15.5741 8.17089 15.6992 8.38269 15.6992C8.59662 15.6992 8.76778 15.4659 8.76778 15.1742C8.76778 14.8855 8.88332 14.6492 9.02452 14.6492C9.16571 14.6492 9.28124 14.8264 9.28124 15.043C9.28124 15.4816 9.50266 15.5348 9.99594 15.2148C10.1834 15.0933 10.2574 14.7836 10.1675 14.497C10.015 14.0108 10.023 14.01 10.3962 14.4755C10.9957 15.2235 11.7347 14.9366 11.6514 13.9882L11.5828 13.2056L11.9757 13.9179C12.4245 14.7315 13.1321 14.6493 13.1321 13.7836C13.1321 13.2684 13.1517 13.2639 13.4683 13.7066C13.7596 14.1138 13.9397 14.1382 14.8161 13.8895C16.2948 13.4697 16.2971 13.4766 15.1714 14.9774C13.5545 17.133 11.2705 22.3765 12.1893 21.8235C13.5637 20.9962 14.1597 20.3084 14.1682 19.5397C14.1767 18.7657 14.1954 18.75 14.4891 19.2699C14.9852 20.1482 15.4406 19.7262 15.4624 18.3678L15.4822 17.1429L15.7834 18.1558C16.0829 19.1632 16.0871 19.1658 16.558 18.6327C16.9151 18.2285 16.9885 17.8827 16.8566 17.226L16.6818 16.3553L17.1324 17.0115C17.3802 17.3724 17.6096 17.7049 17.6421 17.7504C17.6745 17.7959 18.2589 17.4782 18.9406 17.0443C19.6224 16.6105 20.2153 16.2915 20.2584 16.3355C20.3014 16.3795 19.7961 17.3469 19.1356 18.4853Z" fill="url(#paint0_linear_551_1447)"/>
<defs>
<linearGradient id="paint0_linear_551_1447" x1="23.0568" y1="-6.23333" x2="22.8171" y2="35.999" gradientUnits="userSpaceOnUse">
<stop stop-color="#6E2AF3"/>
<stop offset="1" stop-color="#1E0C41"/>
</linearGradient>
</defs>
</svg>
