<?xml version="1.0" encoding="UTF-8" standalone="no"?>
<!-- Uploaded to: SVG Repo, www.svgrepo.com, Generator: SVG Repo Mixer Tools -->

<svg
   fill="#000000"
   width="800"
   height="800"
   viewBox="0 0 24 24"
   version="1.1"
   id="svg1"
   xmlns="http://www.w3.org/2000/svg"
   xmlns:svg="http://www.w3.org/2000/svg">
  <defs
     id="defs1" />
  <path
     d="m 12.434,4.693 c 0.132,-0.225 0.345,-0.391 0.598,-0.458 l 0.007,-0.002 c 0.082,-0.028 0.176,-0.044 0.275,-0.044 0.177,0 0.341,0.053 0.479,0.143 L 13.79,4.33 c 0.219,0.139 0.382,0.349 0.458,0.597 l 0.002,0.008 c 0.025,0.078 0.039,0.169 0.039,0.262 0,0.192 -0.06,0.369 -0.162,0.515 l 0.002,-0.003 -4.21,7.307 h 3.048 0.029 c 0.467,0 0.87,0.274 1.057,0.671 l 0.003,0.007 c 0.118,0.192 0.187,0.425 0.187,0.674 0,0.232 -0.061,0.45 -0.167,0.639 L 14.079,15 H 5.132 c -0.008,0 -0.017,0 -0.027,0 -0.273,0 -0.52,-0.111 -0.699,-0.291 -0.179,-0.175 -0.29,-0.418 -0.29,-0.688 0,-0.005 0,-0.01 0,-0.014 v 10e-4 c 0,-0.004 0,-0.009 0,-0.014 0,-0.27 0.111,-0.513 0.29,-0.688 0.178,-0.18 0.426,-0.291 0.699,-0.291 H 5.133 5.132 7.648 L 10.841,7.451 9.87,5.712 C 9.77,5.569 9.71,5.391 9.71,5.2 9.71,5.106 9.724,5.016 9.751,4.931 L 9.749,4.937 C 9.827,4.681 9.99,4.471 10.205,4.335 l 0.004,-0.003 c 0.134,-0.089 0.299,-0.141 0.476,-0.141 0.098,0 0.193,0.016 0.281,0.046 L 10.96,4.235 c 0.26,0.069 0.473,0.235 0.602,0.455 L 11.565,4.695 12,5.469 Z M 7.257,17.66 c -0.151,0.216 -0.368,0.378 -0.62,0.458 L 6.629,18.12 c -0.081,0.027 -0.175,0.043 -0.272,0.043 -0.177,0 -0.342,-0.052 -0.481,-0.142 l 0.003,0.002 C 5.652,17.893 5.485,17.679 5.42,17.425 L 5.419,17.418 C 5.399,17.34 5.387,17.25 5.387,17.157 c 0,-0.188 0.048,-0.365 0.131,-0.519 l -0.003,0.006 0.726,-1.21 c 0.169,-0.061 0.365,-0.097 0.569,-0.097 0.556,0 1.05,0.264 1.363,0.674 l 0.003,0.004 z m 11.661,-4.644 h 0.027 c 0.273,0 0.52,0.111 0.699,0.291 0.179,0.175 0.29,0.418 0.29,0.688 v 0.014 -0.001 0.014 c 0,0.27 -0.111,0.513 -0.29,0.688 -0.178,0.18 -0.426,0.291 -0.699,0.291 -0.009,0 -0.019,0 -0.028,0 h 10e-4 -1.403 l 0.968,1.645 c 0.075,0.137 0.119,0.3 0.119,0.474 0,0.107 -0.017,0.211 -0.048,0.308 l 0.002,-0.007 c -0.078,0.256 -0.241,0.466 -0.456,0.602 l -0.004,0.003 c -0.134,0.088 -0.299,0.141 -0.475,0.141 -0.098,0 -0.192,-0.016 -0.28,-0.046 l 0.006,0.002 c -0.26,-0.069 -0.473,-0.235 -0.602,-0.455 l -0.003,-0.005 -3.629,-6.338 c -0.273,-0.429 -0.435,-0.952 -0.435,-1.512 0,-0.184 0.017,-0.363 0.051,-0.538 L 12.726,9.293 C 12.817,8.77 13.078,8.319 13.449,7.989 l 0.002,-0.002 2.903,5.032 z M 11.999,0.001 h 0.077 c 2.185,0 4.229,0.602 5.976,1.65 L 17.999,1.622 c 1.824,1.075 3.304,2.555 4.348,4.322 L 22.378,6 c 1.018,1.694 1.621,3.738 1.621,5.923 V 12.004 12 12.077 c 0,2.185 -0.602,4.229 -1.65,5.976 L 22.378,18 c -1.075,1.824 -2.555,3.304 -4.322,4.348 L 18,22.379 C 16.306,23.397 14.262,24 12.077,24 12.05,24 12.023,24 11.996,24 H 12 c -0.023,0 -0.05,0 -0.077,0 C 9.738,24 7.694,23.398 5.947,22.35 L 6,22.379 C 4.176,21.304 2.696,19.824 1.652,18.056 L 1.621,18 C 0.603,16.306 0,14.262 0,12.077 0,12.05 0,12.023 0,11.996 V 12 C 0,11.977 0,11.95 0,11.923 0,9.738 0.602,7.694 1.65,5.947 L 1.621,6 C 2.696,4.176 4.176,2.696 5.943,1.652 L 5.999,1.621 C 7.693,0.603 9.737,0 11.922,0 h 0.081 -0.004 z M 22.451,12 c 0,-0.027 0,-0.058 0,-0.09 0,-1.901 -0.52,-3.681 -1.426,-5.205 l 0.026,0.047 C 20.117,5.164 18.824,3.879 17.279,2.981 L 17.229,2.954 C 15.744,2.073 13.956,1.552 12.046,1.552 c -0.025,0 -0.05,0 -0.075,0 h 0.004 c -0.022,0 -0.048,0 -0.075,0 -1.899,0 -3.677,0.521 -5.197,1.429 L 6.749,2.955 C 5.161,3.889 3.876,5.181 2.978,6.726 L 2.951,6.776 C 2.069,8.261 1.548,10.051 1.548,11.962 v 0.065 -0.003 0.075 c 0,1.899 0.521,3.677 1.429,5.197 L 2.951,17.25 c 0.934,1.588 2.227,2.873 3.772,3.771 l 0.05,0.027 c 1.485,0.882 3.275,1.403 5.186,1.403 h 0.067 -0.003 0.075 c 1.899,0 3.677,-0.521 5.197,-1.429 l -0.046,0.026 c 1.59,-0.934 2.876,-2.227 3.775,-3.773 l 0.027,-0.05 c 0.882,-1.481 1.403,-3.267 1.403,-5.174 0,-0.018 0,-0.037 0,-0.055 v 0.003 z"
     id="path1"
     style="fill:#ffffff" />
</svg>
