<svg width="17" height="18" viewBox="0 0 17 18" fill="none" xmlns="http://www.w3.org/2000/svg">
<path d="M10.9419 1.66815C11.2796 2.42206 11.4963 3.23056 11.5696 4.06464L11.6532 5.00445C11.8937 5.25348 12.1018 5.5264 12.2792 5.81977C13.2395 6.80224 13.8364 8.1412 13.8364 9.60808C13.8364 12.5998 11.3581 15.1004 8.36635 15.1004C5.3746 15.1004 2.89625 12.5998 2.89625 9.60808C2.89625 8.1395 3.49323 6.80054 4.45523 5.81807C4.62579 5.53834 4.82536 5.27395 5.05221 5.03516L5.1392 4.06633C5.21255 3.23567 5.42747 2.42719 5.7652 1.67669C2.41525 2.76832 0 5.91358 0 9.63196C0 14.2373 3.74055 18 8.36805 18C12.9956 18 16.7361 14.2373 16.7361 9.63196C16.7361 5.90505 14.297 2.75638 10.9419 1.66986V1.66815Z" fill="white"/>
<path d="M10.2767 10.2648V9.99525H10.246C10.2272 10.1573 10.1982 10.3176 10.159 10.4797C10.0123 11.0613 9.73769 12.0557 9.38803 12.8489C9.66606 13.6164 10.0635 14.3396 10.5752 14.9827L11.0886 15.6308L12.1427 14.795L11.6293 14.1469C10.7577 13.0467 10.2784 11.6685 10.2784 10.2648H10.2767Z" fill="white"/>
<path d="M6.65555 10.4797C6.61461 10.3193 6.58561 10.1573 6.56856 9.99525H6.53786V10.2648C6.53786 11.6685 6.05856 13.0467 5.18696 14.1469L4.67355 14.795L5.72766 15.6308L6.24107 14.9827C6.75107 14.3379 7.1502 13.6147 7.42823 12.8489C7.07856 12.0557 6.80394 11.063 6.65726 10.4797H6.65555Z" fill="white"/>
<path d="M10.6537 5.09656L10.5633 4.09021C10.42 2.48517 9.62343 1.00976 8.36123 0.0085263V0C8.36123 0 8.35781 0.00340427 8.3561 0.00340427C8.3561 0.00340427 8.3527 0 8.35099 0V0.0085263C7.08879 1.00976 6.29225 2.48517 6.14897 4.09021L6.05686 5.12043C5.39335 5.74642 4.97887 6.6402 4.97887 7.63119C4.97887 7.96721 5.02662 8.29129 5.11532 8.59831C5.99886 7.97062 7.13143 7.59537 8.36805 7.59537C9.60466 7.59537 10.7372 7.97233 11.6208 8.59831C11.7095 8.29129 11.7572 7.96721 11.7572 7.63119C11.7572 6.62826 11.3325 5.72596 10.6554 5.09827L10.6537 5.09656ZM8.36805 4.50639C7.83758 4.50639 7.40605 4.07656 7.40605 3.54439C7.40605 3.01222 7.83587 2.5824 8.36805 2.5824C8.90022 2.5824 9.33005 3.01222 9.33005 3.54439C9.33005 4.07656 8.90022 4.50639 8.36805 4.50639Z" fill="white"/>
<path d="M9.43239 9.35733C9.38122 8.79445 9.15436 8.43967 8.9258 8.22305C8.63584 7.94673 8.17871 7.94673 7.88704 8.22305C7.65848 8.43967 7.43163 8.79445 7.38046 9.35733C7.35317 9.66605 7.38046 9.97819 7.45551 10.2801C7.60049 10.8583 7.95186 12.1478 8.37317 12.9085C8.3834 12.929 8.39534 12.9478 8.40557 12.9665C8.41581 12.9478 8.42775 12.929 8.43798 12.9085C8.85928 12.1461 9.21065 10.8583 9.35564 10.2801C9.43069 9.97819 9.45968 9.66776 9.43069 9.35733H9.43239Z" fill="white"/>
</svg>
