<svg width="97" height="18" viewBox="0 0 97 18" fill="none" xmlns="http://www.w3.org/2000/svg">
<path d="M6.54298 11.1022V8.2043H11.2182C13.8825 8.2043 16.0334 10.3552 16.0334 13.0194C16.0334 15.6837 13.8825 17.8346 11.2182 17.8346H8.15655C3.64503 17.8107 0 14.1656 0 9.65412C0 5.14261 3.66891 1.44982 8.20431 1.44982H14.1179V4.34776H8.20431C5.2586 4.34776 2.89794 6.70842 2.89794 9.65412C2.89794 12.5998 5.2586 14.9366 8.20431 14.9366H11.2199C13.7682 14.9366 13.7682 11.1039 11.2199 11.1039H6.54468L6.54298 11.1022Z" fill="#FCF0F8"/>
<path d="M25.3583 1.42594C30.8284 1.42594 31.3879 3.69278 31.3879 6.49862V12.622C31.3879 16.0572 28.9812 17.8346 25.2167 17.8346C21.4523 17.8346 17.9949 17.6009 17.9949 12.8796C17.9949 7.38729 28.4899 8.22818 28.4899 5.98521C28.4899 4.16184 25.8717 4.32559 25.3583 4.32559H19.6085V1.42765H25.3583V1.42594ZM28.4899 9.56031C25.3805 10.7986 20.8928 11.15 20.8928 12.8796C20.8928 13.7443 21.0566 14.9366 24.1643 14.9366C29.1193 14.9366 28.4882 13.8842 28.4882 9.56031H28.4899Z" fill="#FCF0F8"/>
<path d="M44.641 14.9366V17.8346H38.5636C35.8994 17.8346 33.7246 15.6615 33.7246 12.9955V1.44982H36.6226V12.9955C36.6226 14.0701 37.4874 14.9349 38.5619 14.9349H44.6393L44.641 14.9366Z" fill="#FCF0F8"/>
<path d="M46.9777 1.44982H49.8757V17.8346H46.9777V1.44982Z" fill="#FCF0F8"/>
<path d="M63.1288 14.9366V17.8346H57.0515C54.3872 17.8346 52.2124 15.6615 52.2124 12.9955V1.44982H55.1104V12.9955C55.1104 14.0701 55.9752 14.9349 57.0497 14.9349H63.1271L63.1288 14.9366Z" fill="#FCF0F8"/>
<path d="M72.4537 17.8346C67.9422 17.7885 64.2972 14.1418 64.2972 9.63024C64.2972 5.11873 67.9661 1.42594 72.5015 1.42594H78.4151V4.32388H72.5015C69.5797 4.32388 67.1951 6.68454 67.1951 9.63024C67.1951 12.5759 69.5797 14.9366 72.5015 14.9366H78.4151V17.8346H72.4554H72.4537ZM70.7242 11.0801V8.18212H76.1704V11.0801H70.7242Z" fill="#FCF0F8"/>
<path d="M90.493 1.66815C90.8307 2.42206 91.0473 3.23056 91.1207 4.06464L91.2042 5.00445C91.4447 5.25348 91.6528 5.5264 91.8302 5.81977C92.7905 6.80224 93.3875 8.1412 93.3875 9.60808C93.3875 12.5998 90.9092 15.1004 87.9174 15.1004C84.9257 15.1004 82.4473 12.5998 82.4473 9.60808C82.4473 8.1395 83.0443 6.80054 84.0063 5.81807C84.1769 5.53834 84.3764 5.27395 84.6033 5.03516L84.6903 4.06633C84.7636 3.23567 84.9785 2.42719 85.3163 1.67669C81.9663 2.76832 79.5511 5.91358 79.5511 9.63196C79.5511 14.2373 83.2916 18 87.9191 18C92.5466 18 96.2872 14.2373 96.2872 9.63196C96.2872 5.90505 93.848 2.75638 90.493 1.66986V1.66815Z" fill="#FCF0F8"/>
<path d="M89.8277 10.2648V9.99525H89.797C89.7783 10.1573 89.7493 10.3176 89.71 10.4797C89.5634 11.0613 89.2888 12.0557 88.9391 12.8489C89.2171 13.6164 89.6145 14.3396 90.1262 14.9827L90.6396 15.6308L91.6937 14.795L91.1803 14.1469C90.3087 13.0467 89.8294 11.6685 89.8294 10.2648H89.8277Z" fill="#FCF0F8"/>
<path d="M86.2066 10.4797C86.1657 10.3193 86.1367 10.1573 86.1196 9.99525H86.0889V10.2648C86.0889 11.6685 85.6096 13.0467 84.738 14.1469L84.2246 14.795L85.2787 15.6308L85.7921 14.9827C86.3021 14.3379 86.7013 13.6147 86.9793 12.8489C86.6296 12.0557 86.355 11.063 86.2083 10.4797H86.2066Z" fill="#FCF0F8"/>
<path d="M90.2047 5.09656L90.1143 4.09021C89.971 2.48517 89.1745 1.00976 87.9123 0.0085263V0C87.9123 0 87.9089 0.00340427 87.9072 0.00340427C87.9072 0.00340427 87.9038 0 87.902 0V0.0085263C86.6398 1.00976 85.8433 2.48517 85.7 4.09021L85.6079 5.12043C84.9444 5.74642 84.5299 6.6402 84.5299 7.6312C84.5299 7.96721 84.5777 8.29129 84.6664 8.59831C85.5499 7.97062 86.6825 7.59537 87.9191 7.59537C89.1557 7.59537 90.2883 7.97233 91.1718 8.59831C91.2605 8.29129 91.3083 7.96721 91.3083 7.6312C91.3083 6.62826 90.8836 5.72596 90.2064 5.09827L90.2047 5.09656ZM87.9191 4.50639C87.3886 4.50639 86.9571 4.07656 86.9571 3.54439C86.9571 3.01222 87.3869 2.5824 87.9191 2.5824C88.4513 2.5824 88.8811 3.01222 88.8811 3.54439C88.8811 4.07656 88.4513 4.50639 87.9191 4.50639Z" fill="#FCF0F8"/>
<path d="M88.9834 9.35733C88.9323 8.79445 88.7054 8.43967 88.4769 8.22305C88.1869 7.94673 87.7298 7.94673 87.4381 8.22305C87.2095 8.43967 86.9827 8.79445 86.9315 9.35733C86.9042 9.66605 86.9315 9.97819 87.0066 10.2801C87.1515 10.8583 87.5029 12.1478 87.9242 12.9085C87.9345 12.929 87.9464 12.9478 87.9566 12.9665C87.9669 12.9478 87.9788 12.929 87.989 12.9085C88.4103 12.1461 88.7617 10.8583 88.9067 10.2801C88.9817 9.97819 89.0107 9.66776 88.9817 9.35733H88.9834Z" fill="#FCF0F8"/>
</svg>
