<?xml version="1.0" encoding="UTF-8" standalone="no"?>
<!-- Uploaded to: SVG Repo, www.svgrepo.com, Generator: SVG Repo Mixer Tools -->

<svg
   fill="#000000"
   width="800"
   height="800"
   viewBox="0 0 24 24"
   version="1.1"
   id="svg1"
   xmlns="http://www.w3.org/2000/svg"
   xmlns:svg="http://www.w3.org/2000/svg">
  <defs
     id="defs1" />
  <path
     d="M 12.954,11.616 15.911,8.659 6.36,3.291 C 5.727,2.949 5.134,2.901 4.614,3.275 Z m 3.461,3.462 3.074,-1.729 c 0.6,-0.336 0.929,-0.812 0.929,-1.34 0,-0.527 -0.329,-1.004 -0.928,-1.34 L 16.707,9.106 13.574,12.238 Z M 4.1,4.002 C 4.036,4.199 4,4.419 4,4.66 v 14.705 c 0,0.381 0.084,0.709 0.236,0.97 l 8.097,-8.098 z m 8.854,8.855 -8.052,8.053 C 5.056,20.969 5.222,21 5.397,21 5.709,21 6.034,20.908 6.365,20.724 l 9.255,-5.197 z"
     id="path1"
     style="fill:#ffffff" />
</svg>
